{
.appVersion = "1350";
DisplayStrings = (
"/a.alt3"
);
classes = (
{
code = " gravecomb acutecomb circumflexcomb tildecomb macroncomb dieresiscomb";
name = AboveMarks;
},
{
code = " uni0304.titl ";
name = AboveCapitalMarks;
},
{
code = " a d e o q a.hist1 a.alt3 e.hist1 agrave aacute acircumflex atilde adieresis amacron\012	    agrave.alt2 aacute.alt2 acircumflex.alt2 atilde.alt2 adieresis.alt2 amacron.alt2\012		agrave.hist1 aacute.hist1 acircumflex.hist1 atilde.hist1 adieresis.hist1 amacron.hist1\012		ocgrave.l0rx ocacute.l0rx occircumflex.l0rx octilde.l0rx ocdieresis.l0rx ocmacron.l0rx\012		agrave.l0rtg aacute.l0rtg acircumflex.l0rtg atilde.l0rtg adieresis.l0rtg amacron.l0rtg\012		ocgrave.l0rg ocacute.l0rg occircumflex.l0rg octilde.l0rg ocdieresis.l0rg ocmacron.l0rg\012		ocgrave.l0rt ocacute.l0rt occircumflex.l0rt octilde.l0rt ocdieresis.l0rt ocmacron.l0rt\012		egrave.hist1 eacute.hist1 ecircumflex.hist1 edieresis.hist1 emacron.hist1\012		egrave.l0rg eacute.l0rg ecircumflex.l0rg edieresis.l0rg emacron.l0rg a.alt2 a.hist1\012		oc.l0rx a.l0rtg oc.l0rg oc.l0rt e.l0rg ograve oacute ocircumflex otilde odieresis\012		omacron ";
name = round_left;
},
{
automatic = 1;

glyphs = (
{
glyphname = A;
lastChange = "2020-03-29 12:07:27 +0000";
layers = (
{
anchors = (
{
name = bottom;
position = "{598, 0}";
},
{
name = ogonek;
position = "{1076, 10}";
},
{
name = top;
position = "{708, 769}";
}
);
hints = (
{
horizontal = 1;
origin = "{0, 29}";
target = "{0, 38}";
type = Stem;
},
{
horizontal = 1;
origin = "{0, 14}";
target = "{1, 14}";
type = Stem;
},
{
horizontal = 1;
origin = "{0, 113}";
target = "{0, 89}";
type = Stem;
},
{
horizontal = 1;
origin = "{0, 83}";
target = down;
type = TopGhost;
},
{
horizontal = 1;
origin = "{0, 77}";
target = up;
type = BottomGhost;
},
{
horizontal = 1;
origin = "{0, 56}";
target = down;
type = TopGhost;
},
{
horizontal = 1;
origin = "{0, 65}";
target = "{0, 71}";
type = Stem;
},
{
horizontal = 1;
origin = "{0, 80}";
target = "{0, 56}";
type = Stem;
},
{
origin = "{0, 98}";
target = "{0, 104}";
type = Stem;
},
{
origin = "{0, 122}";
target = "{0, 2}";
type = Stem;
},
{
origin = "{0, 122}";
target = "{0, 5}";
type = Stem;
},
{
origin = "{0, 68}";
target = "{0, 74}";
type = Stem;
}
);
layerId = master01;
paths = (
{
closed = 1;
nodes = (
"420 -132 OFFCURVE",
"430 -119 OFFCURVE",
"430 -103 CURVE SMOOTH",
"430 -87 OFFCURVE",
"415 -73 OFFCURVE",
"415 -56 CURVE SMOOTH",
"415 -45 OFFCURVE",
"420 -34 OFFCURVE",
"425 -26 CURVE SMOOTH",
"472 52 OFFCURVE",
"519 129 OFFCURVE",
"551 221 CURVE",
"601 202 OFFCURVE",
"665 184 OFFCURVE",
"730 184 CURVE SMOOTH",
"802 184 OFFCURVE",
"858 203 OFFCURVE",
"901 238 CURVE",
"917 203 OFFCURVE",
"932 169 OFFCURVE",
"949 134 CURVE SMOOTH",
"974 81 OFFCURVE",
"1004 31 OFFCURVE",
"1032 -19 CURVE SMOOTH",
"1039 -32 OFFCURVE",
"1045 -40 OFFCURVE",
"1064 -41 CURVE SMOOTH",
"1105 -43 OFFCURVE",
"1146 -52 OFFCURVE",
"1190 -52 CURVE SMOOTH",
"1205 -52 OFFCURVE",
"1220 -50 OFFCURVE",
"1234 -49 CURVE SMOOTH",
"1250 -47 OFFCURVE",
"1261 -41 OFFCURVE",
"1261 -35 CURVE SMOOTH",
"1261 -31 OFFCURVE",
"1256 -28 OFFCURVE",
"1240 -28 CURVE SMOOTH",
"1180 -28 OFFCURVE",
"1133 -3 OFFCURVE",
"1109 38 CURVE SMOOTH",
"1072 103 OFFCURVE",
"1040 172 OFFCURVE",
"1006 239 CURVE SMOOTH",
"970 311 OFFCURVE",
"932 383 OFFCURVE",
"900 457 CURVE SMOOTH",
"880 504 OFFCURVE",
"861 551 OFFCURVE",
"841 598 CURVE SMOOTH",
"817 653 OFFCURVE",
"793 707 OFFCURVE",
"775 767 CURVE",
"759 768 OFFCURVE",
"743 769 OFFCURVE",
"727 769 CURVE SMOOTH",
"686 769 OFFCURVE",
"656 759 OFFCURVE",
"622 757 CURVE SMOOTH",
"542 752 OFFCURVE",
"465 740 OFFCURVE",
"397 720 CURVE SMOOTH",
"377 714 OFFCURVE",
"366 712 OFFCURVE",
"343 712 CURVE SMOOTH",
"319 712 OFFCURVE",
"299 693 OFFCURVE",
"299 671 CURVE SMOOTH",
"299 649 OFFCURVE",
"319 631 OFFCURVE",
"343 631 CURVE SMOOTH",
"367 631 OFFCURVE",
"388 649 OFFCURVE",
"388 671 CURVE SMOOTH",
"388 679 OFFCURVE",
"384 688 OFFCURVE",
"379 694 CURVE",
"463 719 OFFCURVE",
"558 732 OFFCURVE",
"656 739 CURVE",
"682 721 OFFCURVE",
"699 690 OFFCURVE",
"712 660 CURVE",
"644 547 OFFCURVE",
"588 415 OFFCURVE",
"545 281 CURVE",
"485 306 OFFCURVE",
"423 341 OFFCURVE",
"346 341 CURVE SMOOTH",
"294 341 OFFCURVE",
"250 329 OFFCURVE",
"208 317 CURVE SMOOTH",
"131 295 OFFCURVE",
"58 274 OFFCURVE",
"-7 240 CURVE SMOOTH",
"-35 226 OFFCURVE",
"-82 222 OFFCURVE",
"-82 179 CURVE SMOOTH",
"-82 139 OFFCURVE",
"-45 96 OFFCURVE",
"-14 96 CURVE SMOOTH",
"8 96 OFFCURVE",
"18 115 OFFCURVE",
"18 132 CURVE SMOOTH",
"18 162 OFFCURVE",
"-7 200 OFFCURVE",
"-24 210 CURVE",
"36 241 OFFCURVE",
"102 262 OFFCURVE",
"172 281 CURVE SMOOTH",
"214 293 OFFCURVE",
"255 304 OFFCURVE",
"298 304 CURVE SMOOTH",
"389 304 OFFCURVE",
"460 259 OFFCURVE",
"528 230 CURVE",
"502 154 OFFCURVE",
"464 84 OFFCURVE",
"422 20 CURVE SMOOTH",
"414 6 OFFCURVE",
"353 -62 OFFCURVE",
"353 -103 CURVE SMOOTH",
"353 -120 OFFCURVE",
"364 -132 OFFCURVE",
"394 -132 CURVE SMOOTH"
);
},
{
closed = 1;
nodes = (
"688 220 OFFCURVE",
"624 248 OFFCURVE",
"568 271 CURVE",
"588 333 OFFCURVE",
"611 391 OFFCURVE",
"636 450 CURVE SMOOTH",
"664 514 OFFCURVE",
"688 577 OFFCURVE",
"722 635 CURVE",
"772 505 OFFCURVE",
"833 388 OFFCURVE",
"889 264 CURVE",
"853 242 OFFCURVE",
"814 220 OFFCURVE",
"761 220 CURVE SMOOTH"
);
}
);
width = 1195;
},
{
associatedMasterId = master01;
layerId = "676AB86C-7980-49C7-B321-076C1CA87082";
name = bubble;
paths = (
{
closed = 1;
nodes = (
"1195 51 LINE SMOOTH",
"1195 56 OFFCURVE",
"1194 60 OFFCURVE",
"1192 64 CURVE SMOOTH",
"1178 90 OFFCURVE",
"1147 152 OFFCURVE",
"1126 196 CURVE SMOOTH",
"1116 216 OFFCURVE",
"1105 237 OFFCURVE",
"1095 257 CURVE SMOOTH",
"1097 254 OFFCURVE",
"1088 271 OFFCURVE",
"1071 305 CURVE SMOOTH",
"1034 379 OFFCURVE",
"1019 410 OFFCURVE",
"992 473 CURVE SMOOTH",
"991 476 OFFCURVE",
"982 497 OFFCURVE",
"963 543 CURVE SMOOTH",
"955 563 OFFCURVE",
"946 583 OFFCURVE",
"933 614 CURVE SMOOTH",
"903 681 OFFCURVE",
"889 718 OFFCURVE",
"873 771 CURVE SMOOTH",
"871 776 OFFCURVE",
"869 779 OFFCURVE",
"863 781 CURVE SMOOTH",
"787 805 LINE SMOOTH",
"783 806 OFFCURVE",
"780 807 OFFCURVE",
"775 807 CURVE SMOOTH",
"755 809 OFFCURVE",
"741 809 OFFCURVE",
"727 809 CURVE SMOOTH",
"706 809 OFFCURVE",
"672 806 OFFCURVE",
"648 802 CURVE SMOOTH",
"625 798 OFFCURVE",
"619 797 OFFCURVE",
"616 797 CURVE SMOOTH",
"524 791 OFFCURVE",
"431 777 OFFCURVE",
"369 758 CURVE SMOOTH",
"359 756 OFFCURVE",
"354 753 OFFCURVE",
"353 752 CURVE",
"350 752 OFFCURVE",
"347 752 OFFCURVE",
"343 752 CURVE SMOOTH",
"284 752 OFFCURVE",
"199 724 OFFCURVE",
"199 671 CURVE SMOOTH",
"199 618 OFFCURVE",
"284 591 OFFCURVE",
"343 591 CURVE SMOOTH",
"402 591 OFFCURVE",
"488 619 OFFCURVE",
"488 671 CURVE SMOOTH",
"488 673 OFFCURVE",
"488 675 OFFCURVE",
"488 676 CURVE",
"523 684 OFFCURVE",
"560 689 OFFCURVE",
"601 694 CURVE",
"604 686 OFFCURVE",
"607 675 OFFCURVE",
"614 659 CURVE",
"556 561 OFFCURVE",
"511 466 OFFCURVE",
"473 362 CURVE",
"430 375 OFFCURVE",
"389 381 OFFCURVE",
"346 381 CURVE SMOOTH",
"273 381 OFFCURVE",
"208 363 OFFCURVE",
"181 355 CURVE",
"121 333 OFFCURVE",
"42 304 OFFCURVE",
"0 275 CURVE",
"0 276 OFFCURVE",
"0 274 OFFCURVE",
"0 269 CURVE SMOOTH",
"0 242 OFFCURVE",
"0 228 OFFCURVE",
"0 179 CURVE SMOOTH",
"0 66 LINE SMOOTH",
"0 60 OFFCURVE",
"4 56 OFFCURVE",
"10 56 CURVE SMOOTH",
"57 59 OFFCURVE",
"118 80 OFFCURVE",
"118 132 CURVE SMOOTH",
"118 163 OFFCURVE",
"105 185 OFFCURVE",
"84 204 CURVE",
"131 225 OFFCURVE",
"174 237 OFFCURVE",
"268 261 CURVE SMOOTH",
"279 263 OFFCURVE",
"289 264 OFFCURVE",
"298 264 CURVE SMOOTH",
"332 264 OFFCURVE",
"352 256 OFFCURVE",
"426 221 CURVE",
"401 152 OFFCURVE",
"373 95 OFFCURVE",
"338 41 CURVE SMOOTH",
"335 37 OFFCURVE",
"335 34 OFFCURVE",
"332 30 CURVE SMOOTH",
"332 29 OFFCURVE",
"331 28 OFFCURVE",
"330 27 CURVE SMOOTH",
"276 -44 OFFCURVE",
"253 -72 OFFCURVE",
"253 -103 CURVE SMOOTH",
"253 -153 OFFCURVE",
"338 -172 OFFCURVE",
"394 -172 CURVE SMOOTH",
"447 -172 OFFCURVE",
"530 -153 OFFCURVE",
"530 -103 CURVE SMOOTH",
"530 -84 OFFCURVE",
"526 -89 OFFCURVE",
"512 -63 CURVE SMOOTH",
"509 -55 OFFCURVE",
"515 -68 OFFCURVE",
"515 -56 CURVE SMOOTH",
"515 -57 OFFCURVE",
"511 -50 OFFCURVE",
"510 -48 CURVE",
"557 30 OFFCURVE",
"596 95 OFFCURVE",
"624 155 CURVE",
"657 148 OFFCURVE",
"694 144 OFFCURVE",
"730 144 CURVE SMOOTH",
"766 144 OFFCURVE",
"804 149 OFFCURVE",
"840 156 CURVE",
"845 145 OFFCURVE",
"852 132 OFFCURVE",
"859 117 CURVE SMOOTH",
"868 96 OFFCURVE",
"904 34 OFFCURVE",
"926 -4 CURVE SMOOTH",
"932 -16 OFFCURVE",
"939 -28 OFFCURVE",
"944 -38 CURVE SMOOTH",
"944 -37 OFFCURVE",
"1048 -80 OFFCURVE",
"1059 -81 CURVE SMOOTH",
"1066 -81 OFFCURVE",
"1077 -82 OFFCURVE",
"1105 -86 CURVE SMOOTH",
"1141 -90 OFFCURVE",
"1165.003 -92 OFFCURVE",
"1190 -92 CURVE SMOOTH",
"1191 -92 OFFCURVE",
"1192 -92 OFFCURVE",
"1193 -91 CURVE SMOOTH",
"1194 -91 OFFCURVE",
"1195 -90 OFFCURVE",
"1195 -89 CURVE SMOOTH",
"1195 -85 OFFCURVE",
"1195 -71 OFFCURVE",
"1195 -35 CURVE SMOOTH",
"1195 12 LINE"
);
}
);
width = 1195;
}
);
leftKerningGroup = A;
rightKerningGroup = A;
unicode = 0041;
},
{
glyphname = Aring;
lastChange = "2020-03-29 09:35:12 +0000";
layers = (
{
components = (
{
name = A;
},
{
name = ringcomb;
transform = "{1, 0, 0, 1, 1006, 344}";
}
);
layerId = master01;
width = 1195;
},
{
associatedMasterId = master01;
layerId = "9E4EB461-CD40-47EF-8326-2EDF7A6D9732";
name = bubble;
paths = (
{
closed = 1;
nodes = (
"1195 51 LINE SMOOTH",
"1195 56 OFFCURVE",
"1194 60 OFFCURVE",
"1192 64 CURVE SMOOTH",
"1178 90 OFFCURVE",
"1147 152 OFFCURVE",
"1126 196 CURVE SMOOTH",
"1116 216 OFFCURVE",
"1105 237 OFFCURVE",
"1095 257 CURVE SMOOTH",
"1097 254 OFFCURVE",
"1088 271 OFFCURVE",
"1071 305 CURVE SMOOTH",
"1034 379 OFFCURVE",
"1019 410 OFFCURVE",
"992 473 CURVE SMOOTH",
"991 476 OFFCURVE",
"982 497 OFFCURVE",
"963 543 CURVE SMOOTH",
"955 563 OFFCURVE",
"946 583 OFFCURVE",
"933 614 CURVE SMOOTH",
"903 681 OFFCURVE",
"889 718 OFFCURVE",
"873 771 CURVE SMOOTH",
"871 776 OFFCURVE",
"869 779 OFFCURVE",
"863 781 CURVE SMOOTH",
"787 805 LINE SMOOTH",
"783 806 OFFCURVE",
"780 807 OFFCURVE",
"775 807 CURVE SMOOTH",
"755 809 OFFCURVE",
"741 809 OFFCURVE",
"727 809 CURVE SMOOTH",
"706 809 OFFCURVE",
"672 806 OFFCURVE",
"648 802 CURVE SMOOTH",
"625 798 OFFCURVE",
"619 797 OFFCURVE",
"616 797 CURVE SMOOTH",
"524 791 OFFCURVE",
"431 777 OFFCURVE",
"369 758 CURVE SMOOTH",
"359 756 OFFCURVE",
"354 753 OFFCURVE",
"353 752 CURVE",
"350 752 OFFCURVE",
"347 752 OFFCURVE",
"343 752 CURVE SMOOTH",
"284 752 OFFCURVE",
"199 724 OFFCURVE",
"199 671 CURVE SMOOTH",
"199 618 OFFCURVE",
"284 591 OFFCURVE",
"343 591 CURVE SMOOTH",
"402 591 OFFCURVE",
"488 619 OFFCURVE",
"488 671 CURVE SMOOTH",
"488 673 OFFCURVE",
"488 675 OFFCURVE",
"488 676 CURVE",
"523 684 OFFCURVE",
"560 689 OFFCURVE",
"601 694 CURVE",
"604 686 OFFCURVE",
"607 675 OFFCURVE",
"614 659 CURVE",
"556 561 OFFCURVE",
"511 466 OFFCURVE",
"473 362 CURVE",
"430 375 OFFCURVE",
"389 381 OFFCURVE",
"346 381 CURVE SMOOTH",
"273 381 OFFCURVE",
"208 363 OFFCURVE",
"181 355 CURVE",
"121 333 OFFCURVE",
"42 304 OFFCURVE",
"0 275 CURVE",
"0 276 OFFCURVE",
"0 274 OFFCURVE",
"0 269 CURVE SMOOTH",
"0 242 OFFCURVE",
"0 228 OFFCURVE",
"0 179 CURVE SMOOTH",
"0 66 LINE SMOOTH",
"0 60 OFFCURVE",
"4 56 OFFCURVE",
"10 56 CURVE SMOOTH",
"57 59 OFFCURVE",
"118 80 OFFCURVE",
"118 132 CURVE SMOOTH",
"118 163 OFFCURVE",
"105 185 OFFCURVE",
"84 204 CURVE",
"131 225 OFFCURVE",
"174 237 OFFCURVE",
"268 261 CURVE SMOOTH",
"279 263 OFFCURVE",
"289 264 OFFCURVE",
"298 264 CURVE SMOOTH",
"332 264 OFFCURVE",
"352 256 OFFCURVE",
"426 221 CURVE",
"401 152 OFFCURVE",
"373 95 OFFCURVE",
"338 41 CURVE SMOOTH",
"335 37 OFFCURVE",
"335 34 OFFCURVE",
"332 30 CURVE SMOOTH",
"332 29 OFFCURVE",
"331 28 OFFCURVE",
"330 27 CURVE SMOOTH",
"276 -44 OFFCURVE",
"253 -72 OFFCURVE",
"253 -103 CURVE SMOOTH",
"253 -153 OFFCURVE",
"338 -172 OFFCURVE",
"394 -172 CURVE SMOOTH",
"447 -172 OFFCURVE",
"530 -153 OFFCURVE",
"530 -103 CURVE SMOOTH",
"530 -84 OFFCURVE",
"526 -89 OFFCURVE",
"512 -63 CURVE SMOOTH",
"509 -55 OFFCURVE",
"515 -68 OFFCURVE",
"515 -56 CURVE SMOOTH",
"515 -57 OFFCURVE",
"511 -50 OFFCURVE",
"510 -48 CURVE",
"557 30 OFFCURVE",
"596 95 OFFCURVE",
"624 155 CURVE",
"657 148 OFFCURVE",
"694 144 OFFCURVE",
"730 144 CURVE SMOOTH",
"766 144 OFFCURVE",
"804 149 OFFCURVE",
"840 156 CURVE",
"845 145 OFFCURVE",
"852 132 OFFCURVE",
"859 117 CURVE SMOOTH",
"868 96 OFFCURVE",
"904 34 OFFCURVE",
"926 -4 CURVE SMOOTH",
"932 -16 OFFCURVE",
"939 -28 OFFCURVE",
"944 -38 CURVE SMOOTH",
"944 -37 OFFCURVE",
"1048 -80 OFFCURVE",
"1059 -81 CURVE SMOOTH",
"1066 -81 OFFCURVE",
"1077 -82 OFFCURVE",
"1105 -86 CURVE SMOOTH",
"1141 -90 OFFCURVE",
"1165.003 -92 OFFCURVE",
"1190 -92 CURVE SMOOTH",
"1191 -92 OFFCURVE",
"1192 -92 OFFCURVE",
"1193 -91 CURVE SMOOTH",
"1194 -91 OFFCURVE",
"1195 -90 OFFCURVE",
"1195 -89 CURVE SMOOTH",
"1195 -85 OFFCURVE",
"1195 -71 OFFCURVE",
"1195 -35 CURVE SMOOTH",
"1195 12 LINE"
);
}
);
width = 1195;
}
);
leftKerningGroup = A;
rightKerningGroup = A;
unicode = 00C5;
},
{
glyphname = AE;
lastChange = "2020-03-30 22:25:43 +0000";
layers = (
{
anchors = (
{
name = bottom;
position = "{355, 0}";
},
{
name = top;
position = "{475, 769}";
}
);
hints = (
{
horizontal = 1;
origin = "{0, 80}";
target = up;
type = BottomGhost;
},
{
horizontal = 1;
place = "{8.5, 32.5}";
type = Stem;
},
{
horizontal = 1;
origin = "{0, 12}";
target = "{1, 16}";
type = Stem;
},
{
horizontal = 1;
origin = "{0, 58}";
target = "{0, 66}";
type = Stem;
},
{
horizontal = 1;
origin = "{0, 21}";
target = up;
type = BottomGhost;
},
{
horizontal = 1;
origin = "{0, 65}";
target = down;
type = TopGhost;
},
{
origin = "{0, 18}";
target = "{0, 37}";
type = Stem;
},
{
origin = "{0, 72}";
target = "{0, 37}";
type = Stem;
},
{
origin = "{1, 9}";
target = "{0, 37}";
type = Stem;
}
);
layerId = master01;
paths = (
{
closed = 1;
nodes = (
"110 -6 LINE",
"104 5 OFFCURVE",
"98 23 OFFCURVE",
"98 41 CURVE SMOOTH",
"98 52 OFFCURVE",
"99 59 OFFCURVE",
"103 70 CURVE",
"109 111 OFFCURVE",
"138 183 OFFCURVE",
"158 241 CURVE",
"193 237 OFFCURVE",
"230 235 OFFCURVE",
"262 235 CURVE SMOOTH",
"267 235 OFFCURVE",
"275 239 OFFCURVE",
"280 239 CURVE",
"281 199 OFFCURVE",
"286 162 OFFCURVE",
"286 122 CURVE SMOOTH",
"286 84 OFFCURVE",
"282 48 OFFCURVE",
"270 11 CURVE",
"691 6 LINE",
"679 24 OFFCURVE",
"672 65 OFFCURVE",
"668 85 CURVE SMOOTH",
"663 123 OFFCURVE",
"664 151 OFFCURVE",
"660 191 CURVE",
"649 159 OFFCURVE",
"644 112 OFFCURVE",
"610 92 CURVE",
"549 37 OFFCURVE",
"452 46 OFFCURVE",
"374 41 CURVE",
"373 45 OFFCURVE",
"372 49 OFFCURVE",
"372 53 CURVE SMOOTH",
"372 374 LINE",
"464 361 OFFCURVE",
"601 389 OFFCURVE",
"644 292 CURVE SMOOTH",
"649 281 OFFCURVE",
"652 274 OFFCURVE",
"653 263 CURVE",
"656 526 LINE SMOOTH",
"656 531 OFFCURVE",
"652 531 OFFCURVE",
"650 529 CURVE",
"638 495 OFFCURVE",
"620 454 OFFCURVE",
"582 440 CURVE",
"510 417 OFFCURVE",
"443 435 OFFCURVE",
"372 419 CURVE",
"372 738 LINE",
"400 743 OFFCURVE",
"431 746 OFFCURVE",
"462 746 CURVE SMOOTH",
"517 746 OFFCURVE",
"570 736 OFFCURVE",
"610 708 CURVE",
"640 683 OFFCURVE",
"644 636 OFFCURVE",
"656 605 CURVE",
"668 779 LINE",
"449 775 LINE SMOOTH",
"419 775 OFFCURVE",
"300 774 OFFCURVE",
"252 774 CURVE",
"263 756 OFFCURVE",
"265 735 OFFCURVE",
"265 712 CURVE SMOOTH",
"265 657 OFFCURVE",
"243 597 OFFCURVE",
"227 548 CURVE",
"198 465 OFFCURVE",
"171 385 OFFCURVE",
"137 308 CURVE",
"16 8 LINE",
"5 -4 LINE",
"10 -6 LINE"
);
},
{
closed = 1;
nodes = (
"235 276 OFFCURVE",
"205 279 OFFCURVE",
"174 284 CURVE",
"269 566 LINE SMOOTH",
"270 571 OFFCURVE",
"275 584 OFFCURVE",
"277 584 CURVE SMOOTH",
"279 584 OFFCURVE",
"281 571 OFFCURVE",
"281 565 CURVE SMOOTH",
"286 284 LINE SMOOTH",
"286 280 OFFCURVE",
"283 280 OFFCURVE",
"282 276 CURVE",
"277 276 OFFCURVE",
"270 276 OFFCURVE",
"264 276 CURVE SMOOTH"
);
}
);
width = 710;
},
{
associatedMasterId = master01;
layerId = "730C8251-D2A1-49AB-9A92-BAE18690AE83";
name = bubble;
paths = (
{
closed = 1;
nodes = (
"710 90 LINE SMOOTH",
"710 100 OFFCURVE",
"710 116 OFFCURVE",
"710 145 CURVE SMOOTH",
"710 185 LINE SMOOTH",
"710 192 OFFCURVE",
"707 195 OFFCURVE",
"700 196 CURVE SMOOTH",
"574 203 LINE SMOOTH",
"568 204 OFFCURVE",
"564 201 OFFCURVE",
"562 196 CURVE SMOOTH",
"561 190 OFFCURVE",
"558 184 OFFCURVE",
"557 179 CURVE SMOOTH",
"549 152 OFFCURVE",
"548 136 OFFCURVE",
"551 129 CURVE",
"511 93 OFFCURVE",
"509 87 OFFCURVE",
"472 85 CURVE",
"472 319 LINE SMOOTH",
"472 325 OFFCURVE",
"469 329 OFFCURVE",
"462 329 CURVE SMOOTH",
"456 329 OFFCURVE",
"450 329 OFFCURVE",
"444 329 CURVE SMOOTH",
"544 327 OFFCURVE",
"524 341 OFFCURVE",
"553 276 CURVE SMOOTH",
"553 275 OFFCURVE",
"553 271 OFFCURVE",
"553 268 CURVE SMOOTH",
"553 262 OFFCURVE",
"557 259 OFFCURVE",
"563 260 CURVE SMOOTH",
"700 262 LINE SMOOTH",
"707 262 OFFCURVE",
"710 266 OFFCURVE",
"710 272 CURVE SMOOTH",
"710 526 LINE SMOOTH",
"710 572 OFFCURVE",
"598 583 OFFCURVE",
"579 557 CURVE",
"562 546 LINE SMOOTH",
"557 543 OFFCURVE",
"555 540 OFFCURVE",
"553 535 CURVE SMOOTH",
"538 489 OFFCURVE",
"539 474 OFFCURVE",
"547 478 CURVE",
"552 478 LINE",
"518 467 OFFCURVE",
"517 467 OFFCURVE",
"472 467 CURVE",
"472 696 LINE SMOOTH",
"472 702 OFFCURVE",
"462 706 OFFCURVE",
"462 706 CURVE SMOOTH",
"462 706 OFFCURVE",
"462 706 OFFCURVE",
"462 706 CURVE SMOOTH",
"511 706 OFFCURVE",
"509 706 OFFCURVE",
"553 675 CURVE",
"546 677 LINE",
"540 682 OFFCURVE",
"539 665 OFFCURVE",
"551 623 CURVE SMOOTH",
"555 606 OFFCURVE",
"556 608 OFFCURVE",
"559 599 CURVE SMOOTH",
"562 593 OFFCURVE",
"566 591 OFFCURVE",
"571 591 CURVE SMOOTH",
"700 601 LINE SMOOTH",
"707 602 OFFCURVE",
"710 606 OFFCURVE",
"710 612 CURVE SMOOTH",
"710 811 LINE SMOOTH",
"710 817 OFFCURVE",
"706 821 OFFCURVE",
"700 821 CURVE SMOOTH",
"448 815 LINE SMOOTH",
"433 815 OFFCURVE",
"403 815 OFFCURVE",
"370 815 CURVE SMOOTH",
"330 814 OFFCURVE",
"286 814 OFFCURVE",
"259 814 CURVE SMOOTH",
"254 814 OFFCURVE",
"250 813 OFFCURVE",
"246 810 CURVE SMOOTH",
"167 753 LINE",
"163 759 OFFCURVE",
"165 735 OFFCURVE",
"165 712 CURVE SMOOTH",
"165 647 OFFCURVE",
"137 578 OFFCURVE",
"129 550 CURVE SMOOTH",
"93 449 OFFCURVE",
"67 370 OFFCURVE",
"41 315 CURVE SMOOTH",
"39 311 OFFCURVE",
"39 308 OFFCURVE",
"38 303 CURVE SMOOTH",
"0 7 LINE",
"0 -36 LINE SMOOTH",
"0 -43 OFFCURVE",
"4 -46 OFFCURVE",
"10 -46 CURVE SMOOTH",
"103 -46 LINE SMOOTH",
"108 -46 OFFCURVE",
"112 -45 OFFCURVE",
"116 -42 CURVE SMOOTH",
"196 12 LINE",
"263 -26 LINE SMOOTH",
"267 -28 OFFCURVE",
"271 -29 OFFCURVE",
"275 -29 CURVE SMOOTH",
"681 -34 LINE SMOOTH",
"687 -34 OFFCURVE",
"691 -31 OFFCURVE",
"692 -26 CURVE SMOOTH",
"708 22 LINE SMOOTH",
"709 27 OFFCURVE",
"710 30 OFFCURVE",
"710 34 CURVE SMOOTH",
"710 93 LINE"
);
}
);
width = 710;
}
);
leftKerningGroup = A.titl1;
rightKerningGroup = E.titl2;
unicode = 00C6;
},
{
glyphname = B;
lastChange = "2020-03-21 02:29:16 +0000";
layers = (
{
background = {
components = (
{
name = I;
}
);
};
hints = (
{
horizontal = 1;
origin = "{0, 14}";
target = "{1, 32}";
type = Stem;
},
{
horizontal = 1;
origin = "{1, 20}";
target = "{0, 26}";
type = Stem;
},
{
horizontal = 1;
origin = "{2, 9}";
target = "{0, 36}";
type = Stem;
},
{
horizontal = 1;
origin = "{0, 54}";
target = up;
type = BottomGhost;
},
{
horizontal = 1;
origin = "{0, 48}";
target = down;
type = TopGhost;
},
{
horizontal = 1;
origin = "{0, 57}";
target = down;
type = TopGhost;
},
{
horizontal = 1;
origin = "{1, 17}";
target = "{2, 18}";
type = Stem;
},
{
origin = "{0, 70}";
target = "{2, 2}";
type = Stem;
},
{
origin = "{2, 12}";
target = "{0, 33}";
type = Stem;
},
{
origin = "{1, 26}";
target = "{0, 20}";
type = Stem;
},
{
origin = "{0, 70}";
target = "{1, 5}";
type = Stem;
}
);
layerId = master01;
paths = (
{
closed = 1;
nodes = (
"26 -115 OFFCURVE",
"32 -113 OFFCURVE",
"42 -106 CURVE SMOOTH",
"60 -94 OFFCURVE",
"79 -77 OFFCURVE",
"103 -77 CURVE SMOOTH",
"113 -77 OFFCURVE",
"122 -78 OFFCURVE",
"132 -78 CURVE SMOOTH",
"149 -78 OFFCURVE",
"168 -74 OFFCURVE",
"186 -74 CURVE SMOOTH",
"259 -74 OFFCURVE",
"251 -101 OFFCURVE",
"327 -101 CURVE SMOOTH",
"440 -101 OFFCURVE",
"522 -74 OFFCURVE",
"574 -19 CURVE SMOOTH",
"609 18 OFFCURVE",
"618 88 OFFCURVE",
"618 154 CURVE SMOOTH",
"618 220 OFFCURVE",
"578 271 OFFCURVE",
"541 302 CURVE SMOOTH",
"490 345 OFFCURVE",
"423 355 OFFCURVE",
"313 355 CURVE",
"305 367 LINE",
"346 393 OFFCURVE",
"382 419 OFFCURVE",
"418 454 CURVE SMOOTH",
"462 496 OFFCURVE",
"504 536 OFFCURVE",
"504 614 CURVE SMOOTH",
"504 723 OFFCURVE",
"447 762 OFFCURVE",
"341 762 CURVE SMOOTH",
"270 762 OFFCURVE",
"224 729 OFFCURVE",
"186 695 CURVE",
"186 724 OFFCURVE",
"197 748 OFFCURVE",
"215 763 CURVE SMOOTH",
"222 769 OFFCURVE",
"225 775 OFFCURVE",
"225 780 CURVE SMOOTH",
"225 785 OFFCURVE",
"222 786 OFFCURVE",
"217 786 CURVE SMOOTH",
"213 786 OFFCURVE",
"209 782 OFFCURVE",
"204 776 CURVE SMOOTH",
"179 746 OFFCURVE",
"171 727 OFFCURVE",
"108 727 CURVE SMOOTH",
"79 727 OFFCURVE",
"55 737 OFFCURVE",
"29 737 CURVE SMOOTH",
"11 737 OFFCURVE",
"1 731 OFFCURVE",
"1 725 CURVE SMOOTH",
"1 717 OFFCURVE",
"11 708 OFFCURVE",
"25 703 CURVE SMOOTH",
"73 686 OFFCURVE",
"103 653 OFFCURVE",
"107 587 CURVE SMOOTH",
"108 570 OFFCURVE",
"108 553 OFFCURVE",
"108 536 CURVE SMOOTH",
"108 442 LINE SMOOTH",
"108 364 OFFCURVE",
"112 286 OFFCURVE",
"112 209 CURVE SMOOTH",
"112 137 OFFCURVE",
"109 65 OFFCURVE",
"101 0 CURVE SMOOTH",
"98 -24 OFFCURVE",
"89 -30 OFFCURVE",
"72 -40 CURVE SMOOTH",
"56 -50 OFFCURVE",
"43 -62 OFFCURVE",
"29 -74 CURVE SMOOTH",
"17 -84 OFFCURVE",
"11 -96 OFFCURVE",
"11 -104 CURVE SMOOTH",
"11 -111 OFFCURVE",
"14 -115 OFFCURVE",
"21 -115 CURVE SMOOTH"
);
},
{
closed = 1;
nodes = (
"350 -61 OFFCURVE",
"329 -57 OFFCURVE",
"309 -50 CURVE SMOOTH",
"252 -30 OFFCURVE",
"180 2 OFFCURVE",
"180 80 CURVE SMOOTH",
"180 91 OFFCURVE",
"181 104 OFFCURVE",
"181 116 CURVE SMOOTH",
"181 141 OFFCURVE",
"177 166 OFFCURVE",
"177 191 CURVE SMOOTH",
"177 217 OFFCURVE",
"180 242 OFFCURVE",
"180 268 CURVE SMOOTH",
"180 302 OFFCURVE",
"207 305 OFFCURVE",
"237 305 CURVE SMOOTH",
"248 305 OFFCURVE",
"260 304 OFFCURVE",
"270 304 CURVE SMOOTH",
"383 304 OFFCURVE",
"456 257 OFFCURVE",
"509 192 CURVE SMOOTH",
"528 169 OFFCURVE",
"550 141 OFFCURVE",
"550 101 CURVE SMOOTH",
"550 83 OFFCURVE",
"544 66 OFFCURVE",
"537 49 CURVE SMOOTH",
"512 -11 OFFCURVE",
"452 -61 OFFCURVE",
"373 -61 CURVE SMOOTH"
);
},
{
closed = 1;
nodes = (
"182 352 OFFCURVE",
"183 371 OFFCURVE",
"183 391 CURVE SMOOTH",
"183 604 LINE SMOOTH",
"183 654 OFFCURVE",
"216 677 OFFCURVE",
"247 697 CURVE SMOOTH",
"265 709 OFFCURVE",
"288 722 OFFCURVE",
"318 722 CURVE SMOOTH",
"379 722 OFFCURVE",
"424 661 OFFCURVE",
"424 596 CURVE SMOOTH",
"424 537 OFFCURVE",
"391 498 OFFCURVE",
"360 462 CURVE SMOOTH",
"314 408 OFFCURVE",
"258 362 OFFCURVE",
"186 334 CURVE"
);
}
);
width = 653;
},
{
associatedMasterId = master01;
layerId = "93874687-AF43-486E-9E70-DB36797BD8C0";
name = bubble;
paths = (
{
closed = 1;
nodes = (
"581 333 LINE",
"550 358 OFFCURVE",
"492 377 OFFCURVE",
"418 387 CURVE",
"436 401 OFFCURVE",
"452 413 OFFCURVE",
"464 425 CURVE SMOOTH",
"557 514 OFFCURVE",
"581 540 OFFCURVE",
"581 614 CURVE SMOOTH",
"581 742 OFFCURVE",
"480 802 OFFCURVE",
"318 802 CURVE SMOOTH",
"309 802 OFFCURVE",
"300 802 OFFCURVE",
"292 801 CURVE",
"268 822 OFFCURVE",
"212 826 OFFCURVE",
"194 826 CURVE SMOOTH",
"168 826 OFFCURVE",
"103 818 OFFCURVE",
"100 792 CURVE",
"94 782 OFFCURVE",
"85 767 OFFCURVE",
"85 767 CURVE SMOOTH",
"85 767 OFFCURVE",
"80 768 OFFCURVE",
"62 771 CURVE SMOOTH",
"48 774 OFFCURVE",
"20 777 OFFCURVE",
"6 777 CURVE SMOOTH",
"4 777 OFFCURVE",
"0 764 OFFCURVE",
"0 725 CURVE SMOOTH",
"0 665 LINE",
"0 666 LINE SMOOTH",
"0 658 OFFCURVE",
"0 637 OFFCURVE",
"0 561 CURVE SMOOTH",
"0 536 LINE",
"0 442 LINE",
"0 324 LINE SMOOTH",
"0 285 OFFCURVE",
"0 248 OFFCURVE",
"0 209 CURVE SMOOTH",
"0 5 LINE",
"0 7 LINE",
"0 -6 LINE SMOOTH",
"0 -23 OFFCURVE",
"0 -17 OFFCURVE",
"0 -38 CURVE SMOOTH",
"0 -44 LINE SMOOTH",
"0 -62 OFFCURVE",
"0 -73 OFFCURVE",
"0 -104 CURVE SMOOTH",
"0 -144 LINE SMOOTH",
"0 -151 OFFCURVE",
"4 -154 OFFCURVE",
"11 -153 CURVE SMOOTH",
"32 -149 OFFCURVE",
"76 -139 OFFCURVE",
"76 -139 CURVE",
"79 -138 OFFCURVE",
"81 -137 OFFCURVE",
"85 -134 CURVE SMOOTH",
"97.991 -123.002 OFFCURVE",
"99 -119 OFFCURVE",
"89 -117 CURVE",
"95 -118 OFFCURVE",
"104 -118 OFFCURVE",
"109 -118 CURVE SMOOTH",
"118 -118 OFFCURVE",
"136 -117 OFFCURVE",
"146 -116 CURVE SMOOTH",
"158 -114 OFFCURVE",
"162 -114 OFFCURVE",
"163 -114 CURVE SMOOTH",
"191 -114 OFFCURVE",
"164 -112 OFFCURVE",
"194 -124 CURVE SMOOTH",
"219 -134 OFFCURVE",
"265 -141 OFFCURVE",
"304 -141 CURVE SMOOTH",
"433 -141 OFFCURVE",
"562 -104 OFFCURVE",
"618 -51 CURVE SMOOTH",
"622 -48 OFFCURVE",
"624 -45 OFFCURVE",
"624 -40 CURVE SMOOTH",
"629 22 OFFCURVE",
"630 57 OFFCURVE",
"630 154 CURVE SMOOTH",
"630 223 OFFCURVE",
"616 265 OFFCURVE",
"585 327 CURVE SMOOTH",
"583 331 OFFCURVE",
"582 333 OFFCURVE",
"582 333 CURVE SMOOTH"
);
}
);
width = 630;
}
);
rightKerningGroup = B;
unicode = 0042;
},
{
glyphname = C;
lastChange = "2020-03-29 11:53:07 +0000";
layers = (
{
hints = (
{
horizontal = 1;
origin = "{0, 110}";
target = "{0, 23}";
type = Stem;
},
{
horizontal = 1;
origin = "{0, 56}";
target = "{0, 50}";
type = Stem;
},
{
horizontal = 1;
origin = "{0, 38}";
target = "{0, 98}";
type = Stem;
},
{
origin = "{0, 104}";
target = "{0, 32}";
type = Stem;
},
{
origin = "{0, 53}";
target = "{0, 59}";
type = Stem;
}
);
layerId = master01;
paths = (
{
closed = 1;
nodes = (
"560 -260 OFFCURVE",
"674 -194 OFFCURVE",
"738 -114 CURVE SMOOTH",
"766 -79 OFFCURVE",
"786 -40 OFFCURVE",
"808 1 CURVE SMOOTH",
"813 11 OFFCURVE",
"815 18 OFFCURVE",
"815 24 CURVE SMOOTH",
"815 29 OFFCURVE",
"813 32 OFFCURVE",
"809 32 CURVE SMOOTH",
"805 32 OFFCURVE",
"799 28 OFFCURVE",
"793 16 CURVE SMOOTH",
"765 -32 OFFCURVE",
"738 -82 OFFCURVE",
"701 -120 CURVE SMOOTH",
"671 -151 OFFCURVE",
"634 -176 OFFCURVE",
"596 -194 CURVE SMOOTH",
"559 -212 OFFCURVE",
"523 -226 OFFCURVE",
"474 -226 CURVE SMOOTH",
"370 -226 OFFCURVE",
"290 -164 OFFCURVE",
"246 -98 CURVE SMOOTH",
"218 -56 OFFCURVE",
"203 -10 OFFCURVE",
"187 38 CURVE SMOOTH",
"164 110 OFFCURVE",
"145 197 OFFCURVE",
"145 288 CURVE SMOOTH",
"145 356 OFFCURVE",
"151 416 OFFCURVE",
"164 478 CURVE SMOOTH",
"188 596 OFFCURVE",
"228 733 OFFCURVE",
"374 733 CURVE SMOOTH",
"436 733 OFFCURVE",
"467 702 OFFCURVE",
"467 641 CURVE SMOOTH",
"467 610 OFFCURVE",
"464 582 OFFCURVE",
"458 554 CURVE SMOOTH",
"441 480 OFFCURVE",
"385 438 OFFCURVE",
"335 394 CURVE",
"328 400 OFFCURVE",
"322 402 OFFCURVE",
"317 402 CURVE SMOOTH",
"307 402 OFFCURVE",
"300 394 OFFCURVE",
"300 384 CURVE SMOOTH",
"300 366 OFFCURVE",
"320 343 OFFCURVE",
"336 343 CURVE SMOOTH",
"346 343 OFFCURVE",
"354 351 OFFCURVE",
"354 362 CURVE SMOOTH",
"354 369 OFFCURVE",
"350 378 OFFCURVE",
"342 388 CURVE",
"380 417 OFFCURVE",
"424 439 OFFCURVE",
"455 476 CURVE SMOOTH",
"469 494 OFFCURVE",
"482 514 OFFCURVE",
"502 527 CURVE SMOOTH",
"508 531 OFFCURVE",
"515 534 OFFCURVE",
"520 534 CURVE SMOOTH",
"533 534 OFFCURVE",
"545 523 OFFCURVE",
"562 523 CURVE SMOOTH",
"566 523 OFFCURVE",
"571 524 OFFCURVE",
"575 524 CURVE SMOOTH",
"579 524 OFFCURVE",
"583 523 OFFCURVE",
"587 522 CURVE SMOOTH",
"600 518 OFFCURVE",
"614 514 OFFCURVE",
"628 512 CURVE SMOOTH",
"633 511 OFFCURVE",
"637 511 OFFCURVE",
"641 511 CURVE SMOOTH",
"648 511 OFFCURVE",
"652 513 OFFCURVE",
"652 515 CURVE SMOOTH",
"652 519 OFFCURVE",
"644 522 OFFCURVE",
"632 527 CURVE SMOOTH",
"583 545 OFFCURVE",
"576 606 OFFCURVE",
"560 655 CURVE SMOOTH",
"538 723 OFFCURVE",
"485 758 OFFCURVE",
"395 758 CURVE SMOOTH",
"305 758 OFFCURVE",
"236 726 OFFCURVE",
"186 679 CURVE SMOOTH",
"101 601 OFFCURVE",
"46 491 OFFCURVE",
"46 330 CURVE SMOOTH",
"46 163 OFFCURVE",
"86 21 OFFCURVE",
"154 -91 CURVE SMOOTH",
"208 -180 OFFCURVE",
"289 -260 OFFCURVE",
"427 -260 CURVE SMOOTH"
);
}
);
width = 711;
},
{
associatedMasterId = master01;
layerId = "29602E18-8859-46AF-B85C-64650ADF781C";
name = bubble;
paths = (
{
closed = 1;
nodes = (
"711 72 OFFCURVE",
"707 41 OFFCURVE",
"706 35 CURVE",
"678 -12 OFFCURVE",
"640 -81 OFFCURVE",
"629 -92 CURVE SMOOTH",
"594 -129 OFFCURVE",
"585 -143 OFFCURVE",
"553 -158 CURVE SMOOTH",
"500 -183 OFFCURVE",
"500 -186 OFFCURVE",
"474 -186 CURVE SMOOTH",
"418 -186 OFFCURVE",
"385 -159 OFFCURVE",
"329 -76 CURVE SMOOTH",
"322 -65 OFFCURVE",
"312 -39 OFFCURVE",
"282 50 CURVE SMOOTH",
"259 122 OFFCURVE",
"245 213 OFFCURVE",
"245 288 CURVE SMOOTH",
"245 301 OFFCURVE",
"245 313 OFFCURVE",
"246 325 CURVE",
"274 311 OFFCURVE",
"310 303 OFFCURVE",
"336 303 CURVE SMOOTH",
"374 303 OFFCURVE",
"454 317 OFFCURVE",
"454 362 CURVE SMOOTH",
"454 373 OFFCURVE",
"450 381 OFFCURVE",
"445 387 CURVE",
"500 424 OFFCURVE",
"520 437 OFFCURVE",
"532 450 CURVE",
"533 451 LINE SMOOTH",
"534 451 OFFCURVE",
"535 453 OFFCURVE",
"538 456 CURVE SMOOTH",
"539 458 OFFCURVE",
"541 460 OFFCURVE",
"542 461 CURVE SMOOTH",
"548 470 OFFCURVE",
"553 477 OFFCURVE",
"555 483 CURVE",
"557 483 OFFCURVE",
"559 483 OFFCURVE",
"560 483 CURVE",
"585 476 OFFCURVE",
"632 470 OFFCURVE",
"624 472 CURVE",
"630 471 OFFCURVE",
"637 471 OFFCURVE",
"641 471 CURVE SMOOTH",
"653 471 OFFCURVE",
"711 479 OFFCURVE",
"711 515 CURVE SMOOTH",
"711 544 OFFCURVE",
"683 554 OFFCURVE",
"671 564 CURVE",
"681 564 OFFCURVE",
"679 586 OFFCURVE",
"665 638 CURVE SMOOTH",
"662 648 OFFCURVE",
"658 659 OFFCURVE",
"655 667 CURVE SMOOTH",
"629 749 OFFCURVE",
"516 798 OFFCURVE",
"395 798 CURVE SMOOTH",
"293 798 OFFCURVE",
"179 762 OFFCURVE",
"122 712 CURVE SMOOTH",
"119 709 OFFCURVE",
"117 707 OFFCURVE",
"114 703 CURVE SMOOTH",
"31 590 OFFCURVE",
"0 490 OFFCURVE",
"0 330 CURVE SMOOTH",
"0 161 OFFCURVE",
"20 34 OFFCURVE",
"67 -106 CURVE SMOOTH",
"68 -110 OFFCURVE",
"69 -113 OFFCURVE",
"72 -117 CURVE SMOOTH",
"145 -233 OFFCURVE",
"278 -300 OFFCURVE",
"427 -300 CURVE SMOOTH",
"533 -300 OFFCURVE",
"653 -233 OFFCURVE",
"708 -145 CURVE SMOOTH",
"710 -141 OFFCURVE",
"711 -137 OFFCURVE",
"711 -132 CURVE SMOOTH",
"711 16 LINE SMOOTH",
"711 18 OFFCURVE",
"711 21 OFFCURVE",
"711 24 CURVE SMOOTH",
"711 72 LINE"
);
}
);
width = 711;
}
);
leftKerningGroup = C;
rightKerningGroup = C;
unicode = 0043;
},
{
glyphname = Ccedilla;
lastChange = "2020-03-18 21:25:31 +0000";
layers = (
{
hints = (
{
horizontal = 1;
origin = "{0, 145}";
target = "{0, 161}";
type = Stem;
},
{
horizontal = 1;
origin = "{0, 126}";
target = "{0, 39}";
type = Stem;
},
{
horizontal = 1;
origin = "{0, 54}";
target = "{0, 114}";
type = Stem;
},
{
horizontal = 1;
origin = "{0, 72}";
target = "{0, 66}";
type = Stem;
},
{
origin = "{0, 120}";
target = "{0, 48}";
type = Stem;
},
{
origin = "{0, 139}";
target = "{0, 5}";
type = Stem;
},
{
origin = "{0, 69}";
target = "{0, 75}";
type = Stem;
}
);
layerId = master01;
paths = (
{
closed = 1;
nodes = (
"316 -478 OFFCURVE",
"331 -474 OFFCURVE",
"351 -467 CURVE SMOOTH",
"383 -456 OFFCURVE",
"443 -427 OFFCURVE",
"443 -386 CURVE SMOOTH",
"443 -358 OFFCURVE",
"417 -323 OFFCURVE",
"401 -310 CURVE SMOOTH",
"396 -306 OFFCURVE",
"394 -303 OFFCURVE",
"394 -299 CURVE SMOOTH",
"394 -295 OFFCURVE",
"396 -293 OFFCURVE",
"401 -289 CURVE SMOOTH",
"446.044 -259.548 LINE",
"570.844 -253.623 OFFCURVE",
"677.076 -190.155 OFFCURVE",
"738 -114 CURVE SMOOTH",
"766 -79 OFFCURVE",
"786 -40 OFFCURVE",
"808 1 CURVE SMOOTH",
"813 11 OFFCURVE",
"815 18 OFFCURVE",
"815 24 CURVE SMOOTH",
"815 29 OFFCURVE",
"813 32 OFFCURVE",
"809 32 CURVE SMOOTH",
"805 32 OFFCURVE",
"799 28 OFFCURVE",
"793 16 CURVE SMOOTH",
"765 -32 OFFCURVE",
"738 -82 OFFCURVE",
"701 -120 CURVE SMOOTH",
"671 -151 OFFCURVE",
"634 -176 OFFCURVE",
"596 -194 CURVE SMOOTH",
"559 -212 OFFCURVE",
"523 -226 OFFCURVE",
"474 -226 CURVE SMOOTH",
"370 -226 OFFCURVE",
"290 -164 OFFCURVE",
"246 -98 CURVE SMOOTH",
"218 -56 OFFCURVE",
"203 -10 OFFCURVE",
"187 38 CURVE SMOOTH",
"164 110 OFFCURVE",
"145 197 OFFCURVE",
"145 288 CURVE SMOOTH",
"145 356 OFFCURVE",
"151 416 OFFCURVE",
"164 478 CURVE SMOOTH",
"188 596 OFFCURVE",
"228 733 OFFCURVE",
"374 733 CURVE SMOOTH",
"436 733 OFFCURVE",
"467 702 OFFCURVE",
"467 641 CURVE SMOOTH",
"467 610 OFFCURVE",
"464 582 OFFCURVE",
"458 554 CURVE SMOOTH",
"441 480 OFFCURVE",
"385 438 OFFCURVE",
"335 394 CURVE",
"328 400 OFFCURVE",
"322 402 OFFCURVE",
"317 402 CURVE SMOOTH",
"307 402 OFFCURVE",
"300 394 OFFCURVE",
"300 384 CURVE SMOOTH",
"300 366 OFFCURVE",
"320 343 OFFCURVE",
"336 343 CURVE SMOOTH",
"346 343 OFFCURVE",
"354 351 OFFCURVE",
"354 362 CURVE SMOOTH",
"354 369 OFFCURVE",
"350 378 OFFCURVE",
"342 388 CURVE",
"380 417 OFFCURVE",
"424 439 OFFCURVE",
"455 476 CURVE SMOOTH",
"469 494 OFFCURVE",
"482 514 OFFCURVE",
"502 527 CURVE SMOOTH",
"508 531 OFFCURVE",
"515 534 OFFCURVE",
"520 534 CURVE SMOOTH",
"533 534 OFFCURVE",
"545 523 OFFCURVE",
"562 523 CURVE SMOOTH",
"566 523 OFFCURVE",
"571 524 OFFCURVE",
"575 524 CURVE SMOOTH",
"579 524 OFFCURVE",
"583 523 OFFCURVE",
"587 522 CURVE SMOOTH",
"600 518 OFFCURVE",
"614 514 OFFCURVE",
"628 512 CURVE SMOOTH",
"633 511 OFFCURVE",
"637 511 OFFCURVE",
"641 511 CURVE SMOOTH",
"648 511 OFFCURVE",
"652 513 OFFCURVE",
"652 515 CURVE SMOOTH",
"652 519 OFFCURVE",
"644 522 OFFCURVE",
"632 527 CURVE SMOOTH",
"583 545 OFFCURVE",
"576 606 OFFCURVE",
"560 655 CURVE SMOOTH",
"538 723 OFFCURVE",
"485 758 OFFCURVE",
"395 758 CURVE SMOOTH",
"305 758 OFFCURVE",
"236 726 OFFCURVE",
"186 679 CURVE SMOOTH",
"101 601 OFFCURVE",
"46 491 OFFCURVE",
"46 330 CURVE SMOOTH",
"46 163 OFFCURVE",
"86 21 OFFCURVE",
"154 -91 CURVE SMOOTH",
"204.591 -174.381 OFFCURVE",
"278.88 -249.863 OFFCURVE",
"401.538 -259.061 CURVE",
"336 -302 LINE SMOOTH",
"320 -312 OFFCURVE",
"312 -321 OFFCURVE",
"312 -328 CURVE SMOOTH",
"312 -332 OFFCURVE",
"314 -334 OFFCURVE",
"318 -338 CURVE SMOOTH",
"338 -354 OFFCURVE",
"353 -367 OFFCURVE",
"360 -375 CURVE SMOOTH",
"367 -383 OFFCURVE",
"371 -393 OFFCURVE",
"371 -404 CURVE SMOOTH",
"371 -410 OFFCURVE",
"370 -416 OFFCURVE",
"368 -422 CURVE SMOOTH",
"366 -428 OFFCURVE",
"361 -430 OFFCURVE",
"356 -430 CURVE SMOOTH",
"343 -430 OFFCURVE",
"324 -415 OFFCURVE",
"317 -409 CURVE SMOOTH",
"309 -401 OFFCURVE",
"300 -399 OFFCURVE",
"290 -404 CURVE SMOOTH",
"254 -421 LINE SMOOTH",
"246 -425 OFFCURVE",
"242 -429 OFFCURVE",
"242 -434 CURVE SMOOTH",
"242 -436 OFFCURVE",
"242 -439 OFFCURVE",
"244 -441 CURVE SMOOTH",
"260 -459 OFFCURVE",
"284 -478 OFFCURVE",
"310 -478 CURVE SMOOTH"
);
}
);
width = 711;
},
{
associatedMasterId = master01;
layerId = "C4B5FB0D-13E9-45A3-ADC8-BAE0BDB4FE61";
name = bubble;
paths = (
{
closed = 1;
nodes = (
"711 72 OFFCURVE",
"707 41 OFFCURVE",
"706 35 CURVE",
"678 -12 OFFCURVE",
"640 -81 OFFCURVE",
"629 -92 CURVE SMOOTH",
"594 -129 OFFCURVE",
"585 -143 OFFCURVE",
"553 -158 CURVE SMOOTH",
"500 -183 OFFCURVE",
"500 -186 OFFCURVE",
"474 -186 CURVE SMOOTH",
"418 -186 OFFCURVE",
"385 -159 OFFCURVE",
"329 -76 CURVE SMOOTH",
"322 -65 OFFCURVE",
"312 -39 OFFCURVE",
"282 50 CURVE SMOOTH",
"259 122 OFFCURVE",
"245 213 OFFCURVE",
"245 288 CURVE SMOOTH",
"245 301 OFFCURVE",
"245 313 OFFCURVE",
"246 325 CURVE",
"274 311 OFFCURVE",
"310 303 OFFCURVE",
"336 303 CURVE SMOOTH",
"374 303 OFFCURVE",
"454 317 OFFCURVE",
"454 362 CURVE SMOOTH",
"454 373 OFFCURVE",
"450 381 OFFCURVE",
"445 387 CURVE",
"500 424 OFFCURVE",
"520 437 OFFCURVE",
"532 450 CURVE",
"533 451 LINE SMOOTH",
"534 451 OFFCURVE",
"535 453 OFFCURVE",
"538 456 CURVE SMOOTH",
"539 458 OFFCURVE",
"541 460 OFFCURVE",
"542 461 CURVE SMOOTH",
"548 470 OFFCURVE",
"553 477 OFFCURVE",
"555 483 CURVE",
"557 483 OFFCURVE",
"559 483 OFFCURVE",
"560 483 CURVE",
"585 476 OFFCURVE",
"632 470 OFFCURVE",
"624 472 CURVE",
"630 471 OFFCURVE",
"637 471 OFFCURVE",
"641 471 CURVE SMOOTH",
"653 471 OFFCURVE",
"711 479 OFFCURVE",
"711 515 CURVE SMOOTH",
"711 544 OFFCURVE",
"683 554 OFFCURVE",
"671 564 CURVE",
"681 564 OFFCURVE",
"679 586 OFFCURVE",
"665 638 CURVE SMOOTH",
"662 648 OFFCURVE",
"658 659 OFFCURVE",
"655 667 CURVE SMOOTH",
"629 749 OFFCURVE",
"516 798 OFFCURVE",
"395 798 CURVE SMOOTH",
"293 798 OFFCURVE",
"179 762 OFFCURVE",
"122 712 CURVE SMOOTH",
"119 709 OFFCURVE",
"117 707 OFFCURVE",
"114 703 CURVE SMOOTH",
"31 590 OFFCURVE",
"0 490 OFFCURVE",
"0 330 CURVE SMOOTH",
"0 161 OFFCURVE",
"20 34 OFFCURVE",
"67 -106 CURVE SMOOTH",
"68 -110 OFFCURVE",
"69 -113 OFFCURVE",
"72 -117 CURVE SMOOTH",
"118 -191 OFFCURVE",
"189 -245 OFFCURVE",
"273 -274 CURVE",
"246 -289 OFFCURVE",
"212 -303.006 OFFCURVE",
"212 -328 CURVE SMOOTH",
"212 -358 OFFCURVE",
"213 -332 OFFCURVE",
"247 -366 CURVE",
"249 -367 LINE",
"246 -368 OFFCURVE",
"244 -369 OFFCURVE",
"242 -370 CURVE",
"211 -385 LINE",
"210 -385 LINE SMOOTH",
"210 -385 OFFCURVE",
"208 -386 OFFCURVE",
"204 -388 CURVE SMOOTH",
"181 -397 OFFCURVE",
"142 -405 OFFCURVE",
"142 -434 CURVE SMOOTH",
"142 -458 OFFCURVE",
"154 -454 OFFCURVE",
"169 -465 CURVE SMOOTH",
"172 -468 OFFCURVE",
"175 -470 OFFCURVE",
"179 -472 CURVE SMOOTH",
"208 -484 OFFCURVE",
"289 -518 OFFCURVE",
"310 -518 CURVE SMOOTH",
"333 -518 OFFCURVE",
"362 -512 OFFCURVE",
"384 -505 CURVE SMOOTH",
"476 -473 OFFCURVE",
"543 -434 OFFCURVE",
"543 -386 CURVE SMOOTH",
"543 -355 OFFCURVE",
"525 -332 OFFCURVE",
"498 -307 CURVE SMOOTH",
"493 -303 OFFCURVE",
"489 -303 OFFCURVE",
"484 -306 CURVE SMOOTH",
"475 -313 OFFCURVE",
"463 -320 OFFCURVE",
"463 -320 CURVE",
"456 -322 LINE",
"480 -307 LINE SMOOTH",
"486 -303 OFFCURVE",
"486 -297 OFFCURVE",
"481 -293 CURVE SMOOTH",
"475 -288 OFFCURVE",
"470 -284 OFFCURVE",
"464 -279 CURVE SMOOTH",
"464 -279 OFFCURVE",
"477 -288 OFFCURVE",
"486 -293 CURVE SMOOTH",
"491 -297 OFFCURVE",
"494 -297 OFFCURVE",
"498 -295 CURVE",
"581 -278 OFFCURVE",
"666 -218 OFFCURVE",
"708 -145 CURVE SMOOTH",
"710 -141 OFFCURVE",
"711 -137 OFFCURVE",
"711 -132 CURVE SMOOTH",
"711 16 LINE SMOOTH",
"711 18 OFFCURVE",
"711 21 OFFCURVE",
"711 24 CURVE SMOOTH",
"711 72 LINE"
);
},
{
closed = 1;
nodes = (
"494 -299 OFFCURVE",
"494 -299 OFFCURVE",
"494 -299 CURVE SMOOTH",
"494 -299 OFFCURVE",
"494 -299 OFFCURVE",
"493 -298 CURVE",
"490 -300 LINE",
"490 -301 OFFCURVE",
"492 -301 OFFCURVE",
"493 -300 CURVE SMOOTH"
);
}
);
width = 711;
}
);
leftKerningGroup = C;
unicode = 00C7;
},
{
glyphname = D;
lastChange = "2020-03-29 11:53:18 +0000";
layers = (
{
hints = (
{
horizontal = 1;
origin = "{0, 68}";
target = "{0, 114}";
type = Stem;
},
{
horizontal = 1;
origin = "{0, 102}";
target = "{0, 80}";
type = Stem;
},
{
horizontal = 1;
origin = "{0, 47}";
target = down;
type = TopGhost;
},
{
horizontal = 1;
origin = "{0, 38}";
target = down;
type = TopGhost;
},
{
origin = "{0, 108}";
target = "{0, 74}";
type = Stem;
},
{
origin = "{0, 120}";
target = "{0, 11}";
type = Stem;
},
{
origin = "{0, 53}";
target = "{0, 14}";
type = Stem;
}
);
layerId = master01;
paths = (
{
closed = 1;
nodes = (
"1050 -343 OFFCURVE",
"1088 -335 OFFCURVE",
"1130 -331 CURVE SMOOTH",
"1143 -330 OFFCURVE",
"1150 -327 OFFCURVE",
"1150 -322 CURVE SMOOTH",
"1150 -316 OFFCURVE",
"1141 -308 OFFCURVE",
"1130 -304 CURVE SMOOTH",
"1098 -292 OFFCURVE",
"1068 -272 OFFCURVE",
"1068 -228 CURVE SMOOTH",
"1068 48 OFFCURVE",
"1099 299 OFFCURVE",
"1099 575 CURVE SMOOTH",
"1099 631 OFFCURVE",
"1092 684 OFFCURVE",
"1092 736 CURVE SMOOTH",
"1092 765 OFFCURVE",
"1105 782 OFFCURVE",
"1118 800 CURVE SMOOTH",
"1123 806 OFFCURVE",
"1126 811 OFFCURVE",
"1126 816 CURVE SMOOTH",
"1126 826 OFFCURVE",
"1120 832 OFFCURVE",
"1110 832 CURVE SMOOTH",
"1104 832 OFFCURVE",
"1097 828 OFFCURVE",
"1091 822 CURVE SMOOTH",
"1081 812 OFFCURVE",
"1071 803 OFFCURVE",
"1060 796 CURVE SMOOTH",
"1035 779 OFFCURVE",
"1002 758 OFFCURVE",
"962 758 CURVE SMOOTH",
"913 758 OFFCURVE",
"893 798 OFFCURVE",
"844 798 CURVE SMOOTH",
"838 798 OFFCURVE",
"832 797 OFFCURVE",
"826 796 CURVE SMOOTH",
"812 792 OFFCURVE",
"804 786 OFFCURVE",
"804 779 CURVE SMOOTH",
"804 772 OFFCURVE",
"811 763 OFFCURVE",
"824 758 CURVE SMOOTH",
"884 735 OFFCURVE",
"937 707 OFFCURVE",
"990 676 CURVE SMOOTH",
"1012 663 OFFCURVE",
"1015 630 OFFCURVE",
"1015 598 CURVE SMOOTH",
"1015 579 OFFCURVE",
"1014 560 OFFCURVE",
"1014 542 CURVE SMOOTH",
"1014 493 OFFCURVE",
"1012 445 OFFCURVE",
"1008 396 CURVE SMOOTH",
"1003 308 OFFCURVE",
"1000 220 OFFCURVE",
"996 134 CURVE",
"968 57 OFFCURVE",
"938 -12 OFFCURVE",
"886 -70 CURVE SMOOTH",
"822 -140 OFFCURVE",
"724 -186 OFFCURVE",
"600 -186 CURVE SMOOTH",
"496 -186 OFFCURVE",
"410 -157 OFFCURVE",
"331 -110 CURVE SMOOTH",
"217 -43 OFFCURVE",
"134 73 OFFCURVE",
"134 246 CURVE SMOOTH",
"134 389 OFFCURVE",
"205 480 OFFCURVE",
"293 542 CURVE SMOOTH",
"354 586 OFFCURVE",
"422 620 OFFCURVE",
"518 620 CURVE SMOOTH",
"667 620 OFFCURVE",
"768 542 OFFCURVE",
"835 451 CURVE SMOOTH",
"846 435 OFFCURVE",
"856 426 OFFCURVE",
"869 426 CURVE SMOOTH",
"875 426 OFFCURVE",
"881 428 OFFCURVE",
"888 432 CURVE SMOOTH",
"910 443 LINE SMOOTH",
"920 448 OFFCURVE",
"924 457 OFFCURVE",
"924 467 CURVE SMOOTH",
"924 474 OFFCURVE",
"921 483 OFFCURVE",
"916 490 CURVE SMOOTH",
"896 519 OFFCURVE",
"872 545 OFFCURVE",
"844 568 CURVE SMOOTH",
"764 634 OFFCURVE",
"645 658 OFFCURVE",
"505 658 CURVE SMOOTH",
"371 658 OFFCURVE",
"288 602 OFFCURVE",
"211 540 CURVE SMOOTH",
"123 468 OFFCURVE",
"46 373 OFFCURVE",
"46 223 CURVE SMOOTH",
"46 69 OFFCURVE",
"122 -49 OFFCURVE",
"212 -125 CURVE SMOOTH",
"291 -192 OFFCURVE",
"396 -241 OFFCURVE",
"534 -241 CURVE SMOOTH",
"742 -241 OFFCURVE",
"900 -152 OFFCURVE",
"991 -31 CURVE",
"991 -73 OFFCURVE",
"992 -114 OFFCURVE",
"992 -155 CURVE SMOOTH",
"992 -213 OFFCURVE",
"978 -260 OFFCURVE",
"978 -313 CURVE SMOOTH",
"978 -336 OFFCURVE",
"990 -343 OFFCURVE",
"1010 -343 CURVE SMOOTH"
);
}
);
width = 1162;
},
{
associatedMasterId = master01;
layerId = "02B9D813-6476-4DF7-ACA3-8FB466815049";
name = bubble;
paths = (
{
closed = 1;
nodes = (
"1162 -289 OFFCURVE",
"1162 -276 OFFCURVE",
"1162 -266 CURVE SMOOTH",
"1162 -228 LINE SMOOTH",
"1162 -89 OFFCURVE",
"1162 39 OFFCURVE",
"1162 171 CURVE SMOOTH",
"1162 575 LINE SMOOTH",
"1162 603 OFFCURVE",
"1162 634 OFFCURVE",
"1162 661 CURVE SMOOTH",
"1162 736 LINE SMOOTH",
"1162 763 OFFCURVE",
"1162 755 OFFCURVE",
"1162 808 CURVE SMOOTH",
"1162 816 LINE SMOOTH",
"1162 860 OFFCURVE",
"1126 872 OFFCURVE",
"1110 872 CURVE SMOOTH",
"1109 872 OFFCURVE",
"1021 851 OFFCURVE",
"1020 850 CURVE SMOOTH",
"1020 850 OFFCURVE",
"1006 830 OFFCURVE",
"1006 830 CURVE",
"1004 829 LINE SMOOTH",
"1004 829 OFFCURVE",
"977 809 OFFCURVE",
"966 801 CURVE",
"966 804 OFFCURVE",
"962 808 OFFCURVE",
"953 813 CURVE SMOOTH",
"925 829 OFFCURVE",
"881 838 OFFCURVE",
"844 838 CURVE SMOOTH",
"837 838 OFFCURVE",
"816 836 OFFCURVE",
"810 835 CURVE SMOOTH",
"805 835 LINE SMOOTH",
"800 835 OFFCURVE",
"797 834 OFFCURVE",
"793 833 CURVE SMOOTH",
"758 823 OFFCURVE",
"704 811 OFFCURVE",
"704 779 CURVE SMOOTH",
"704 744 OFFCURVE",
"763 730 OFFCURVE",
"788 721 CURVE SMOOTH",
"822 708 OFFCURVE",
"864 686 OFFCURVE",
"939 642 CURVE SMOOTH",
"913 657 OFFCURVE",
"915 631 OFFCURVE",
"915 598 CURVE SMOOTH",
"915 596 OFFCURVE",
"915 595 OFFCURVE",
"915 593 CURVE",
"913 595 OFFCURVE",
"910 597 OFFCURVE",
"908 599 CURVE SMOOTH",
"836 658 OFFCURVE",
"676 698 OFFCURVE",
"505 698 CURVE SMOOTH",
"373 698 OFFCURVE",
"257 657 OFFCURVE",
"153 575 CURVE SMOOTH",
"149 572 OFFCURVE",
"147 570 OFFCURVE",
"144 567 CURVE SMOOTH",
"39 448 OFFCURVE",
"0 359 OFFCURVE",
"0 223 CURVE SMOOTH",
"0 77 OFFCURVE",
"44 -35 OFFCURVE",
"143 -151 CURVE SMOOTH",
"146 -154 OFFCURVE",
"149 -156 OFFCURVE",
"152 -159 CURVE SMOOTH",
"242 -233 OFFCURVE",
"391 -281 OFFCURVE",
"534 -281 CURVE SMOOTH",
"660 -281 OFFCURVE",
"786 -250 OFFCURVE",
"890 -198 CURVE",
"889 -208 OFFCURVE",
"888 -219 OFFCURVE",
"886 -232 CURVE SMOOTH",
"882 -257 OFFCURVE",
"878 -288 OFFCURVE",
"878 -313 CURVE SMOOTH",
"878 -364 OFFCURVE",
"950 -383 OFFCURVE",
"1010 -383 CURVE SMOOTH",
"1036 -383 OFFCURVE",
"1061 -381 OFFCURVE",
"1100 -376 CURVE SMOOTH",
"1125 -373 OFFCURVE",
"1135 -371 OFFCURVE",
"1140 -371 CURVE SMOOTH",
"1138 -371 LINE",
"1144 -369 OFFCURVE",
"1162 -358 OFFCURVE",
"1162 -322 CURVE SMOOTH"
);
}
);
width = 1162;
}
);
leftKerningGroup = D;
rightKerningGroup = D;
unicode = 0044;
},
{
glyphname = Eth;
lastChange = "2020-03-30 21:33:22 +0000";
layers = (
{
hints = (
{
horizontal = 1;
origin = "{0, 59}";
target = "{1, 36}";
type = Stem;
},
{
horizontal = 1;
origin = "{0, 32}";
target = "{1, 3}";
type = Stem;
},
{
horizontal = 1;
origin = "{1, 18}";
target = "{0, 17}";
type = Stem;
},
{
horizontal = 1;
origin = "{0, 50}";
target = down;
type = TopGhost;
},
{
origin = "{0, 47}";
target = "{1, 2}";
type = Stem;
},
{
origin = "{1, 30}";
target = "{0, 8}";
type = Stem;
}
);
layerId = master01;
paths = (
{
closed = 1;
nodes = (
"451 -6 OFFCURVE",
"550 7 OFFCURVE",
"624 54 CURVE SMOOTH",
"658 74 OFFCURVE",
"692 108 OFFCURVE",
"720 142 CURVE SMOOTH",
"774 209 OFFCURVE",
"802 291 OFFCURVE",
"802 379 CURVE SMOOTH",
"802 564 OFFCURVE",
"690 694 OFFCURVE",
"572 738 CURVE",
"475 775 OFFCURVE",
"396 779 OFFCURVE",
"308 779 CURVE SMOOTH",
"279 779 OFFCURVE",
"251 779 OFFCURVE",
"223 779 CURVE SMOOTH",
"189 779 OFFCURVE",
"133 778 OFFCURVE",
"92 770 CURVE",
"111 751 OFFCURVE",
"115 719 OFFCURVE",
"115 688 CURVE SMOOTH",
"115 674 OFFCURVE",
"115 660 OFFCURVE",
"115 648 CURVE SMOOTH",
"115 607 OFFCURVE",
"108 565 OFFCURVE",
"108 523 CURVE SMOOTH",
"108 491 OFFCURVE",
"111 457 OFFCURVE",
"112 425 CURVE",
"58 427 OFFCURVE",
"7 440 OFFCURVE",
"-31 480 CURVE",
"-29 440 OFFCURVE",
"-25 357 OFFCURVE",
"-25 323 CURVE",
"-17 329 OFFCURVE",
"-9 343 OFFCURVE",
"1 349 CURVE SMOOTH",
"32 374 OFFCURVE",
"71 384 OFFCURVE",
"113 388 CURVE",
"114 344 OFFCURVE",
"115 296 OFFCURVE",
"115 252 CURVE SMOOTH",
"115 164 OFFCURVE",
"110 79 OFFCURVE",
"84 1 CURVE",
"89 -3 OFFCURVE",
"102 -4 OFFCURVE",
"110 -4 CURVE SMOOTH",
"127 -4 OFFCURVE",
"146 -2 OFFCURVE",
"164 -2 CURVE SMOOTH",
"226 -2 OFFCURVE",
"295 -6 OFFCURVE",
"359 -6 CURVE SMOOTH"
);
},
{
closed = 1;
nodes = (
"282 25 OFFCURVE",
"250 27 OFFCURVE",
"215 31 CURVE",
"215 389 LINE",
"277 389 LINE SMOOTH",
"333 389 OFFCURVE",
"389 381 OFFCURVE",
"430 349 CURVE SMOOTH",
"440 343 OFFCURVE",
"447 329 OFFCURVE",
"455 323 CURVE",
"455 357 OFFCURVE",
"460 440 OFFCURVE",
"462 480 CURVE",
"416 433 OFFCURVE",
"352 425 OFFCURVE",
"288 425 CURVE SMOOTH",
"215 425 LINE",
"215 740 LINE",
"226 740 OFFCURVE",
"234 740 OFFCURVE",
"245 740 CURVE SMOOTH",
"305 740 OFFCURVE",
"374 739 OFFCURVE",
"434 728 CURVE SMOOTH",
"523 710 OFFCURVE",
"601 647 OFFCURVE",
"636 569 CURVE SMOOTH",
"664 510 OFFCURVE",
"679 433 OFFCURVE",
"679 360 CURVE SMOOTH",
"679 292 OFFCURVE",
"666 223 OFFCURVE",
"636 162 CURVE SMOOTH",
"578 47 OFFCURVE",
"445 25 OFFCURVE",
"323 25 CURVE SMOOTH"
);
}
);
width = 806;
},
{
associatedMasterId = master01;
layerId = "2D849435-2C53-4BD3-8F55-3A9954446E14";
name = bubble;
paths = (
{
closed = 1;
nodes = (
"529 805 OFFCURVE",
"434 819 OFFCURVE",
"308 819 CURVE SMOOTH",
"223 819 LINE SMOOTH",
"167 819 OFFCURVE",
"111 816 OFFCURVE",
"80 810 CURVE SMOOTH",
"75 810 OFFCURVE",
"72 808 OFFCURVE",
"69 804 CURVE SMOOTH",
"21 742 LINE",
"11 752 OFFCURVE",
"15 720 OFFCURVE",
"15 688 CURVE SMOOTH",
"15 648 LINE SMOOTH",
"15 632 OFFCURVE",
"14 618 OFFCURVE",
"12 590 CURVE SMOOTH",
"10 569 OFFCURVE",
"8 543 OFFCURVE",
"8 523 CURVE SMOOTH",
"8 516 OFFCURVE",
"8 509 OFFCURVE",
"8 502 CURVE",
"2 484 LINE SMOOTH",
"1 480 OFFCURVE",
"0 476 OFFCURVE",
"0 472 CURVE SMOOTH",
"0 330 LINE SMOOTH",
"0 325 OFFCURVE",
"1 321 OFFCURVE",
"3 317 CURVE SMOOTH",
"15 295 LINE",
"15 281 OFFCURVE",
"15 266 OFFCURVE",
"15 252 CURVE SMOOTH",
"15 152 OFFCURVE",
"10 70 OFFCURVE",
"1 20 CURVE SMOOTH",
"0 16 OFFCURVE",
"1 12 OFFCURVE",
"3 7 CURVE SMOOTH",
"19 -24 LINE SMOOTH",
"21 -29 OFFCURVE",
"23 -32 OFFCURVE",
"27 -33 CURVE SMOOTH",
"46 -39 OFFCURVE",
"92 -44 OFFCURVE",
"110 -44 CURVE SMOOTH",
"118 -44 OFFCURVE",
"130 -44 OFFCURVE",
"142 -43 CURVE SMOOTH",
"156 -42 OFFCURVE",
"160 -42 OFFCURVE",
"164 -42 CURVE SMOOTH",
"192 -42 OFFCURVE",
"224 -43 OFFCURVE",
"257 -44 CURVE SMOOTH",
"290 -45 OFFCURVE",
"324 -46 OFFCURVE",
"359 -46 CURVE SMOOTH",
"495 -46 OFFCURVE",
"632 -15 OFFCURVE",
"688 27 CURVE",
"732 53 OFFCURVE",
"761 74 OFFCURVE",
"793 111 CURVE SMOOTH",
"796 115 OFFCURVE",
"798 119 OFFCURVE",
"798 124 CURVE SMOOTH",
"804 215 OFFCURVE",
"806 281 OFFCURVE",
"806 379 CURVE SMOOTH",
"806 562 OFFCURVE",
"734 705 OFFCURVE",
"607 775 CURVE"
);
}
);
width = 806;
}
);
leftKerningGroup = Eth.titl;
rightKerningGroup = Eth.titl;
unicode = 00D0;
},
{
glyphname = E;
lastChange = "2020-03-30 22:25:07 +0000";
layers = (
{
anchors = (
{
name = bottom;
position = "{394, 0}";
},
{
name = ogonek;
position = "{709, 10}";
},
{
name = top;
position = "{424, 719}";
},
{
name = topleft;
position = "{20, 769}";
}
);
hints = (
{
horizontal = 1;
origin = "{0, 93}";
target = "{0, 20}";
type = Stem;
},
{
horizontal = 1;
origin = "{0, 32}";
target = "{0, 50}";
type = Stem;
},
{
horizontal = 1;
origin = "{0, 81}";
target = "{0, 62}";
type = Stem;
},
{
horizontal = 1;
origin = "{0, 32}";
target = "{0, 53}";
type = Stem;
},
{
origin = "{0, 87}";
target = "{0, 56}";
type = Stem;
}
);
layerId = master01;
paths = (
{
closed = 1;
nodes = (
"605 -43 OFFCURVE",
"712 45 OFFCURVE",
"752 194 CURVE SMOOTH",
"754 201 OFFCURVE",
"757 210 OFFCURVE",
"757 215 CURVE SMOOTH",
"757 222 OFFCURVE",
"752 226 OFFCURVE",
"739 226 CURVE SMOOTH",
"732 226 OFFCURVE",
"725 224 OFFCURVE",
"718 224 CURVE SMOOTH",
"705 223 OFFCURVE",
"696 220 OFFCURVE",
"692 216 CURVE SMOOTH",
"687 210 OFFCURVE",
"687 204 OFFCURVE",
"683 193 CURVE SMOOTH",
"651 102 OFFCURVE",
"590 5 OFFCURVE",
"475 5 CURVE SMOOTH",
"438 5 OFFCURVE",
"404 15 OFFCURVE",
"370 29 CURVE SMOOTH",
"260 77 OFFCURVE",
"170 165 OFFCURVE",
"148 302 CURVE",
"182 321 OFFCURVE",
"221 328 OFFCURVE",
"269 330 CURVE SMOOTH",
"324 332 OFFCURVE",
"378 338 OFFCURVE",
"437 338 CURVE SMOOTH",
"474 338 OFFCURVE",
"511 337 OFFCURVE",
"548 337 CURVE SMOOTH",
"604 337 OFFCURVE",
"655 341 OFFCURVE",
"702 352 CURVE SMOOTH",
"724 357 OFFCURVE",
"736 370 OFFCURVE",
"736 378 CURVE SMOOTH",
"736 384 OFFCURVE",
"730 389 OFFCURVE",
"716 389 CURVE SMOOTH",
"705 389 OFFCURVE",
"693 386 OFFCURVE",
"682 384 CURVE SMOOTH",
"598 370 OFFCURVE",
"502 372 OFFCURVE",
"404 370 CURVE SMOOTH",
"337 368 OFFCURVE",
"271 360 OFFCURVE",
"203 360 CURVE SMOOTH",
"183 360 OFFCURVE",
"164 360 OFFCURVE",
"145 362 CURVE",
"147 400 OFFCURVE",
"157 438 OFFCURVE",
"173 472 CURVE SMOOTH",
"213 558 OFFCURVE",
"284 648 OFFCURVE",
"409 648 CURVE SMOOTH",
"539 648 OFFCURVE",
"613 570 OFFCURVE",
"653 476 CURVE SMOOTH",
"658 463 OFFCURVE",
"668 451 OFFCURVE",
"684 451 CURVE SMOOTH",
"688 451 OFFCURVE",
"695 453 OFFCURVE",
"700 455 CURVE SMOOTH",
"730 467 LINE SMOOTH",
"742 472 OFFCURVE",
"750 484 OFFCURVE",
"750 497 CURVE SMOOTH",
"750 501 OFFCURVE",
"749 507 OFFCURVE",
"748 511 CURVE SMOOTH",
"704 630 OFFCURVE",
"609 697 OFFCURVE",
"451 697 CURVE SMOOTH",
"360 697 OFFCURVE",
"297 670 OFFCURVE",
"238 630 CURVE SMOOTH",
"148 570 OFFCURVE",
"47 478 OFFCURVE",
"47 334 CURVE SMOOTH",
"47 220 OFFCURVE",
"100 137 OFFCURVE",
"160 72 CURVE SMOOTH",
"221 6 OFFCURVE",
"300 -43 OFFCURVE",
"420 -43 CURVE SMOOTH"
);
}
);
width = 788;
},
{
associatedMasterId = master01;
layerId = "D4C4A22F-943F-4767-A35A-870258973642";
name = bubble;
paths = (
{
closed = 1;
nodes = (
"788 254 OFFCURVE",
"754 266 OFFCURVE",
"739 266 CURVE SMOOTH",
"734 266 OFFCURVE",
"718 265 OFFCURVE",
"714 265 CURVE SMOOTH",
"710 264 OFFCURVE",
"714 264 OFFCURVE",
"718 264 CURVE SMOOTH",
"710 264 LINE SMOOTH",
"702 263 OFFCURVE",
"632 255 OFFCURVE",
"621 244 CURVE",
"618 243 LINE SMOOTH",
"616 242 OFFCURVE",
"614 240 OFFCURVE",
"611 237 CURVE SMOOTH",
"602 229 OFFCURVE",
"594 229 OFFCURVE",
"590 214 CURVE SMOOTH",
"589 212 OFFCURVE",
"589 207 OFFCURVE",
"589 206 CURVE SMOOTH",
"549 93 OFFCURVE",
"515 45 OFFCURVE",
"475 45 CURVE SMOOTH",
"457 45 OFFCURVE",
"456 46 OFFCURVE",
"408 66 CURVE",
"409 66 OFFCURVE",
"390 75 OFFCURVE",
"382 80 CURVE SMOOTH",
"316 121 OFFCURVE",
"270 193 OFFCURVE",
"250 289 CURVE",
"256 289 OFFCURVE",
"263 290 OFFCURVE",
"273 290 CURVE SMOOTH",
"293 291 OFFCURVE",
"308 292 OFFCURVE",
"340 294 CURVE SMOOTH",
"374 296 OFFCURVE",
"406 298 OFFCURVE",
"437 298 CURVE SMOOTH",
"454 298 OFFCURVE",
"473 298 OFFCURVE",
"491 298 CURVE SMOOTH",
"510 297 OFFCURVE",
"528 297 OFFCURVE",
"548 297 CURVE SMOOTH",
"616 297 OFFCURVE",
"683 303 OFFCURVE",
"724 313 CURVE",
"744 321 OFFCURVE",
"788 340 OFFCURVE",
"788 378 CURVE SMOOTH",
"788 406 OFFCURVE",
"771 420 OFFCURVE",
"756 425 CURVE",
"767 430 LINE",
"768 430 LINE SMOOTH",
"768 430 OFFCURVE",
"769 432 OFFCURVE",
"772 436 CURVE SMOOTH",
"780 448 OFFCURVE",
"788 460 OFFCURVE",
"788 497 CURVE SMOOTH",
"788 498 LINE SMOOTH",
"757 645 OFFCURVE",
"623 737 OFFCURVE",
"451 737 CURVE SMOOTH",
"351 737 OFFCURVE",
"250 709 OFFCURVE",
"182 663 CURVE",
"54 553 OFFCURVE",
"0 461 OFFCURVE",
"0 334 CURVE SMOOTH",
"0 230 OFFCURVE",
"22 159 OFFCURVE",
"83 50 CURVE SMOOTH",
"86 46 OFFCURVE",
"88 44 OFFCURVE",
"91 40 CURVE SMOOTH",
"164 -36 OFFCURVE",
"290 -83 OFFCURVE",
"420 -83 CURVE SMOOTH",
"610 -83 OFFCURVE",
"750 18 OFFCURVE",
"788 183 CURVE SMOOTH",
"788 184 OFFCURVE",
"788 185 OFFCURVE",
"788 187 CURVE SMOOTH",
"788 215 LINE SMOOTH"
);
}
);
width = 788;
}
);
leftKerningGroup = E;
rightKerningGroup = E;
unicode = 0045;
},
{
glyphname = F;
lastChange = "2020-03-29 11:53:48 +0000";
layers = (
{
hints = (
{
horizontal = 1;
origin = "{0, 11}";
target = "{0, 29}";
type = Stem;
},
{
horizontal = 1;
origin = "{0, 73}";
target = down;
type = TopGhost;
},
{
horizontal = 1;
origin = "{0, 48}";
target = "{0, 67}";
type = Stem;
},
{
origin = "{0, 94}";
target = "{0, 5}";
type = Stem;
},
{
origin = "{0, 94}";
target = "{0, 8}";
type = Stem;
},
{
origin = "{0, 70}";
target = "{0, 45}";
type = Stem;
},
{
origin = "{0, 103}";
target = "{0, 8}";
type = Stem;
}
);
layerId = master01;
paths = (
{
closed = 1;
nodes = (
"164 -324 OFFCURVE",
"196 -287 OFFCURVE",
"196 -245 CURVE SMOOTH",
"196 -228 OFFCURVE",
"193 -211 OFFCURVE",
"193 -194 CURVE SMOOTH",
"193 -135 OFFCURVE",
"199 -78 OFFCURVE",
"200 -20 CURVE",
"265 -1 OFFCURVE",
"347 4 OFFCURVE",
"426 4 CURVE SMOOTH",
"478 4 OFFCURVE",
"528 -1 OFFCURVE",
"578 -1 CURVE SMOOTH",
"656 -1 OFFCURVE",
"726 9 OFFCURVE",
"803 10 CURVE SMOOTH",
"820 10 OFFCURVE",
"829 17 OFFCURVE",
"829 24 CURVE SMOOTH",
"829 31 OFFCURVE",
"821 40 OFFCURVE",
"804 41 CURVE SMOOTH",
"791 42 OFFCURVE",
"778 42 OFFCURVE",
"766 42 CURVE SMOOTH",
"708 42 OFFCURVE",
"652 35 OFFCURVE",
"593 35 CURVE SMOOTH",
"541 35 OFFCURVE",
"488 40 OFFCURVE",
"438 40 CURVE SMOOTH",
"379 40 OFFCURVE",
"325 30 OFFCURVE",
"269 30 CURVE SMOOTH",
"244 30 OFFCURVE",
"223 32 OFFCURVE",
"200 37 CURVE",
"200 107 LINE SMOOTH",
"200 178 OFFCURVE",
"200 249 OFFCURVE",
"194 316 CURVE SMOOTH",
"190 357 OFFCURVE",
"184 396 OFFCURVE",
"184 439 CURVE SMOOTH",
"184 533 OFFCURVE",
"235 608 OFFCURVE",
"330 608 CURVE SMOOTH",
"403 608 OFFCURVE",
"462 575 OFFCURVE",
"502 527 CURVE SMOOTH",
"515 511 OFFCURVE",
"523 502 OFFCURVE",
"535 502 CURVE SMOOTH",
"539 502 OFFCURVE",
"543 503 OFFCURVE",
"548 505 CURVE SMOOTH",
"568 514 LINE SMOOTH",
"578 519 OFFCURVE",
"583 526 OFFCURVE",
"583 534 CURVE SMOOTH",
"583 540 OFFCURVE",
"581 547 OFFCURVE",
"575 554 CURVE SMOOTH",
"531 612 OFFCURVE",
"456 638 OFFCURVE",
"360 638 CURVE SMOOTH",
"206 638 OFFCURVE",
"116 552 OFFCURVE",
"114 401 CURVE",
"101 412 OFFCURVE",
"81 425 OFFCURVE",
"61 425 CURVE SMOOTH",
"51 425 OFFCURVE",
"44 423 OFFCURVE",
"37 418 CURVE SMOOTH",
"30 413 OFFCURVE",
"26 407 OFFCURVE",
"26 402 CURVE SMOOTH",
"26 396 OFFCURVE",
"31 390 OFFCURVE",
"37 385 CURVE SMOOTH",
"68 361 OFFCURVE",
"95 332 OFFCURVE",
"119 301 CURVE",
"121 267 OFFCURVE",
"124 235 OFFCURVE",
"124 200 CURVE SMOOTH",
"124 156 OFFCURVE",
"121 110 OFFCURVE",
"121 66 CURVE SMOOTH",
"121 25 OFFCURVE",
"124 -15 OFFCURVE",
"124 -56 CURVE SMOOTH",
"124 -134 OFFCURVE",
"119 -211 OFFCURVE",
"108 -282 CURVE SMOOTH",
"107 -289 OFFCURVE",
"106 -295 OFFCURVE",
"106 -302 CURVE SMOOTH",
"106 -312 OFFCURVE",
"110 -324 OFFCURVE",
"121 -324 CURVE SMOOTH"
);
}
);
width = 679;
},
{
associatedMasterId = master01;
layerId = "B04D7224-D04B-48C9-ADAE-CDB20AB377CD";
name = bubble;
paths = (
{
closed = 1;
nodes = (
"679 62 OFFCURVE",
"679 77 OFFCURVE",
"679 80 CURVE SMOOTH",
"679 81 LINE SMOOTH",
"679 82 OFFCURVE",
"674 78 OFFCURVE",
"674 78 CURVE",
"645 77 OFFCURVE",
"618 75 OFFCURVE",
"593 75 CURVE SMOOTH",
"571 75 OFFCURVE",
"545 76 OFFCURVE",
"519 77 CURVE SMOOTH",
"480 79 OFFCURVE",
"460 80 OFFCURVE",
"438 80 CURVE SMOOTH",
"411 80 OFFCURVE",
"385 79 OFFCURVE",
"342 75 CURVE SMOOTH",
"327 73 OFFCURVE",
"313 72 OFFCURVE",
"300 71 CURVE",
"300 107 LINE SMOOTH",
"300 178 OFFCURVE",
"300 248 OFFCURVE",
"294 320 CURVE SMOOTH",
"293 324 OFFCURVE",
"292 332 OFFCURVE",
"290 352 CURVE SMOOTH",
"285 393 OFFCURVE",
"284 414 OFFCURVE",
"284 439 CURVE SMOOTH",
"284 516 OFFCURVE",
"304 568 OFFCURVE",
"330 568 CURVE SMOOTH",
"370 568 OFFCURVE",
"375 562 OFFCURVE",
"425 502 CURVE SMOOTH",
"425 502 OFFCURVE",
"530 462 OFFCURVE",
"535 462 CURVE SMOOTH",
"535 462 OFFCURVE",
"546 463 OFFCURVE",
"582 468 CURVE SMOOTH",
"587 468 OFFCURVE",
"590 469 OFFCURVE",
"594 471 CURVE SMOOTH",
"609 478 LINE",
"611 478 LINE SMOOTH",
"612 478 OFFCURVE",
"614 479 OFFCURVE",
"618 481 CURVE SMOOTH",
"642 492 OFFCURVE",
"679 502 OFFCURVE",
"679 534 CURVE SMOOTH",
"679 563 OFFCURVE",
"660 564 OFFCURVE",
"647 585 CURVE SMOOTH",
"644 589 OFFCURVE",
"643 592 OFFCURVE",
"639 595 CURVE SMOOTH",
"586 643 OFFCURVE",
"472 678 OFFCURVE",
"360 678 CURVE SMOOTH",
"175 678 OFFCURVE",
"49 596 OFFCURVE",
"20 459 CURVE",
"10 455 OFFCURVE",
"0 451 OFFCURVE",
"0 451 CURVE SMOOTH",
"0 441 OFFCURVE",
"0 431 OFFCURVE",
"0 402 CURVE SMOOTH",
"0 365 LINE SMOOTH",
"0 361 OFFCURVE",
"1 357 OFFCURVE",
"3 353 CURVE SMOOTH",
"8 343 OFFCURVE",
"13 324 OFFCURVE",
"19 304 CURVE",
"19 298 OFFCURVE",
"19 295 OFFCURVE",
"21 272 CURVE SMOOTH",
"23 238 OFFCURVE",
"24 220 OFFCURVE",
"24 200 CURVE SMOOTH",
"24 178 OFFCURVE",
"23 157 OFFCURVE",
"23 134 CURVE SMOOTH",
"22 112 OFFCURVE",
"21 88 OFFCURVE",
"21 66 CURVE SMOOTH",
"21 46 OFFCURVE",
"22 24 OFFCURVE",
"23 4 CURVE SMOOTH",
"24 -25 OFFCURVE",
"24 -40 OFFCURVE",
"24 -56 CURVE SMOOTH",
"24 -135 OFFCURVE",
"19 -215 OFFCURVE",
"9 -276 CURVE SMOOTH",
"7 -293 OFFCURVE",
"6 -298 OFFCURVE",
"6 -302 CURVE SMOOTH",
"6 -352 OFFCURVE",
"84 -364 OFFCURVE",
"121 -364 CURVE SMOOTH",
"207 -364 OFFCURVE",
"296 -319 OFFCURVE",
"296 -245 CURVE SMOOTH",
"296 -239.009 OFFCURVE",
"295 -232 OFFCURVE",
"294 -216 CURVE SMOOTH",
"293 -206 OFFCURVE",
"293 -201 OFFCURVE",
"293 -194 CURVE SMOOTH",
"293 -169 OFFCURVE",
"294 -146 OFFCURVE",
"296 -101 CURVE SMOOTH",
"297 -82 OFFCURVE",
"299 -62 OFFCURVE",
"299 -43 CURVE",
"334 -38 OFFCURVE",
"373 -36 OFFCURVE",
"426 -36 CURVE SMOOTH",
"448 -36 OFFCURVE",
"473 -37 OFFCURVE",
"499 -38 CURVE SMOOTH",
"536 -40 OFFCURVE",
"556 -41 OFFCURVE",
"578 -41 CURVE SMOOTH",
"604 -41 OFFCURVE",
"629 -40 OFFCURVE",
"669 -36 CURVE SMOOTH",
"676 -36 OFFCURVE",
"679 -34 OFFCURVE",
"679 -29.997 CURVE",
"679 -29.998 LINE",
"679 24 LINE SMOOTH"
);
}
);
width = 679;
}
);
leftKerningGroup = F;
rightKerningGroup = F;
unicode = 0046;
},
{
glyphname = G;
lastChange = "2020-03-29 12:06:19 +0000";
layers = (
{
hints = (
{
horizontal = 1;
origin = "{0, 143}";
target = "{0, 116}";
type = Stem;
},
{
horizontal = 1;
origin = "{0, 128}";
target = down;
type = TopGhost;
},
{
horizontal = 1;
origin = "{0, 26}";
target = "{0, 56}";
type = Stem;
},
{
horizontal = 1;
origin = "{0, 74}";
target = down;
type = TopGhost;
},
{
horizontal = 1;
origin = "{0, 77}";
target = down;
type = TopGhost;
},
{
origin = "{0, 98}";
target = "{0, 17}";
type = Stem;
},
{
origin = "{0, 137}";
target = "{0, 119}";
type = Stem;
},
{
origin = "{0, 110}";
target = "{0, 5}";
type = Stem;
},
{
origin = "{0, 44}";
target = "{0, 38}";
type = Stem;
}
);
layerId = master01;
paths = (
{
closed = 1;
nodes = (
"707 -613 OFFCURVE",
"784 -551 OFFCURVE",
"812 -467 CURVE SMOOTH",
"832 -406 OFFCURVE",
"869 -335 OFFCURVE",
"869 -257 CURVE SMOOTH",
"869 -118 OFFCURVE",
"740 -76 OFFCURVE",
"636 -44 CURVE SMOOTH",
"586 -27 OFFCURVE",
"532 -15 OFFCURVE",
"480 -5 CURVE SMOOTH",
"444 2 OFFCURVE",
"408 7 OFFCURVE",
"373 18 CURVE SMOOTH",
"284 47 OFFCURVE",
"223 116 OFFCURVE",
"223 232 CURVE SMOOTH",
"223 321 OFFCURVE",
"268 376 OFFCURVE",
"316 420 CURVE SMOOTH",
"351 452 OFFCURVE",
"386 484 OFFCURVE",
"422 515 CURVE",
"526 511 OFFCURVE",
"632 510 OFFCURVE",
"738 510 CURVE SMOOTH",
"800 510 OFFCURVE",
"851 510 OFFCURVE",
"901 529 CURVE SMOOTH",
"932 541 OFFCURVE",
"961 561 OFFCURVE",
"989 581 CURVE SMOOTH",
"1011 598 OFFCURVE",
"1038 616 OFFCURVE",
"1051 640 CURVE SMOOTH",
"1055 646 OFFCURVE",
"1057 653 OFFCURVE",
"1057 658 CURVE SMOOTH",
"1057 682 OFFCURVE",
"1024 696 OFFCURVE",
"998 696 CURVE SMOOTH",
"979 696 OFFCURVE",
"949 678 OFFCURVE",
"949 661 CURVE SMOOTH",
"949 657 OFFCURVE",
"951 653 OFFCURVE",
"955 649 CURVE SMOOTH",
"963 641 OFFCURVE",
"971 631 OFFCURVE",
"971 619 CURVE SMOOTH",
"971 614 OFFCURVE",
"969 608 OFFCURVE",
"965 602 CURVE SMOOTH",
"935 559 OFFCURVE",
"857 557 OFFCURVE",
"786 557 CURVE SMOOTH",
"613 557 OFFCURVE",
"441 570 OFFCURVE",
"280 581 CURVE SMOOTH",
"232 585 OFFCURVE",
"184 585 OFFCURVE",
"136 592 CURVE SMOOTH",
"105 597 OFFCURVE",
"92 615 OFFCURVE",
"92 635 CURVE SMOOTH",
"92 652 OFFCURVE",
"99 669 OFFCURVE",
"109 683 CURVE SMOOTH",
"111 687 OFFCURVE",
"113 688 OFFCURVE",
"113 692 CURVE SMOOTH",
"113 697 OFFCURVE",
"111 701 OFFCURVE",
"106 701 CURVE SMOOTH",
"102 701 OFFCURVE",
"99 700 OFFCURVE",
"95 696 CURVE SMOOTH",
"49 650 OFFCURVE",
"10 595 OFFCURVE",
"-50 564 CURVE SMOOTH",
"-57 560 OFFCURVE",
"-65 556 OFFCURVE",
"-65 552 CURVE SMOOTH",
"-65 548 OFFCURVE",
"-60 547 OFFCURVE",
"-49 547 CURVE SMOOTH",
"-23 547 OFFCURVE",
"5 546 OFFCURVE",
"31 544 CURVE SMOOTH",
"144 536 OFFCURVE",
"253 522 OFFCURVE",
"371 517 CURVE",
"322 474 OFFCURVE",
"274 431 OFFCURVE",
"228 385 CURVE SMOOTH",
"185 342 OFFCURVE",
"144 289 OFFCURVE",
"144 209 CURVE SMOOTH",
"144 90 OFFCURVE",
"220 -3 OFFCURVE",
"305 -43 CURVE SMOOTH",
"365 -71 OFFCURVE",
"432 -76 OFFCURVE",
"497 -92 CURVE SMOOTH",
"547 -103 OFFCURVE",
"595 -120 OFFCURVE",
"642 -140 CURVE SMOOTH",
"724 -177 OFFCURVE",
"787 -233 OFFCURVE",
"787 -348 CURVE SMOOTH",
"787 -391 OFFCURVE",
"783 -420 OFFCURVE",
"769 -463 CURVE SMOOTH",
"751 -517 OFFCURVE",
"705 -547 OFFCURVE",
"653 -547 CURVE SMOOTH",
"540 -547 OFFCURVE",
"463 -457 OFFCURVE",
"463 -344 CURVE SMOOTH",
"463 -282 OFFCURVE",
"492 -237 OFFCURVE",
"536 -214 CURVE SMOOTH",
"547 -208 OFFCURVE",
"554 -201 OFFCURVE",
"554 -196 CURVE SMOOTH",
"554 -192 OFFCURVE",
"550 -190 OFFCURVE",
"544 -190 CURVE SMOOTH",
"540 -190 OFFCURVE",
"534 -189 OFFCURVE",
"527 -193 CURVE SMOOTH",
"498 -204 OFFCURVE",
"473 -222 OFFCURVE",
"451 -245 CURVE SMOOTH",
"415 -282 OFFCURVE",
"382 -336 OFFCURVE",
"382 -404 CURVE SMOOTH",
"382 -428 OFFCURVE",
"386 -452 OFFCURVE",
"396 -475 CURVE SMOOTH",
"427 -549 OFFCURVE",
"500 -613 OFFCURVE",
"601 -613 CURVE SMOOTH"
);
}
);
width = 961;
},
{
associatedMasterId = master01;
layerId = "15C4F86B-22FA-4BC7-B3C3-5B76360A85C2";
name = bubble;
paths = (
{
closed = 1;
nodes = (
"910 731 OFFCURVE",
"849 701 OFFCURVE",
"849 661 CURVE SMOOTH",
"849 660 OFFCURVE",
"872 634 OFFCURVE",
"881 624 CURVE",
"882 624 OFFCURVE",
"882 624 OFFCURVE",
"882 624 CURVE SMOOTH",
"883 625 LINE",
"882 623 LINE",
"883 622 OFFCURVE",
"884 621 OFFCURVE",
"884 621 CURVE SMOOTH",
"884 621 OFFCURVE",
"883 620 OFFCURVE",
"882 620 CURVE SMOOTH",
"881 620 OFFCURVE",
"878 618 OFFCURVE",
"875 614 CURVE SMOOTH",
"860 591 OFFCURVE",
"861 597 OFFCURVE",
"786 597 CURVE SMOOTH",
"608 597 OFFCURVE",
"426 612 OFFCURVE",
"256 623 CURVE SMOOTH",
"248 623 OFFCURVE",
"240 624 OFFCURVE",
"233 624 CURVE SMOOTH",
"192 626 OFFCURVE",
"177 628 OFFCURVE",
"150 632 CURVE SMOOTH",
"152 631 LINE SMOOTH",
"152 632 OFFCURVE",
"170 633 OFFCURVE",
"182 634 CURVE SMOOTH",
"188 635 OFFCURVE",
"192 639 OFFCURVE",
"191 645 CURVE SMOOTH",
"191 652 OFFCURVE",
"190 659 OFFCURVE",
"190 660 CURVE",
"198 665 LINE SMOOTH",
"197 664 OFFCURVE",
"194 664 OFFCURVE",
"194 664 CURVE SMOOTH",
"194 664 OFFCURVE",
"213 691 OFFCURVE",
"213 692 CURVE SMOOTH",
"213 694 OFFCURVE",
"111 741 OFFCURVE",
"106 741 CURVE SMOOTH",
"103 741 OFFCURVE",
"25 725 OFFCURVE",
"24 724 CURVE SMOOTH",
"18 714 OFFCURVE",
"10 703 OFFCURVE",
"3 691 CURVE SMOOTH",
"1 687 OFFCURVE",
"0 684 OFFCURVE",
"0 679 CURVE SMOOTH",
"0 589 LINE SMOOTH",
"0 580 OFFCURVE",
"0 571 OFFCURVE",
"0 552 CURVE SMOOTH",
"0 517 LINE SMOOTH",
"0 510 OFFCURVE",
"3 507 OFFCURVE",
"10 507 CURVE SMOOTH",
"12 506 OFFCURVE",
"15 506 OFFCURVE",
"18 505 CURVE SMOOTH",
"22 505 OFFCURVE",
"25 504 OFFCURVE",
"30 504 CURVE SMOOTH",
"67 501 OFFCURVE",
"112 497 OFFCURVE",
"154 493 CURVE SMOOTH",
"181 490 OFFCURVE",
"208 488 OFFCURVE",
"236 486 CURVE",
"199 453 OFFCURVE",
"171 427 OFFCURVE",
"157 413 CURVE SMOOTH",
"73 329 OFFCURVE",
"44 288 OFFCURVE",
"44 209 CURVE SMOOTH",
"44 83 OFFCURVE",
"122 -13 OFFCURVE",
"263 -79 CURVE SMOOTH",
"298 -96 OFFCURVE",
"371 -110 OFFCURVE",
"416 -118 CURVE SMOOTH",
"443 -124 OFFCURVE",
"460 -127 OFFCURVE",
"502 -138 CURVE SMOOTH",
"512 -141 OFFCURVE",
"524 -145 OFFCURVE",
"537 -150 CURVE",
"527 -150 OFFCURVE",
"515 -151 OFFCURVE",
"503 -153 CURVE SMOOTH",
"499 -153 OFFCURVE",
"496 -154 OFFCURVE",
"491 -156 CURVE SMOOTH",
"450 -171 OFFCURVE",
"407 -188 OFFCURVE",
"379 -217 CURVE SMOOTH",
"310 -288 OFFCURVE",
"282 -331 OFFCURVE",
"282 -404 CURVE SMOOTH",
"282 -441 OFFCURVE",
"287 -450 OFFCURVE",
"304 -491 CURVE SMOOTH",
"344 -586 OFFCURVE",
"476 -653 OFFCURVE",
"601 -653 CURVE SMOOTH",
"737 -653 OFFCURVE",
"873 -582 OFFCURVE",
"907 -480 CURVE SMOOTH",
"912 -464 OFFCURVE",
"916 -450 OFFCURVE",
"923 -434 CURVE SMOOTH",
"952 -340 OFFCURVE",
"961 -307 OFFCURVE",
"961 -257 CURVE SMOOTH",
"961 -86 OFFCURVE",
"744 -32 OFFCURVE",
"630 5 CURVE SMOOTH",
"596 14 OFFCURVE",
"551 24 OFFCURVE",
"499 34 CURVE SMOOTH",
"499 34 OFFCURVE",
"490 36 OFFCURVE",
"471 39 CURVE SMOOTH",
"440 45 OFFCURVE",
"434 46 OFFCURVE",
"403 56 CURVE SMOOTH",
"404 56 LINE SMOOTH",
"356 72 OFFCURVE",
"323 139 OFFCURVE",
"323 232 CURVE SMOOTH",
"323 323 OFFCURVE",
"361 370 OFFCURVE",
"384 390 CURVE SMOOTH",
"411 416 OFFCURVE",
"452 453 OFFCURVE",
"474 473 CURVE",
"561 471 OFFCURVE",
"651 470 OFFCURVE",
"738 470 CURVE SMOOTH",
"830 470 OFFCURVE",
"891 476 OFFCURVE",
"930 489 CURVE SMOOTH",
"935 491 OFFCURVE",
"937 494 OFFCURVE",
"939 499 CURVE SMOOTH",
"946 520 OFFCURVE",
"947 527 OFFCURVE",
"960 605 CURVE SMOOTH",
"961 610 OFFCURVE",
"961 613 OFFCURVE",
"961 618 CURVE SMOOTH",
"961 621 LINE",
"961 618 LINE SMOOTH",
"961 633 OFFCURVE",
"961 635 OFFCURVE",
"961 658 CURVE SMOOTH",
"961 726 LINE SMOOTH",
"961 732 OFFCURVE",
"957 736 OFFCURVE",
"951 735 CURVE SMOOTH"
);
},
{
closed = 1;
nodes = (
"878 623 OFFCURVE",
"879 620 OFFCURVE",
"879 620 CURVE",
"880 620 OFFCURVE",
"880 621 OFFCURVE",
"881 621 CURVE SMOOTH",
"881 622 OFFCURVE",
"882 624 OFFCURVE",
"881 624 CURVE"
);
}
);
width = 961;
}
);
leftKerningGroup = G;
rightKerningGroup = G;
unicode = 0047;
},
{
glyphname = H;
lastChange = "2020-03-29 12:06:30 +0000";
layers = (
{
hints = (
{
horizontal = 1;
origin = "{0, 140}";
target = "{0, 131}";
type = Stem;
},
{
horizontal = 1;
origin = "{0, 134}";
target = down;
type = TopGhost;
},
{
horizontal = 1;
origin = "{0, 119}";
target = "{0, 14}";
type = Stem;
},
{
horizontal = 1;
origin = "{0, 57}";
target = up;
type = BottomGhost;
},
{
horizontal = 1;
origin = "{0, 103}";
target = "{0, 131}";
type = Stem;
},
{
horizontal = 1;
origin = "{0, 78}";
target = "{0, 60}";
type = Stem;
},
{
horizontal = 1;
origin = "{0, 104}";
target = up;
type = BottomGhost;
},
{
origin = "{0, 88}";
target = "{0, 20}";
type = Stem;
},
{
origin = "{0, 125}";
target = "{0, 8}";
type = Stem;
},
{
origin = "{0, 54}";
target = "{0, 30}";
type = Stem;
},
{
origin = "{0, 88}";
target = "{0, 110}";
type = Stem;
}
);
layerId = master01;
paths = (
{
closed = 1;
nodes = (
"747 -155 OFFCURVE",
"760 -152 OFFCURVE",
"776 -146 CURVE SMOOTH",
"838 -118 OFFCURVE",
"881 -50 OFFCURVE",
"911 8 CURVE SMOOTH",
"933 52 OFFCURVE",
"948 94 OFFCURVE",
"948 150 CURVE SMOOTH",
"948 233 OFFCURVE",
"916 294 OFFCURVE",
"878 346 CURVE SMOOTH",
"819 425 OFFCURVE",
"723 488 OFFCURVE",
"592 488 CURVE SMOOTH",
"507 488 OFFCURVE",
"429 468 OFFCURVE",
"373 432 CURVE SMOOTH",
"320 398 OFFCURVE",
"280 350 OFFCURVE",
"227 316 CURVE",
"227 433 LINE SMOOTH",
"227 516 OFFCURVE",
"226 590 OFFCURVE",
"221 667 CURVE SMOOTH",
"219 697 OFFCURVE",
"218 729 OFFCURVE",
"212 758 CURVE SMOOTH",
"208 770 OFFCURVE",
"206 780 OFFCURVE",
"206 790 CURVE SMOOTH",
"206 795 OFFCURVE",
"207 800 OFFCURVE",
"208 806 CURVE SMOOTH",
"213 826 OFFCURVE",
"223 845 OFFCURVE",
"236 859 CURVE SMOOTH",
"244 869 OFFCURVE",
"251 877 OFFCURVE",
"251 882 CURVE SMOOTH",
"251 886 OFFCURVE",
"249 888 OFFCURVE",
"244 888 CURVE SMOOTH",
"239 888 OFFCURVE",
"233 886 OFFCURVE",
"222 880 CURVE SMOOTH",
"205 870 OFFCURVE",
"191 857 OFFCURVE",
"180 841 CURVE SMOOTH",
"170 830 OFFCURVE",
"170 814 OFFCURVE",
"152 814 CURVE SMOOTH",
"129 814 OFFCURVE",
"112 802 OFFCURVE",
"112 779 CURVE SMOOTH",
"112 762 OFFCURVE",
"102 758 OFFCURVE",
"86 758 CURVE SMOOTH",
"57 758 OFFCURVE",
"32 790 OFFCURVE",
"0 790 CURVE SMOOTH",
"-28 790 OFFCURVE",
"-49 780 OFFCURVE",
"-72 773 CURVE SMOOTH",
"-93 766 OFFCURVE",
"-113 758 OFFCURVE",
"-131 748 CURVE SMOOTH",
"-144 741 OFFCURVE",
"-150 732 OFFCURVE",
"-150 727 CURVE SMOOTH",
"-150 723 OFFCURVE",
"-148 721 OFFCURVE",
"-142 721 CURVE SMOOTH",
"-137 721 OFFCURVE",
"-131 722 OFFCURVE",
"-124 726 CURVE SMOOTH",
"-101 736 OFFCURVE",
"-76 745 OFFCURVE",
"-48 745 CURVE SMOOTH",
"-28 745 OFFCURVE",
"-14 739 OFFCURVE",
"2 731 CURVE SMOOTH",
"58 700 OFFCURVE",
"108 660 OFFCURVE",
"142 608 CURVE",
"144 566 OFFCURVE",
"144 524 OFFCURVE",
"144 482 CURVE SMOOTH",
"144 307 LINE SMOOTH",
"144 197 OFFCURVE",
"146 85 OFFCURVE",
"146 -23 CURVE SMOOTH",
"146 -48 OFFCURVE",
"146 -68 OFFCURVE",
"139 -90 CURVE SMOOTH",
"137 -96 OFFCURVE",
"137 -101 OFFCURVE",
"137 -106 CURVE SMOOTH",
"137 -132 OFFCURVE",
"161 -148 OFFCURVE",
"192 -148 CURVE SMOOTH",
"228 -148 OFFCURVE",
"261 -132 OFFCURVE",
"289 -118 CURVE",
"292 -103 LINE",
"256 -92 OFFCURVE",
"230 -90 OFFCURVE",
"226 -47 CURVE SMOOTH",
"222 -7 OFFCURVE",
"221 33 OFFCURVE",
"221 74 CURVE SMOOTH",
"221 106 OFFCURVE",
"221 139 OFFCURVE",
"222 170 CURVE",
"246 220 OFFCURVE",
"265 273 OFFCURVE",
"299 316 CURVE SMOOTH",
"348 380 OFFCURVE",
"437 422 OFFCURVE",
"544 422 CURVE SMOOTH",
"616 422 OFFCURVE",
"670 401 OFFCURVE",
"722 366 CURVE SMOOTH",
"807 310 OFFCURVE",
"881 221 OFFCURVE",
"881 89 CURVE SMOOTH",
"881 15 OFFCURVE",
"855 -66 OFFCURVE",
"799 -95 CURVE SMOOTH",
"793 -99 OFFCURVE",
"786 -98 OFFCURVE",
"781 -98 CURVE SMOOTH",
"746 -98 OFFCURVE",
"738 -50 OFFCURVE",
"703 -50 CURVE SMOOTH",
"679 -50 OFFCURVE",
"638 -76 OFFCURVE",
"638 -102 CURVE SMOOTH",
"638 -134 OFFCURVE",
"699 -155 OFFCURVE",
"730 -155 CURVE SMOOTH"
);
}
);
width = 993;
},
{
associatedMasterId = master01;
layerId = "FA0B598B-C320-4C41-966E-68684CD774A3";
name = bubble;
paths = (
{
closed = 1;
nodes = (
"883 465 OFFCURVE",
"735 528 OFFCURVE",
"592 528 CURVE SMOOTH",
"496 528 OFFCURVE",
"390 503 OFFCURVE",
"334 474 CURVE SMOOTH",
"329 472 OFFCURVE",
"327 468 OFFCURVE",
"327 462 CURVE SMOOTH",
"327 433 LINE SMOOTH",
"327 441 OFFCURVE",
"327 449 OFFCURVE",
"327 456 CURVE SMOOTH",
"327 464 OFFCURVE",
"319 466 OFFCURVE",
"319 466 CURVE SMOOTH",
"267 432 OFFCURVE",
"271 437 OFFCURVE",
"234 404 CURVE SMOOTH",
"230 401 OFFCURVE",
"53 242 OFFCURVE",
"320 482 CURVE SMOOTH",
"325 486 OFFCURVE",
"327 490 OFFCURVE",
"327 496 CURVE SMOOTH",
"326 564 OFFCURVE",
"324 616 OFFCURVE",
"321 670 CURVE SMOOTH",
"321 671 OFFCURVE",
"320 676 OFFCURVE",
"320 686 CURVE SMOOTH",
"317 726 OFFCURVE",
"314 749 OFFCURVE",
"306 783 CURVE",
"306 786 OFFCURVE",
"306 788 OFFCURVE",
"306 790 CURVE SMOOTH",
"306 792 OFFCURVE",
"306 793 OFFCURVE",
"306 795 CURVE SMOOTH",
"306 796 OFFCURVE",
"306 797 OFFCURVE",
"305 796 CURVE",
"305 798 OFFCURVE",
"310 832 OFFCURVE",
"309 832 CURVE",
"312 833 LINE SMOOTH",
"313 834 OFFCURVE",
"315 835 OFFCURVE",
"318 839 CURVE SMOOTH",
"329 853 OFFCURVE",
"351 879 OFFCURVE",
"351 882 CURVE SMOOTH",
"351 920 OFFCURVE",
"264 928 OFFCURVE",
"244 928 CURVE SMOOTH",
"233 928 OFFCURVE",
"192 925 OFFCURVE",
"174 915 CURVE",
"173 915 LINE SMOOTH",
"172 915 OFFCURVE",
"170 914 OFFCURVE",
"166 911 CURVE SMOOTH",
"156 905 OFFCURVE",
"133 891 OFFCURVE",
"117 879 CURVE SMOOTH",
"113 877 OFFCURVE",
"111 874 OFFCURVE",
"108 870 CURVE SMOOTH",
"99 858 OFFCURVE",
"91 861 OFFCURVE",
"84 848 CURVE SMOOTH",
"84 848 OFFCURVE",
"89 848 OFFCURVE",
"97 848 CURVE",
"77 844 OFFCURVE",
"57 836 OFFCURVE",
"42 826 CURVE",
"31 828 OFFCURVE",
"20 829 OFFCURVE",
"10 830 CURVE SMOOTH",
"4 830 OFFCURVE",
"0 826 OFFCURVE",
"0 820 CURVE SMOOTH",
"0 819 OFFCURVE",
"0 817 OFFCURVE",
"0 816 CURVE SMOOTH",
"0 810 LINE SMOOTH",
"0 803 OFFCURVE",
"0 792 OFFCURVE",
"0 785 CURVE SMOOTH",
"0 727 LINE SMOOTH",
"0 689 OFFCURVE",
"0 681 OFFCURVE",
"0 681 CURVE",
"0 686 LINE SMOOTH",
"0 707 OFFCURVE",
"0 705 OFFCURVE",
"0 705 CURVE",
"0 695 LINE",
"0 696 OFFCURVE",
"1 695 OFFCURVE",
"4 691 CURVE SMOOTH",
"20 671 OFFCURVE",
"29 651 OFFCURVE",
"42 611 CURVE",
"44 570 OFFCURVE",
"44 526 OFFCURVE",
"44 482 CURVE SMOOTH",
"44 307 LINE SMOOTH",
"44 252 OFFCURVE",
"45 196 OFFCURVE",
"45 140 CURVE SMOOTH",
"46 85 OFFCURVE",
"46 31 OFFCURVE",
"46 -23 CURVE SMOOTH",
"46 -57 OFFCURVE",
"45 -74 OFFCURVE",
"44 -78 CURVE SMOOTH",
"38 -95 OFFCURVE",
"37 -86 OFFCURVE",
"37 -106 CURVE SMOOTH",
"37 -159 OFFCURVE",
"124 -188 OFFCURVE",
"192 -188 CURVE SMOOTH",
"260 -188 OFFCURVE",
"338 -161 OFFCURVE",
"384 -121 CURVE SMOOTH",
"388 -118 OFFCURVE",
"389 -116 OFFCURVE",
"390 -114 CURVE SMOOTH",
"390 -112 OFFCURVE",
"388 -109 OFFCURVE",
"383 -106 CURVE SMOOTH",
"326 -68 LINE SMOOTH",
"323 -66 OFFCURVE",
"319 -64 OFFCURVE",
"315 -63 CURVE SMOOTH",
"281 -52 OFFCURVE",
"328 -67 OFFCURVE",
"326 -43 CURVE SMOOTH",
"323 -13 OFFCURVE",
"321 26 OFFCURVE",
"321 74 CURVE SMOOTH",
"321 108 OFFCURVE",
"321 143 OFFCURVE",
"322 173 CURVE",
"325 179 OFFCURVE",
"328 185 OFFCURVE",
"330 191 CURVE SMOOTH",
"356 248 OFFCURVE",
"369 276 OFFCURVE",
"375 287 CURVE",
"432 363 OFFCURVE",
"464 382 OFFCURVE",
"544 382 CURVE SMOOTH",
"590 382 OFFCURVE",
"600 377 OFFCURVE",
"667 333 CURVE SMOOTH",
"735 288 OFFCURVE",
"781 192 OFFCURVE",
"781 89 CURVE SMOOTH",
"781 64 OFFCURVE",
"772 16 OFFCURVE",
"764 -18 CURVE",
"744 -13 OFFCURVE",
"723 -10 OFFCURVE",
"703 -10 CURVE SMOOTH",
"639 -10 OFFCURVE",
"538 -52 OFFCURVE",
"538 -102 CURVE SMOOTH",
"538 -154 OFFCURVE",
"658 -195 OFFCURVE",
"730 -195 CURVE SMOOTH",
"753 -195 OFFCURVE",
"793 -190 OFFCURVE",
"811 -183 CURVE",
"814 -183 LINE SMOOTH",
"816 -183 OFFCURVE",
"819 -182 OFFCURVE",
"823 -180 CURVE SMOOTH",
"904 -141 OFFCURVE",
"948 -99 OFFCURVE",
"990 -16 CURVE SMOOTH",
"992 -12 OFFCURVE",
"993 -8 OFFCURVE",
"993 -4 CURVE SMOOTH",
"993 150 LINE SMOOTH",
"993 230 OFFCURVE",
"985 276 OFFCURVE",
"960 364 CURVE SMOOTH",
"959 368 OFFCURVE",
"957 371 OFFCURVE",
"955 375 CURVE SMOOTH"
);
}
);
width = 993;
}
);
leftKerningGroup = H;
rightKerningGroup = H;
unicode = 0048;
},
{
glyphname = I;
lastChange = "2020-03-30 22:24:16 +0000";
layers = (
{
anchors = (
{
name = bottom;
position = "{154, 0}";
},
{
name = ogonek;
position = "{277, 10}";
},
{
name = top;
position = "{154, 769}";
},
{
name = topleft;
position = "{20, 769}";
}
);
hints = (
{
horizontal = 1;
origin = "{0, 90}";
target = up;
type = BottomGhost;
},
{
horizontal = 1;
origin = "{0, 47}";
target = up;
type = BottomGhost;
},
{
horizontal = 1;
origin = "{0, 53}";
target = down;
type = TopGhost;
},
{
horizontal = 1;
origin = "{0, 38}";
target = down;
type = TopGhost;
},
{
horizontal = 1;
origin = "{0, 53}";
target = "{0, 57}";
type = Stem;
},
{
origin = "{0, 69}";
target = "{0, 26}";
type = Stem;
}
);
layerId = master01;
paths = (
{
closed = 1;
nodes = (
"2 -396 OFFCURVE",
"19 -369 OFFCURVE",
"29 -347 CURVE SMOOTH",
"46 -306 OFFCURVE",
"77 -278 OFFCURVE",
"101 -244 CURVE SMOOTH",
"138 -192 OFFCURVE",
"186 -126 OFFCURVE",
"268 -126 CURVE SMOOTH",
"273 -126 OFFCURVE",
"281 -127 OFFCURVE",
"286 -127 CURVE SMOOTH",
"300 -127 OFFCURVE",
"302 -122 OFFCURVE",
"302 -116 CURVE SMOOTH",
"302 -111 OFFCURVE",
"297 -106 OFFCURVE",
"287 -102 CURVE SMOOTH",
"247 -85 OFFCURVE",
"216 -46 OFFCURVE",
"216 8 CURVE SMOOTH",
"216 66 OFFCURVE",
"226 126 OFFCURVE",
"226 191 CURVE SMOOTH",
"226 249 OFFCURVE",
"221 312 OFFCURVE",
"221 395 CURVE SMOOTH",
"221 460 OFFCURVE",
"212 523 OFFCURVE",
"212 588 CURVE SMOOTH",
"212 640 OFFCURVE",
"222 682 OFFCURVE",
"234 725 CURVE SMOOTH",
"236 732 OFFCURVE",
"236 738 OFFCURVE",
"236 742 CURVE SMOOTH",
"236 748 OFFCURVE",
"234 749 OFFCURVE",
"230 749 CURVE SMOOTH",
"225 749 OFFCURVE",
"219 743 OFFCURVE",
"212 736 CURVE SMOOTH",
"199 722 OFFCURVE",
"187 708 OFFCURVE",
"172 694 CURVE SMOOTH",
"159 681 OFFCURVE",
"138 664 OFFCURVE",
"114 664 CURVE SMOOTH",
"98 664 OFFCURVE",
"86 670 OFFCURVE",
"72 680 CURVE SMOOTH",
"60 688 OFFCURVE",
"46 695 OFFCURVE",
"29 695 CURVE SMOOTH",
"4 695 OFFCURVE",
"-20 682 OFFCURVE",
"-36 665 CURVE",
"-29 638 LINE",
"27 638 OFFCURVE",
"65 614 OFFCURVE",
"95 586 CURVE SMOOTH",
"125 558 OFFCURVE",
"144 527 OFFCURVE",
"144 473 CURVE SMOOTH",
"144 443 OFFCURVE",
"142 414 OFFCURVE",
"142 384 CURVE SMOOTH",
"142 341 OFFCURVE",
"144 299 OFFCURVE",
"144 257 CURVE SMOOTH",
"144 211 OFFCURVE",
"149 191 OFFCURVE",
"149 163 CURVE SMOOTH",
"149 113 OFFCURVE",
"145 65 OFFCURVE",
"145 17 CURVE SMOOTH",
"145 -14 OFFCURVE",
"149 -43 OFFCURVE",
"149 -74 CURVE SMOOTH",
"149 -118 OFFCURVE",
"134 -152 OFFCURVE",
"116 -181 CURVE SMOOTH",
"84 -231 OFFCURVE",
"43 -279 OFFCURVE",
"1 -322 CURVE SMOOTH",
"-4 -327 OFFCURVE",
"-46 -368 OFFCURVE",
"-46 -385 CURVE SMOOTH",
"-46 -392 OFFCURVE",
"-39 -396 OFFCURVE",
"-28 -396 CURVE SMOOTH"
);
}
);
width = 308;
},
{
associatedMasterId = master01;
layerId = "791ADF9A-ADC5-4104-928C-6AB5540BE153";
name = bubble;
paths = (
{
closed = 1;
nodes = (
"308 8 LINE SMOOTH",
"308 30 OFFCURVE",
"308 50 OFFCURVE",
"308 90.998 CURVE SMOOTH",
"308 191 LINE SMOOTH",
"308 217 OFFCURVE",
"308 246 OFFCURVE",
"308 276 CURVE SMOOTH",
"308 395 LINE SMOOTH",
"308 427 OFFCURVE",
"308 462 OFFCURVE",
"308 494 CURVE SMOOTH",
"308 588 LINE SMOOTH",
"308 629 OFFCURVE",
"308 670 OFFCURVE",
"308 714 CURVE SMOOTH",
"308 742 LINE SMOOTH",
"308 782 OFFCURVE",
"249 789 OFFCURVE",
"230 789 CURVE SMOOTH",
"204 789 OFFCURVE",
"161 784 OFFCURVE",
"141 764 CURVE",
"140 764 LINE SMOOTH",
"139 763 OFFCURVE",
"138 762 OFFCURVE",
"134 759 CURVE SMOOTH",
"132 757 OFFCURVE",
"130 755 OFFCURVE",
"128 752 CURVE SMOOTH",
"118 741 OFFCURVE",
"110 731 OFFCURVE",
"106 726 CURVE SMOOTH",
"105 726 OFFCURVE",
"104 725 OFFCURVE",
"103 724 CURVE",
"76 732 OFFCURVE",
"42 735 OFFCURVE",
"29 735 CURVE SMOOTH",
"22 735 OFFCURVE",
"8 721 OFFCURVE",
"1 698 CURVE SMOOTH",
"0 694 OFFCURVE",
"0 691 OFFCURVE",
"0 686 CURVE SMOOTH",
"0 613 LINE SMOOTH",
"0 608 OFFCURVE",
"2 604 OFFCURVE",
"7 601 CURVE SMOOTH",
"25 591 OFFCURVE",
"16 613 OFFCURVE",
"25 564 CURVE SMOOTH",
"26 559 OFFCURVE",
"28 556 OFFCURVE",
"31 552 CURVE SMOOTH",
"40 537 OFFCURVE",
"44 506 OFFCURVE",
"44 473 CURVE SMOOTH",
"44 461 OFFCURVE",
"44 450 OFFCURVE",
"43 430 CURVE SMOOTH",
"43 415 OFFCURVE",
"42 399 OFFCURVE",
"42 384 CURVE SMOOTH",
"42 363 OFFCURVE",
"43 340 OFFCURVE",
"43 319 CURVE SMOOTH",
"44 289 OFFCURVE",
"44 274 OFFCURVE",
"44 257 CURVE SMOOTH",
"44 232 OFFCURVE",
"46 210 OFFCURVE",
"47 195 CURVE SMOOTH",
"49 180 OFFCURVE",
"49 173 OFFCURVE",
"49 163 CURVE SMOOTH",
"49 144 OFFCURVE",
"49 125 OFFCURVE",
"47 90 CURVE SMOOTH",
"46 66 OFFCURVE",
"45 40 OFFCURVE",
"45 17 CURVE SMOOTH",
"45 2 OFFCURVE",
"46 -16 OFFCURVE",
"47 -31 CURVE SMOOTH",
"49 -51 OFFCURVE",
"49 -62 OFFCURVE",
"49 -74 CURVE SMOOTH",
"49 -102 OFFCURVE",
"43 -136 OFFCURVE",
"34 -154 CURVE SMOOTH",
"32 -158 OFFCURVE",
"31 -161 OFFCURVE",
"30 -166 CURVE SMOOTH",
"19 -221 OFFCURVE",
"12 -253 OFFCURVE",
"2 -288 CURVE SMOOTH",
"0 -292 OFFCURVE",
"0 -296 OFFCURVE",
"0 -300 CURVE SMOOTH",
"0 -345 OFFCURVE",
"0 -365 OFFCURVE",
"0 -385 CURVE SMOOTH",
"0 -425 LINE SMOOTH",
"0 -432 OFFCURVE",
"4 -436 OFFCURVE",
"11 -433 CURVE SMOOTH",
"45 -421 OFFCURVE",
"119 -366 OFFCURVE",
"120 -364 CURVE",
"121 -363 LINE SMOOTH",
"121 -362 OFFCURVE",
"122 -361 OFFCURVE",
"124 -356 CURVE SMOOTH",
"143 -310 OFFCURVE",
"132 -328 OFFCURVE",
"153 -301 CURVE SMOOTH",
"172 -279 OFFCURVE",
"184 -265 OFFCURVE",
"183 -267 CURVE SMOOTH",
"237 -190 OFFCURVE",
"249 -167 OFFCURVE",
"266 -166 CURVE SMOOTH",
"267 -166 OFFCURVE",
"268 -166 OFFCURVE",
"269 -166 CURVE SMOOTH",
"273 -167 OFFCURVE",
"282 -167 OFFCURVE",
"286 -167 CURVE SMOOTH",
"291 -167 OFFCURVE",
"308 -159 OFFCURVE",
"308 -116 CURVE SMOOTH",
"308 -54 LINE"
);
}
);
width = 308;
}
);
leftKerningGroup = I;
unicode = 0049;
},
{
glyphname = J;
lastChange = "2020-03-21 02:24:39 +0000";
layers = (
{
hints = (
{
horizontal = 1;
origin = "{0, 44}";
target = up;
type = BottomGhost;
},
{
horizontal = 1;
origin = "{0, 50}";
target = down;
type = TopGhost;
},
{
horizontal = 1;
origin = "{0, 35}";
target = down;
type = TopGhost;
},
{
origin = "{0, 74}";
target = "{0, 20}";
type = Stem;
},
{
origin = "{0, 74}";
target = "{0, 23}";
type = Stem;
}
);
layerId = master01;
paths = (
{
closed = 1;
nodes = (
"2 -613 OFFCURVE",
"18 -585 OFFCURVE",
"28 -563 CURVE SMOOTH",
"45 -522 OFFCURVE",
"77 -495 OFFCURVE",
"101 -460 CURVE SMOOTH",
"138 -408 OFFCURVE",
"184 -343 OFFCURVE",
"266 -343 CURVE SMOOTH",
"288 -343 OFFCURVE",
"299 -340 OFFCURVE",
"299 -335 CURVE SMOOTH",
"299 -329 OFFCURVE",
"290 -320 OFFCURVE",
"274 -312 CURVE SMOOTH",
"240 -293 OFFCURVE",
"216 -256 OFFCURVE",
"216 -209 CURVE SMOOTH",
"216 -151 OFFCURVE",
"227 44 OFFCURVE",
"227 109 CURVE SMOOTH",
"227 223 OFFCURVE",
"221 247 OFFCURVE",
"221 409 CURVE SMOOTH",
"221 474 OFFCURVE",
"212 537 OFFCURVE",
"212 602 CURVE SMOOTH",
"212 649 OFFCURVE",
"222 688 OFFCURVE",
"233 726 CURVE SMOOTH",
"235 736 OFFCURVE",
"236 744 OFFCURVE",
"236 750 CURVE SMOOTH",
"236 758 OFFCURVE",
"234 762 OFFCURVE",
"230 762 CURVE SMOOTH",
"225 762 OFFCURVE",
"219 756 OFFCURVE",
"209 745 CURVE SMOOTH",
"197 732 OFFCURVE",
"186 719 OFFCURVE",
"172 708 CURVE SMOOTH",
"158 696 OFFCURVE",
"136 678 OFFCURVE",
"114 678 CURVE SMOOTH",
"98 678 OFFCURVE",
"85 685 OFFCURVE",
"72 695 CURVE SMOOTH",
"59 705 OFFCURVE",
"46 709 OFFCURVE",
"29 709 CURVE SMOOTH",
"15 709 OFFCURVE",
"0 705 OFFCURVE",
"-12 698 CURVE SMOOTH",
"-24 691 OFFCURVE",
"-34 680 OFFCURVE",
"-34 670 CURVE SMOOTH",
"-34 662 OFFCURVE",
"-26 654 OFFCURVE",
"-7 652 CURVE SMOOTH",
"37 646 OFFCURVE",
"69 624 OFFCURVE",
"95 600 CURVE SMOOTH",
"125 572 OFFCURVE",
"144 540 OFFCURVE",
"144 486 CURVE SMOOTH",
"144 456 OFFCURVE",
"142 428 OFFCURVE",
"142 398 CURVE SMOOTH",
"142 355 OFFCURVE",
"144 313 OFFCURVE",
"144 271 CURVE SMOOTH",
"144 201 OFFCURVE",
"150 156 OFFCURVE",
"150 82 CURVE SMOOTH",
"150 32 OFFCURVE",
"144 -152 OFFCURVE",
"144 -200 CURVE SMOOTH",
"144 -231 OFFCURVE",
"149 -259 OFFCURVE",
"149 -290 CURVE SMOOTH",
"149 -334 OFFCURVE",
"133 -368 OFFCURVE",
"115 -397 CURVE SMOOTH",
"83 -447 OFFCURVE",
"42 -496 OFFCURVE",
"0 -539 CURVE SMOOTH",
"-5 -544 OFFCURVE",
"-47 -585 OFFCURVE",
"-47 -601 CURVE SMOOTH",
"-47 -608 OFFCURVE",
"-39 -613 OFFCURVE",
"-28 -613 CURVE SMOOTH"
);
}
);
width = 295;
},
{
associatedMasterId = master01;
layerId = "087F2B98-1ADE-47F8-9A2F-0CEE6EDE9EF7";
name = bubble;
paths = (
{
closed = 1;
nodes = (
"295 -277 LINE",
"295 -209 LINE SMOOTH",
"295 -180 OFFCURVE",
"295 -122 OFFCURVE",
"295 -60 CURVE SMOOTH",
"295 109 LINE SMOOTH",
"295 161 OFFCURVE",
"295 196 OFFCURVE",
"295 232 CURVE SMOOTH",
"295 409 LINE SMOOTH",
"295 441 OFFCURVE",
"295 476 OFFCURVE",
"295 508 CURVE SMOOTH",
"295 602 LINE SMOOTH",
"295 677 OFFCURVE",
"295 733 OFFCURVE",
"295 734 CURVE SMOOTH",
"295 750 LINE SMOOTH",
"295 797 OFFCURVE",
"245 802 OFFCURVE",
"230 802 CURVE SMOOTH",
"229 802 OFFCURVE",
"135 772 OFFCURVE",
"135 772 CURVE SMOOTH",
"134 770 OFFCURVE",
"131 768 OFFCURVE",
"129 765 CURVE SMOOTH",
"129 765 OFFCURVE",
"118 751 OFFCURVE",
"113 743 CURVE",
"111 742 OFFCURVE",
"108 740 OFFCURVE",
"107 738 CURVE",
"82 745 OFFCURVE",
"49 749 OFFCURVE",
"29 749 CURVE SMOOTH",
"23 749 OFFCURVE",
"11 745 OFFCURVE",
"4 738 CURVE SMOOTH",
"1 734 OFFCURVE",
"0 731 OFFCURVE",
"0 726 CURVE SMOOTH",
"0 711 OFFCURVE",
"0 699 OFFCURVE",
"0 670 CURVE SMOOTH",
"0 622 LINE SMOOTH",
"0 616 OFFCURVE",
"3 613 OFFCURVE",
"8 611 CURVE SMOOTH",
"11 610 OFFCURVE",
"8 608 OFFCURVE",
"24 577 CURVE SMOOTH",
"26 572 OFFCURVE",
"28 570 OFFCURVE",
"31 566 CURVE SMOOTH",
"39 551 OFFCURVE",
"44 518 OFFCURVE",
"44 486 CURVE SMOOTH",
"44 474 OFFCURVE",
"44 464 OFFCURVE",
"43 443 CURVE SMOOTH",
"43 429 OFFCURVE",
"42 413 OFFCURVE",
"42 398 CURVE SMOOTH",
"42 377 OFFCURVE",
"43 354 OFFCURVE",
"43 333 CURVE SMOOTH",
"44 303 OFFCURVE",
"44 288 OFFCURVE",
"44 271 CURVE SMOOTH",
"44 236.997 OFFCURVE",
"46 206 OFFCURVE",
"47 177 CURVE SMOOTH",
"49 134 OFFCURVE",
"50 111 OFFCURVE",
"50 82 CURVE SMOOTH",
"50 56 OFFCURVE",
"49 -2 OFFCURVE",
"47 -61 CURVE SMOOTH",
"46 -118 OFFCURVE",
"44 -177 OFFCURVE",
"44 -200 CURVE SMOOTH",
"44 -215 OFFCURVE",
"46 -234 OFFCURVE",
"47 -248 CURVE SMOOTH",
"48 -268 OFFCURVE",
"49 -278 OFFCURVE",
"49 -290 CURVE SMOOTH",
"49 -319 OFFCURVE",
"43 -351 OFFCURVE",
"33 -370 CURVE SMOOTH",
"31 -374 OFFCURVE",
"30 -377 OFFCURVE",
"29 -382 CURVE SMOOTH",
"19 -435 OFFCURVE",
"11 -470 OFFCURVE",
"2 -505 CURVE SMOOTH",
"0 -509 OFFCURVE",
"0 -513 OFFCURVE",
"0 -517 CURVE SMOOTH",
"0 -562 OFFCURVE",
"0 -581 OFFCURVE",
"0 -601 CURVE SMOOTH",
"0 -642 LINE SMOOTH",
"0 -649 OFFCURVE",
"4 -653 OFFCURVE",
"11 -650 CURVE SMOOTH",
"45 -638 OFFCURVE",
"118 -581 OFFCURVE",
"119 -580 CURVE",
"120 -579 LINE SMOOTH",
"120 -578 OFFCURVE",
"121 -577 OFFCURVE",
"123 -572 CURVE SMOOTH",
"135 -542 OFFCURVE",
"126 -550 OFFCURVE",
"150 -521 CURVE SMOOTH",
"164 -505 OFFCURVE",
"176 -491 OFFCURVE",
"181 -485 CURVE",
"244 -397 OFFCURVE",
"249 -383 OFFCURVE",
"266 -383 CURVE SMOOTH",
"274 -383 OFFCURVE",
"295 -374 OFFCURVE",
"295 -335 CURVE SMOOTH",
"295 -276 LINE"
);
},
{
closed = 1;
nodes = (
"180 -486 LINE SMOOTH",
"185 -481 OFFCURVE",
"184 -482 OFFCURVE",
"181 -485 CURVE SMOOTH"
);
}
);
width = 295;
}
);
leftKerningGroup = I;
unicode = 004A;
},
{
glyphname = K;
lastChange = "2020-03-29 11:42:16 +0000";
layers = (
{
hints = (
{
horizontal = 1;
origin = "{0, 38}";
target = "{0, 47}";
type = Stem;
},
{
horizontal = 1;
origin = "{0, 134}";
target = up;
type = BottomGhost;
},
{
horizontal = 1;
origin = "{0, 86}";
target = down;
type = TopGhost;
},
{
horizontal = 1;
origin = "{0, 74}";
target = down;
type = TopGhost;
},
{
horizontal = 1;
origin = "{0, 80}";
target = up;
type = BottomGhost;
},
{
horizontal = 1;
origin = "{0, 140}";
target = down;
type = TopGhost;
},
{
horizontal = 1;
origin = "{0, 144}";
target = "{0, 140}";
type = Stem;
},
{
origin = "{0, 165}";
target = "{0, 23}";
type = Stem;
},
{
origin = "{0, 156}";
target = "{0, 116}";
type = Stem;
}
);
layerId = master01;
paths = (
{
closed = 1;
nodes = (
"2 -328 OFFCURVE",
"19 -300 OFFCURVE",
"29 -278 CURVE SMOOTH",
"46 -237 OFFCURVE",
"77 -209 OFFCURVE",
"101 -175 CURVE SMOOTH",
"138 -123 OFFCURVE",
"186 -58 OFFCURVE",
"268 -58 CURVE SMOOTH",
"273 -58 OFFCURVE",
"281 -59 OFFCURVE",
"286 -59 CURVE SMOOTH",
"300 -59 OFFCURVE",
"302 -54 OFFCURVE",
"302 -48 CURVE SMOOTH",
"302 -43 OFFCURVE",
"297 -38 OFFCURVE",
"287 -34 CURVE SMOOTH",
"247 -17 OFFCURVE",
"216 23 OFFCURVE",
"216 77 CURVE SMOOTH",
"216 135 OFFCURVE",
"226 194 OFFCURVE",
"226 259 CURVE SMOOTH",
"226 287 OFFCURVE",
"225 316 OFFCURVE",
"223 348 CURVE",
"273 290 OFFCURVE",
"311 231 OFFCURVE",
"365 154 CURVE SMOOTH",
"413 87 OFFCURVE",
"457 31 OFFCURVE",
"486 -19 CURVE SMOOTH",
"493 -32 OFFCURVE",
"499 -40 OFFCURVE",
"518 -41 CURVE SMOOTH",
"559 -43 OFFCURVE",
"600 -52 OFFCURVE",
"644 -52 CURVE SMOOTH",
"658 -52 OFFCURVE",
"674 -50 OFFCURVE",
"688 -49 CURVE SMOOTH",
"704 -47 OFFCURVE",
"715 -41 OFFCURVE",
"715 -35 CURVE SMOOTH",
"715 -31 OFFCURVE",
"710 -28 OFFCURVE",
"694 -28 CURVE SMOOTH",
"634 -28 OFFCURVE",
"597 4 OFFCURVE",
"563 38 CURVE SMOOTH",
"504 96 OFFCURVE",
"462 141 OFFCURVE",
"418 200 CURVE SMOOTH",
"384 242 OFFCURVE",
"356 286 OFFCURVE",
"320 322 CURVE SMOOTH",
"316 326 OFFCURVE",
"316 330 OFFCURVE",
"316 330 CURVE",
"345 397 OFFCURVE",
"376 448 OFFCURVE",
"416 522 CURVE SMOOTH",
"451 587 OFFCURVE",
"480 645 OFFCURVE",
"508 689 CURVE SMOOTH",
"531 726 OFFCURVE",
"563 757 OFFCURVE",
"617 761 CURVE SMOOTH",
"630 762 OFFCURVE",
"636 765 OFFCURVE",
"636 769 CURVE SMOOTH",
"636 773 OFFCURVE",
"629 778 OFFCURVE",
"618 778 CURVE SMOOTH",
"607 778 OFFCURVE",
"594 777 OFFCURVE",
"583 776 CURVE SMOOTH",
"537 774 OFFCURVE",
"545 775 OFFCURVE",
"498 775 CURVE SMOOTH",
"462 775 OFFCURVE",
"419 777 OFFCURVE",
"384 781 CURVE SMOOTH",
"378 782 OFFCURVE",
"371 784 OFFCURVE",
"367 784 CURVE SMOOTH",
"357 784 OFFCURVE",
"354 783 OFFCURVE",
"354 779 CURVE SMOOTH",
"354 775 OFFCURVE",
"360 769 OFFCURVE",
"376 763 CURVE SMOOTH",
"413 749 OFFCURVE",
"431 730 OFFCURVE",
"431 676 CURVE SMOOTH",
"431 656 OFFCURVE",
"423 620 OFFCURVE",
"413 602 CURVE SMOOTH",
"395 566 OFFCURVE",
"374 524 OFFCURVE",
"349 475 CURVE SMOOTH",
"327 431 OFFCURVE",
"308 401 OFFCURVE",
"290 364 CURVE SMOOTH",
"289 362 OFFCURVE",
"287 361 OFFCURVE",
"286 361 CURVE SMOOTH",
"282 361 OFFCURVE",
"278 365 OFFCURVE",
"277 366 CURVE SMOOTH",
"255 388 OFFCURVE",
"231 430 OFFCURVE",
"221 458 CURVE",
"221 525 OFFCURVE",
"212 589 OFFCURVE",
"212 656 CURVE SMOOTH",
"212 709 OFFCURVE",
"222 750 OFFCURVE",
"234 793 CURVE SMOOTH",
"236 800 OFFCURVE",
"236 806 OFFCURVE",
"236 810 CURVE SMOOTH",
"236 816 OFFCURVE",
"234 817 OFFCURVE",
"230 817 CURVE SMOOTH",
"225 817 OFFCURVE",
"219 811 OFFCURVE",
"212 804 CURVE SMOOTH",
"199 790 OFFCURVE",
"186 775 OFFCURVE",
"172 762 CURVE SMOOTH",
"159 749 OFFCURVE",
"138 732 OFFCURVE",
"114 732 CURVE SMOOTH",
"98 732 OFFCURVE",
"86 739 OFFCURVE",
"72 749 CURVE SMOOTH",
"60 757 OFFCURVE",
"46 763 OFFCURVE",
"29 763 CURVE SMOOTH",
"4 763 OFFCURVE",
"-20 750 OFFCURVE",
"-36 733 CURVE",
"-29 707 LINE",
"27 707 OFFCURVE",
"65 682 OFFCURVE",
"95 654 CURVE SMOOTH",
"125 626 OFFCURVE",
"144 595 OFFCURVE",
"144 541 CURVE SMOOTH",
"144 511 OFFCURVE",
"142 482 OFFCURVE",
"142 452 CURVE SMOOTH",
"142 409 OFFCURVE",
"144 367 OFFCURVE",
"144 325 CURVE SMOOTH",
"144 279 OFFCURVE",
"149 260 OFFCURVE",
"149 232 CURVE SMOOTH",
"149 182 OFFCURVE",
"145 133 OFFCURVE",
"145 85 CURVE SMOOTH",
"145 54 OFFCURVE",
"149 25 OFFCURVE",
"149 -6 CURVE SMOOTH",
"149 -50 OFFCURVE",
"134 -84 OFFCURVE",
"116 -113 CURVE SMOOTH",
"84 -163 OFFCURVE",
"43 -210 OFFCURVE",
"1 -253 CURVE SMOOTH",
"-4 -258 OFFCURVE",
"-46 -300 OFFCURVE",
"-46 -317 CURVE SMOOTH",
"-46 -324 OFFCURVE",
"-39 -328 OFFCURVE",
"-28 -328 CURVE SMOOTH"
);
}
);
width = 661;
},
{
associatedMasterId = master01;
layerId = "971DDE35-B8B0-49AF-B936-CA0EC60E6583";
name = bubble;
paths = (
{
closed = 1;
nodes = (
"653 18 OFFCURVE",
"651 25 OFFCURVE",
"644 43 CURVE SMOOTH",
"637 60 OFFCURVE",
"632 68 OFFCURVE",
"629 71 CURVE SMOOTH",
"576 123 OFFCURVE",
"552 151 OFFCURVE",
"498 224 CURVE",
"496 225 LINE",
"494 228 OFFCURVE",
"483 243 OFFCURVE",
"464 268 CURVE SMOOTH",
"432 312 OFFCURVE",
"437 304 OFFCURVE",
"391 350 CURVE SMOOTH",
"390 351 OFFCURVE",
"399 344 OFFCURVE",
"407 339 CURVE SMOOTH",
"412 335 OFFCURVE",
"417 336 OFFCURVE",
"420 343 CURVE SMOOTH",
"438 382 OFFCURVE",
"448 402 OFFCURVE",
"474 450 CURVE SMOOTH",
"494 486 OFFCURVE",
"505 504 OFFCURVE",
"504.009 503.008 CURVE SMOOTH",
"513 520 OFFCURVE",
"522 537 OFFCURVE",
"531 553 CURVE SMOOTH",
"555 598 OFFCURVE",
"587 659 OFFCURVE",
"593 668 CURVE",
"593 668 OFFCURVE",
"624 721 OFFCURVE",
"625 721 CURVE SMOOTH",
"633 723 OFFCURVE",
"661 732 OFFCURVE",
"661 769 CURVE SMOOTH",
"661 807 OFFCURVE",
"628 818 OFFCURVE",
"618 818 CURVE SMOOTH",
"609 818 OFFCURVE",
"582 817 OFFCURVE",
"573 816 CURVE SMOOTH",
"548 815 OFFCURVE",
"545 815 OFFCURVE",
"530 815 CURVE SMOOTH",
"518 815 OFFCURVE",
"510 815 OFFCURVE",
"498 815 CURVE SMOOTH",
"462 815 OFFCURVE",
"429 817 OFFCURVE",
"395 821 CURVE SMOOTH",
"400 820 LINE SMOOTH",
"401 820 OFFCURVE",
"399 821 OFFCURVE",
"398 821 CURVE SMOOTH",
"394 822 OFFCURVE",
"373 824 OFFCURVE",
"367 824 CURVE SMOOTH",
"360 824 OFFCURVE",
"347 823 OFFCURVE",
"333 822 CURVE",
"319 851 OFFCURVE",
"253 857 OFFCURVE",
"230 857 CURVE SMOOTH",
"204 857 OFFCURVE",
"161 852 OFFCURVE",
"141 832 CURVE",
"140 832 LINE SMOOTH",
"139 831 OFFCURVE",
"138 830 OFFCURVE",
"134 827 CURVE SMOOTH",
"132 825 OFFCURVE",
"131 823 OFFCURVE",
"129 821 CURVE SMOOTH",
"118 809 OFFCURVE",
"110 799 OFFCURVE",
"106 794 CURVE SMOOTH",
"105 794 OFFCURVE",
"104 793 OFFCURVE",
"103 792 CURVE",
"78 800 OFFCURVE",
"44 803 OFFCURVE",
"29 803 CURVE SMOOTH",
"22 803 OFFCURVE",
"8 789 OFFCURVE",
"1 766 CURVE SMOOTH",
"0 762 OFFCURVE",
"0 759 OFFCURVE",
"0 754 CURVE SMOOTH",
"0 682 LINE SMOOTH",
"0 676 OFFCURVE",
"2 672 OFFCURVE",
"7 670 CURVE SMOOTH",
"24 661 OFFCURVE",
"16 682 OFFCURVE",
"25 632 CURVE SMOOTH",
"26 627 OFFCURVE",
"28 624 OFFCURVE",
"31 620 CURVE SMOOTH",
"40 605 OFFCURVE",
"44 574 OFFCURVE",
"44 541 CURVE SMOOTH",
"44 529 OFFCURVE",
"44 518 OFFCURVE",
"43 498 CURVE SMOOTH",
"43 483 OFFCURVE",
"42 467 OFFCURVE",
"42 452 CURVE SMOOTH",
"42 431 OFFCURVE",
"43 408 OFFCURVE",
"43 387 CURVE SMOOTH",
"44 357 OFFCURVE",
"44 342 OFFCURVE",
"44 325 CURVE SMOOTH",
"44 300 OFFCURVE",
"46 278 OFFCURVE",
"47 263 CURVE SMOOTH",
"49 249 OFFCURVE",
"49 242 OFFCURVE",
"49 232 CURVE SMOOTH",
"49 213 OFFCURVE",
"49 194 OFFCURVE",
"47 159 CURVE SMOOTH",
"46 134 OFFCURVE",
"45 108 OFFCURVE",
"45 85 CURVE SMOOTH",
"45 70 OFFCURVE",
"46 52 OFFCURVE",
"47 37 CURVE SMOOTH",
"49 17 OFFCURVE",
"49 6 OFFCURVE",
"49 -6 CURVE SMOOTH",
"49 -34 OFFCURVE",
"43 -68 OFFCURVE",
"34 -86 CURVE SMOOTH",
"32 -90 OFFCURVE",
"31 -93 OFFCURVE",
"30 -98 CURVE SMOOTH",
"19 -153 OFFCURVE",
"13 -182 OFFCURVE",
"2 -219 CURVE SMOOTH",
"0 -223 OFFCURVE",
"0 -227 OFFCURVE",
"0 -231 CURVE SMOOTH",
"0 -273 OFFCURVE",
"0 -297 OFFCURVE",
"0 -317 CURVE SMOOTH",
"0 -357 LINE SMOOTH",
"0 -364 OFFCURVE",
"4 -368 OFFCURVE",
"11 -365 CURVE SMOOTH",
"45 -353 OFFCURVE",
"119 -297 OFFCURVE",
"120 -295 CURVE",
"121 -294 LINE SMOOTH",
"121 -293 OFFCURVE",
"122 -292 OFFCURVE",
"124 -287 CURVE SMOOTH",
"143 -241 OFFCURVE",
"132 -259 OFFCURVE",
"153 -232 CURVE SMOOTH",
"172 -210 OFFCURVE",
"184 -196 OFFCURVE",
"183 -198 CURVE SMOOTH",
"237 -122 OFFCURVE",
"248 -99 OFFCURVE",
"266 -98 CURVE SMOOTH",
"267 -98 OFFCURVE",
"267 -98 OFFCURVE",
"269 -98 CURVE SMOOTH",
"273 -99 OFFCURVE",
"282 -99 OFFCURVE",
"286 -99 CURVE SMOOTH",
"314 -99 OFFCURVE",
"402 -91 OFFCURVE",
"402 -48 CURVE SMOOTH",
"402 -45 OFFCURVE",
"401 -42 OFFCURVE",
"400 -39 CURVE",
"415 -44 OFFCURVE",
"503 -80 OFFCURVE",
"513 -81 CURVE SMOOTH",
"520 -81 OFFCURVE",
"531 -82 OFFCURVE",
"559 -86 CURVE SMOOTH",
"595 -90 OFFCURVE",
"619.003 -92 OFFCURVE",
"644 -92 CURVE SMOOTH",
"646 -92 OFFCURVE",
"649 -92 OFFCURVE",
"653 -91 CURVE SMOOTH",
"658 -91 OFFCURVE",
"661 -90 OFFCURVE",
"661 -89 CURVE SMOOTH",
"661 -85 OFFCURVE",
"661 -71 OFFCURVE",
"661 -35 CURVE SMOOTH",
"661 4 LINE SMOOTH",
"661 10 OFFCURVE",
"657 10 OFFCURVE",
"655 14 CURVE SMOOTH"
);
}
);
width = 661;
}
);
leftKerningGroup = I;
rightKerningGroup = K;
unicode = 004B;
},
{
glyphname = L;
lastChange = "2020-03-29 11:54:48 +0000";
layers = (
{
hints = (
{
horizontal = 1;
origin = "{0, 119}";
target = "{0, 26}";
type = Stem;
},
{
horizontal = 1;
origin = "{0, 83}";
target = "{0, 56}";
type = Stem;
},
{
horizontal = 1;
origin = "{0, 47}";
target = down;
type = TopGhost;
},
{
horizontal = 1;
origin = "{0, 119}";
target = "{0, 23}";
type = Stem;
},
{
horizontal = 1;
origin = "{0, 14}";
target = down;
type = TopGhost;
},
{
horizontal = 1;
origin = "{0, 119}";
target = "{0, 20}";
type = Stem;
},
{
origin = "{0, 95}";
target = "{0, 35}";
type = Stem;
},
{
origin = "{0, 62}";
target = "{0, 59}";
type = Stem;
}
);
layerId = master01;
paths = (
{
closed = 1;
nodes = (
"529 -203 OFFCURVE",
"532 -197 OFFCURVE",
"533 -180 CURVE SMOOTH",
"534 -164 OFFCURVE",
"535 -151 OFFCURVE",
"539 -138 CURVE SMOOTH",
"543 -125 OFFCURVE",
"551 -112 OFFCURVE",
"559 -104 CURVE SMOOTH",
"566 -97 OFFCURVE",
"576 -87 OFFCURVE",
"576 -80 CURVE SMOOTH",
"576 -74 OFFCURVE",
"571 -71 OFFCURVE",
"552 -71 CURVE SMOOTH",
"504 -71 OFFCURVE",
"489 -107 OFFCURVE",
"443 -107 CURVE SMOOTH",
"429 -107 OFFCURVE",
"414 -104 OFFCURVE",
"398 -104 CURVE SMOOTH",
"380 -104 OFFCURVE",
"362 -106 OFFCURVE",
"344 -106 CURVE SMOOTH",
"316 -106 OFFCURVE",
"290 -101 OFFCURVE",
"262 -101 CURVE SMOOTH",
"222 -101 OFFCURVE",
"217 -59 OFFCURVE",
"217 -17 CURVE SMOOTH",
"217 0 OFFCURVE",
"218 17 OFFCURVE",
"218 31 CURVE SMOOTH",
"218 153 OFFCURVE",
"228 274 OFFCURVE",
"228 400 CURVE SMOOTH",
"228 497 OFFCURVE",
"222 572 OFFCURVE",
"222 667 CURVE SMOOTH",
"222 716 OFFCURVE",
"248 741 OFFCURVE",
"274 763 CURVE SMOOTH",
"282 770 OFFCURVE",
"292 780 OFFCURVE",
"292 787 CURVE SMOOTH",
"292 793 OFFCURVE",
"290 797 OFFCURVE",
"286 797 CURVE SMOOTH",
"282 797 OFFCURVE",
"275 794 OFFCURVE",
"269 788 CURVE SMOOTH",
"251 770 OFFCURVE",
"234 760 OFFCURVE",
"214 750 CURVE SMOOTH",
"195 740 OFFCURVE",
"170 734 OFFCURVE",
"131 734 CURVE SMOOTH",
"76 734 OFFCURVE",
"-1 744 OFFCURVE",
"-30 761 CURVE",
"-36 757 OFFCURVE",
"-41 751 OFFCURVE",
"-41 743 CURVE SMOOTH",
"-41 731 OFFCURVE",
"-30 720 OFFCURVE",
"-25 712 CURVE SMOOTH",
"-15 695 OFFCURVE",
"-12 669 OFFCURVE",
"-12 644 CURVE SMOOTH",
"-12 621 OFFCURVE",
"-10 612 OFFCURVE",
"-4 612 CURVE SMOOTH",
"0 612 OFFCURVE",
"7 618 OFFCURVE",
"14 631 CURVE SMOOTH",
"22 645 OFFCURVE",
"30 659 OFFCURVE",
"41 670 CURVE SMOOTH",
"50 679 OFFCURVE",
"63 686 OFFCURVE",
"76 688 CURVE SMOOTH",
"87 690 OFFCURVE",
"100 691 OFFCURVE",
"112 691 CURVE SMOOTH",
"137 691 OFFCURVE",
"137 659 OFFCURVE",
"137 631 CURVE SMOOTH",
"137 608 OFFCURVE",
"136 585 OFFCURVE",
"136 562 CURVE SMOOTH",
"136 514 OFFCURVE",
"140 472 OFFCURVE",
"140 424 CURVE SMOOTH",
"140 376 OFFCURVE",
"137 328 OFFCURVE",
"137 280 CURVE SMOOTH",
"137 214 OFFCURVE",
"143 150 OFFCURVE",
"143 85 CURVE SMOOTH",
"143 49 OFFCURVE",
"143 13 OFFCURVE",
"142 -23 CURVE SMOOTH",
"141 -68 OFFCURVE",
"121 -97 OFFCURVE",
"103 -125 CURVE SMOOTH",
"94 -139 OFFCURVE",
"89 -149 OFFCURVE",
"89 -156 CURVE SMOOTH",
"89 -163 OFFCURVE",
"92 -168 OFFCURVE",
"100 -168 CURVE SMOOTH",
"106 -168 OFFCURVE",
"114 -164 OFFCURVE",
"126 -158 CURVE SMOOTH",
"140 -151 OFFCURVE",
"157 -144 OFFCURVE",
"175 -140 CURVE SMOOTH",
"206 -133 OFFCURVE",
"192 -132 OFFCURVE",
"232 -132 CURVE SMOOTH",
"303 -132 OFFCURVE",
"375 -134 OFFCURVE",
"425 -154 CURVE SMOOTH",
"447 -163 OFFCURVE",
"472 -170 OFFCURVE",
"492 -182 CURVE SMOOTH",
"502 -188 OFFCURVE",
"515 -203 OFFCURVE",
"523 -203 CURVE SMOOTH"
);
}
);
width = 443;
},
{
associatedMasterId = master01;
layerId = "15A52126-4ABD-4E01-8A7D-EE232DE39D5C";
name = bubble;
paths = (
{
closed = 1;
nodes = (
"377 -80 LINE SMOOTH",
"377 -41 OFFCURVE",
"377 -31 OFFCURVE",
"377 -31 CURVE",
"377 -55 LINE",
"371 -61 OFFCURVE",
"370 -65 OFFCURVE",
"373 -66 CURVE",
"371 -66 OFFCURVE",
"369 -66 OFFCURVE",
"366 -66 CURVE SMOOTH",
"357 -65 OFFCURVE",
"340 -64 OFFCURVE",
"332 -64 CURVE SMOOTH",
"324 -64 OFFCURVE",
"311 -64 OFFCURVE",
"299 -65 CURVE SMOOTH",
"286 -66 OFFCURVE",
"282 -66 OFFCURVE",
"278 -66 CURVE SMOOTH",
"272 -66 OFFCURVE",
"266 -66 OFFCURVE",
"246 -64 CURVE SMOOTH",
"230 -62 OFFCURVE",
"209 -61 OFFCURVE",
"196 -61 CURVE SMOOTH",
"267 -61 OFFCURVE",
"251 -76 OFFCURVE",
"251 -17 CURVE SMOOTH",
"251 -10 OFFCURVE",
"251 -3 OFFCURVE",
"251 8 CURVE SMOOTH",
"252 21 OFFCURVE",
"252 26 OFFCURVE",
"252 31 CURVE SMOOTH",
"252 92 OFFCURVE",
"254 150 OFFCURVE",
"257 211 CURVE SMOOTH",
"259 273 OFFCURVE",
"262 337 OFFCURVE",
"262 400 CURVE SMOOTH",
"262 448 OFFCURVE",
"260 493 OFFCURVE",
"259 536 CURVE SMOOTH",
"257 579 OFFCURVE",
"256 619 OFFCURVE",
"256 667 CURVE SMOOTH",
"256 711.002 OFFCURVE",
"253 719 OFFCURVE",
"282 740 CURVE SMOOTH",
"307 759 OFFCURVE",
"326 766 OFFCURVE",
"326 787 CURVE SMOOTH",
"326 831 OFFCURVE",
"241 837 OFFCURVE",
"220 837 CURVE SMOOTH",
"219 837 OFFCURVE",
"165 824 OFFCURVE",
"142 819 CURVE SMOOTH",
"137 818 OFFCURVE",
"134 816 OFFCURVE",
"131 813 CURVE SMOOTH",
"123 805 OFFCURVE",
"109 791 OFFCURVE",
"105 787 CURVE",
"91 780 OFFCURVE",
"85 776 OFFCURVE",
"83 773 CURVE",
"79 774 OFFCURVE",
"73 774 OFFCURVE",
"65 774 CURVE SMOOTH",
"40 774 OFFCURVE",
"25 777 OFFCURVE",
"12 786 CURVE SMOOTH",
"5 791 OFFCURVE",
"0 795 OFFCURVE",
"0 794 CURVE",
"0 743 LINE SMOOTH",
"0 719 OFFCURVE",
"0 725 OFFCURVE",
"0 695 CURVE SMOOTH",
"0 691 LINE",
"0 692 LINE SMOOTH",
"0 700 OFFCURVE",
"0 670 OFFCURVE",
"0 644 CURVE SMOOTH",
"0 572 LINE",
"0 572 OFFCURVE",
"0 579 OFFCURVE",
"0 587 CURVE SMOOTH",
"0 562 LINE SMOOTH",
"0 538 OFFCURVE",
"0 514 OFFCURVE",
"0 491 CURVE SMOOTH",
"0 424 LINE SMOOTH",
"0 405 OFFCURVE",
"0 388 OFFCURVE",
"0 353 CURVE SMOOTH",
"0 280 LINE SMOOTH",
"0 247 OFFCURVE",
"0 212 OFFCURVE",
"0 180 CURVE SMOOTH",
"0 85 LINE SMOOTH",
"0 49 OFFCURVE",
"0 13 OFFCURVE",
"0 -22 CURVE SMOOTH",
"0 -103 LINE",
"0 -101 LINE",
"0 -156 LINE SMOOTH",
"0 -200 OFFCURVE",
"26 -208 OFFCURVE",
"34 -208 CURVE SMOOTH",
"58 -208 OFFCURVE",
"84 -204 OFFCURVE",
"105 -194 CURVE",
"107 -193 LINE SMOOTH",
"109 -193 OFFCURVE",
"111 -192 OFFCURVE",
"115 -189 CURVE SMOOTH",
"121 -185 OFFCURVE",
"131 -179 OFFCURVE",
"131 -179 CURVE",
"140 -177 OFFCURVE",
"152 -175 OFFCURVE",
"156 -173 CURVE SMOOTH",
"165 -171 OFFCURVE",
"161 -172 OFFCURVE",
"166 -172 CURVE SMOOTH",
"254 -172 OFFCURVE",
"277 -174 OFFCURVE",
"316 -189 CURVE SMOOTH",
"320 -191 OFFCURVE",
"323 -191 OFFCURVE",
"325 -192 CURVE SMOOTH",
"328 -193 OFFCURVE",
"332 -194 OFFCURVE",
"336 -195 CURVE SMOOTH",
"368 -207 OFFCURVE",
"347 -200 OFFCURVE",
"375 -216 CURVE SMOOTH",
"369 -213 OFFCURVE",
"369 -218 OFFCURVE",
"374 -222 CURVE",
"374 -226 OFFCURVE",
"374 -230 OFFCURVE",
"374 -233 CURVE SMOOTH",
"374 -232 OFFCURVE",
"377 -180 OFFCURVE",
"377 -182 CURVE SMOOTH",
"377 -163 OFFCURVE",
"377 -148 OFFCURVE",
"377 -150 CURVE SMOOTH",
"377 -89 LINE"
);
}
);
width = 377;
}
);
leftKerningGroup = L;
rightKerningGroup = L;
unicode = 004C;
},
{
glyphname = Lslash;
lastChange = "2020-03-31 02:51:21 +0000";
layers = (
{
hints = (
{
horizontal = 1;
origin = "{0, 143}";
target = "{0, 11}";
type = Stem;
},
{
horizontal = 1;
origin = "{0, 87}";
target = "{0, 60}";
type = Stem;
},
{
horizontal = 1;
origin = "{0, 51}";
target = down;
type = TopGhost;
},
{
horizontal = 1;
origin = "{0, 143}";
target = "{0, 8}";
type = Stem;
},
{
horizontal = 1;
origin = "{0, 167}";
target = down;
type = TopGhost;
},
{
horizontal = 1;
origin = "{0, 143}";
target = "{0, 5}";
type = Stem;
},
{
origin = "{0, 99}";
target = "{0, 39}";
type = Stem;
},
{
origin = "{0, 66}";
target = "{0, 63}";
type = Stem;
}
);
layerId = master01;
paths = (
{
closed = 1;
nodes = (
"504 -71 OFFCURVE",
"489 -107 OFFCURVE",
"443 -107 CURVE SMOOTH",
"429 -107 OFFCURVE",
"414 -104 OFFCURVE",
"398 -104 CURVE SMOOTH",
"380 -104 OFFCURVE",
"362 -106 OFFCURVE",
"344 -106 CURVE SMOOTH",
"316 -106 OFFCURVE",
"290 -101 OFFCURVE",
"262 -101 CURVE SMOOTH",
"222 -101 OFFCURVE",
"217 -59 OFFCURVE",
"217 -17 CURVE SMOOTH",
"217 0 OFFCURVE",
"218 17 OFFCURVE",
"218 31 CURVE SMOOTH",
"218 114 OFFCURVE",
"223 196 OFFCURVE",
"226 280 CURVE",
"364 371 LINE",
"377 365 OFFCURVE",
"393 369 OFFCURVE",
"405 376 CURVE SMOOTH",
"421 385 OFFCURVE",
"430 402 OFFCURVE",
"430 419 CURVE SMOOTH",
"430 429 OFFCURVE",
"425 448 OFFCURVE",
"406 448 CURVE SMOOTH",
"391 448 OFFCURVE",
"380 440 OFFCURVE",
"362 427 CURVE SMOOTH",
"327 400 OFFCURVE",
"278 368 OFFCURVE",
"227 334 CURVE",
"228 356 OFFCURVE",
"228 378 OFFCURVE",
"228 400 CURVE SMOOTH",
"228 497 OFFCURVE",
"222 572 OFFCURVE",
"222 667 CURVE SMOOTH",
"222 716 OFFCURVE",
"248 741 OFFCURVE",
"274 763 CURVE SMOOTH",
"282 770 OFFCURVE",
"292 780 OFFCURVE",
"292 787 CURVE SMOOTH",
"292 793 OFFCURVE",
"290 797 OFFCURVE",
"286 797 CURVE SMOOTH",
"282 797 OFFCURVE",
"275 794 OFFCURVE",
"269 788 CURVE SMOOTH",
"251 770 OFFCURVE",
"234 760 OFFCURVE",
"214 750 CURVE SMOOTH",
"195 740 OFFCURVE",
"170 734 OFFCURVE",
"131 734 CURVE SMOOTH",
"76 734 OFFCURVE",
"-1 744 OFFCURVE",
"-30 761 CURVE",
"-36 757 OFFCURVE",
"-41 751 OFFCURVE",
"-41 743 CURVE SMOOTH",
"-41 731 OFFCURVE",
"-30 720 OFFCURVE",
"-25 712 CURVE SMOOTH",
"-15 695 OFFCURVE",
"-12 669 OFFCURVE",
"-12 644 CURVE SMOOTH",
"-12 621 OFFCURVE",
"-10 612 OFFCURVE",
"-4 612 CURVE SMOOTH",
"0 612 OFFCURVE",
"7 618 OFFCURVE",
"14 631 CURVE SMOOTH",
"22 645 OFFCURVE",
"30 659 OFFCURVE",
"41 670 CURVE SMOOTH",
"50 679 OFFCURVE",
"63 686 OFFCURVE",
"76 688 CURVE SMOOTH",
"87 690 OFFCURVE",
"100 691 OFFCURVE",
"112 691 CURVE SMOOTH",
"137 691 OFFCURVE",
"137 659 OFFCURVE",
"137 631 CURVE SMOOTH",
"137 608 OFFCURVE",
"136 585 OFFCURVE",
"136 562 CURVE SMOOTH",
"136 514 OFFCURVE",
"140 472 OFFCURVE",
"140 424 CURVE SMOOTH",
"140 376 OFFCURVE",
"137 328 OFFCURVE",
"137 280 CURVE SMOOTH",
"137 277 LINE",
"96 251 OFFCURVE",
"56 227 OFFCURVE",
"23 207 CURVE SMOOTH",
"18 204 OFFCURVE",
"13 202 OFFCURVE",
"8 198 CURVE",
"-7 204 OFFCURVE",
"-21 202 OFFCURVE",
"-32 196 CURVE SMOOTH",
"-57 182 OFFCURVE",
"-66 161 OFFCURVE",
"-66 140 CURVE SMOOTH",
"-66 125 OFFCURVE",
"-55 117 OFFCURVE",
"-38 117 CURVE SMOOTH",
"-9 117 OFFCURVE",
"5 135 OFFCURVE",
"26 149 CURVE SMOOTH",
"138 223 LINE",
"140 177 OFFCURVE",
"143 131 OFFCURVE",
"143 85 CURVE SMOOTH",
"143 49 OFFCURVE",
"143 13 OFFCURVE",
"142 -23 CURVE SMOOTH",
"141 -68 OFFCURVE",
"121 -97 OFFCURVE",
"103 -125 CURVE SMOOTH",
"94 -139 OFFCURVE",
"89 -149 OFFCURVE",
"89 -156 CURVE SMOOTH",
"89 -163 OFFCURVE",
"92 -168 OFFCURVE",
"100 -168 CURVE SMOOTH",
"106 -168 OFFCURVE",
"114 -164 OFFCURVE",
"126 -158 CURVE SMOOTH",
"140 -151 OFFCURVE",
"157 -144 OFFCURVE",
"175 -140 CURVE SMOOTH",
"206 -133 OFFCURVE",
"192 -132 OFFCURVE",
"232 -132 CURVE SMOOTH",
"303 -132 OFFCURVE",
"375 -134 OFFCURVE",
"425 -154 CURVE SMOOTH",
"447 -163 OFFCURVE",
"472 -170 OFFCURVE",
"492 -182 CURVE SMOOTH",
"502 -188 OFFCURVE",
"515 -203 OFFCURVE",
"523 -203 CURVE SMOOTH",
"529 -203 OFFCURVE",
"532 -197 OFFCURVE",
"533 -180 CURVE SMOOTH",
"534 -164 OFFCURVE",
"535 -151 OFFCURVE",
"539 -138 CURVE SMOOTH",
"543 -125 OFFCURVE",
"551 -112 OFFCURVE",
"559 -104 CURVE SMOOTH",
"566 -97 OFFCURVE",
"576 -87 OFFCURVE",
"576 -80 CURVE SMOOTH",
"576 -74 OFFCURVE",
"571 -71 OFFCURVE",
"552 -71 CURVE SMOOTH"
);
}
);
width = 443;
},
{
associatedMasterId = master01;
layerId = "15A52126-4ABD-4E01-8A7D-EE232DE39D5C";
name = bubble;
paths = (
{
closed = 1;
nodes = (
"377 -80 LINE SMOOTH",
"377 -41 OFFCURVE",
"377 -31 OFFCURVE",
"377 -31 CURVE",
"377 -55 LINE",
"371 -61 OFFCURVE",
"370 -65 OFFCURVE",
"373 -66 CURVE",
"371 -66 OFFCURVE",
"369 -66 OFFCURVE",
"366 -66 CURVE SMOOTH",
"357 -65 OFFCURVE",
"340 -64 OFFCURVE",
"332 -64 CURVE SMOOTH",
"324 -64 OFFCURVE",
"311 -64 OFFCURVE",
"299 -65 CURVE SMOOTH",
"286 -66 OFFCURVE",
"282 -66 OFFCURVE",
"278 -66 CURVE SMOOTH",
"272 -66 OFFCURVE",
"266 -66 OFFCURVE",
"246 -64 CURVE SMOOTH",
"230 -62 OFFCURVE",
"209 -61 OFFCURVE",
"196 -61 CURVE SMOOTH",
"267 -61 OFFCURVE",
"251 -76 OFFCURVE",
"251 -17 CURVE SMOOTH",
"251 -10 OFFCURVE",
"251 -3 OFFCURVE",
"251 8 CURVE SMOOTH",
"252 21 OFFCURVE",
"252 26 OFFCURVE",
"252 31 CURVE SMOOTH",
"252 92 OFFCURVE",
"254 150 OFFCURVE",
"257 211 CURVE SMOOTH",
"259 273 OFFCURVE",
"262 337 OFFCURVE",
"262 400 CURVE SMOOTH",
"262 448 OFFCURVE",
"260 493 OFFCURVE",
"259 536 CURVE SMOOTH",
"257 579 OFFCURVE",
"256 619 OFFCURVE",
"256 667 CURVE SMOOTH",
"256 711.002 OFFCURVE",
"253 719 OFFCURVE",
"282 740 CURVE SMOOTH",
"307 759 OFFCURVE",
"326 766 OFFCURVE",
"326 787 CURVE SMOOTH",
"326 831 OFFCURVE",
"241 837 OFFCURVE",
"220 837 CURVE SMOOTH",
"219 837 OFFCURVE",
"165 824 OFFCURVE",
"142 819 CURVE SMOOTH",
"137 818 OFFCURVE",
"134 816 OFFCURVE",
"131 813 CURVE SMOOTH",
"123 805 OFFCURVE",
"109 791 OFFCURVE",
"105 787 CURVE",
"91 780 OFFCURVE",
"85 776 OFFCURVE",
"83 773 CURVE",
"79 774 OFFCURVE",
"73 774 OFFCURVE",
"65 774 CURVE SMOOTH",
"40 774 OFFCURVE",
"25 777 OFFCURVE",
"12 786 CURVE SMOOTH",
"5 791 OFFCURVE",
"0 795 OFFCURVE",
"0 794 CURVE",
"0 743 LINE SMOOTH",
"0 719 OFFCURVE",
"0 725 OFFCURVE",
"0 695 CURVE SMOOTH",
"0 691 LINE",
"0 692 LINE SMOOTH",
"0 700 OFFCURVE",
"0 670 OFFCURVE",
"0 644 CURVE SMOOTH",
"0 572 LINE",
"0 572 OFFCURVE",
"0 579 OFFCURVE",
"0 587 CURVE SMOOTH",
"0 562 LINE SMOOTH",
"0 538 OFFCURVE",
"0 514 OFFCURVE",
"0 491 CURVE SMOOTH",
"0 424 LINE SMOOTH",
"0 405 OFFCURVE",
"0 388 OFFCURVE",
"0 353 CURVE SMOOTH",
"0 280 LINE SMOOTH",
"0 247 OFFCURVE",
"0 212 OFFCURVE",
"0 180 CURVE SMOOTH",
"0 85 LINE SMOOTH",
"0 49 OFFCURVE",
"0 13 OFFCURVE",
"0 -22 CURVE SMOOTH",
"0 -103 LINE",
"0 -101 LINE",
"0 -156 LINE SMOOTH",
"0 -200 OFFCURVE",
"26 -208 OFFCURVE",
"34 -208 CURVE SMOOTH",
"58 -208 OFFCURVE",
"84 -204 OFFCURVE",
"105 -194 CURVE",
"107 -193 LINE SMOOTH",
"109 -193 OFFCURVE",
"111 -192 OFFCURVE",
"115 -189 CURVE SMOOTH",
"121 -185 OFFCURVE",
"131 -179 OFFCURVE",
"131 -179 CURVE",
"140 -177 OFFCURVE",
"152 -175 OFFCURVE",
"156 -173 CURVE SMOOTH",
"165 -171 OFFCURVE",
"161 -172 OFFCURVE",
"166 -172 CURVE SMOOTH",
"254 -172 OFFCURVE",
"277 -174 OFFCURVE",
"316 -189 CURVE SMOOTH",
"320 -191 OFFCURVE",
"323 -191 OFFCURVE",
"325 -192 CURVE SMOOTH",
"328 -193 OFFCURVE",
"332 -194 OFFCURVE",
"336 -195 CURVE SMOOTH",
"368 -207 OFFCURVE",
"347 -200 OFFCURVE",
"375 -216 CURVE SMOOTH",
"369 -213 OFFCURVE",
"369 -218 OFFCURVE",
"374 -222 CURVE",
"374 -226 OFFCURVE",
"374 -230 OFFCURVE",
"374 -233 CURVE SMOOTH",
"374 -232 OFFCURVE",
"377 -180 OFFCURVE",
"377 -182 CURVE SMOOTH",
"377 -163 OFFCURVE",
"377 -148 OFFCURVE",
"377 -150 CURVE SMOOTH",
"377 -89 LINE"
);
}
);
width = 377;
}
);
leftKerningGroup = L;
rightKerningGroup = L;
unicode = 0141;
},
{
glyphname = M;
lastChange = "2020-03-29 12:08:31 +0000";
layers = (
{
hints = (
{
horizontal = 1;
origin = "{0, 20}";
target = "{0, 53}";
type = Stem;
},
{
horizontal = 1;
origin = "{0, 26}";
target = "{0, 95}";
type = Stem;
},
{
horizontal = 1;
origin = "{0, 38}";
target = up;
type = BottomGhost;
},
{
horizontal = 1;
origin = "{0, 32}";
target = down;
type = TopGhost;
},
{
horizontal = 1;
origin = "{0, 41}";
target = "{0, 56}";
type = Stem;
},
{
origin = "{0, 62}";
target = "{0, 89}";
type = Stem;
},
{
origin = "{0, 101}";
target = "{0, 128}";
type = Stem;
},
{
origin = "{0, 140}";
target = "{0, 14}";
type = Stem;
},
{
origin = "{0, 140}";
target = "{0, 17}";
type = Stem;
},
{
origin = "{0, 110}";
target = "{0, 125}";
type = Stem;
}
);
layerId = master01;
paths = (
{
closed = 1;
nodes = (
"1037 -23 OFFCURVE",
"1063 -8 OFFCURVE",
"1077 -8 CURVE SMOOTH",
"1084 -8 OFFCURVE",
"1091 -10 OFFCURVE",
"1098 -10 CURVE SMOOTH",
"1124 -10 OFFCURVE",
"1158 0 OFFCURVE",
"1158 26 CURVE SMOOTH",
"1158 42 OFFCURVE",
"1137 47 OFFCURVE",
"1126 58 CURVE SMOOTH",
"1116 68 OFFCURVE",
"1113 80 OFFCURVE",
"1113 96 CURVE SMOOTH",
"1113 161 OFFCURVE",
"1133 220 OFFCURVE",
"1133 288 CURVE SMOOTH",
"1133 500 OFFCURVE",
"1064 670 OFFCURVE",
"850 670 CURVE SMOOTH",
"764 670 OFFCURVE",
"692 647 OFFCURVE",
"638 610 CURVE",
"604 652 OFFCURVE",
"550 684 OFFCURVE",
"480 684 CURVE SMOOTH",
"394 684 OFFCURVE",
"329 646 OFFCURVE",
"276 606 CURVE",
"275 641 OFFCURVE",
"271 691 OFFCURVE",
"236 691 CURVE SMOOTH",
"225 691 OFFCURVE",
"215 685 OFFCURVE",
"208 674 CURVE",
"194 667 OFFCURVE",
"174 660 OFFCURVE",
"156 660 CURVE SMOOTH",
"127 660 OFFCURVE",
"108 676 OFFCURVE",
"74 676 CURVE SMOOTH",
"39 676 OFFCURVE",
"11 663 OFFCURVE",
"-15 649 CURVE SMOOTH",
"-26 643 OFFCURVE",
"-31 637 OFFCURVE",
"-31 632 CURVE SMOOTH",
"-31 627 OFFCURVE",
"-26 622 OFFCURVE",
"-16 622 CURVE SMOOTH",
"-12 622 OFFCURVE",
"-8 622 OFFCURVE",
"-1 624 CURVE SMOOTH",
"9 627 OFFCURVE",
"18 630 OFFCURVE",
"29 630 CURVE SMOOTH",
"107 630 OFFCURVE",
"148 555 OFFCURVE",
"189 514 CURVE",
"188 446 OFFCURVE",
"182 377 OFFCURVE",
"182 310 CURVE SMOOTH",
"182 286 OFFCURVE",
"183 264 OFFCURVE",
"183 239 CURVE SMOOTH",
"183 209 OFFCURVE",
"178 176 OFFCURVE",
"178 146 CURVE SMOOTH",
"178 128 OFFCURVE",
"184 108 OFFCURVE",
"184 90 CURVE SMOOTH",
"184 79 OFFCURVE",
"182 70 OFFCURVE",
"177 60 CURVE SMOOTH",
"168 43 OFFCURVE",
"131 34 OFFCURVE",
"131 11 CURVE SMOOTH",
"131 -8 OFFCURVE",
"151 -18 OFFCURVE",
"165 -18 CURVE SMOOTH",
"191 -18 OFFCURVE",
"226 1 OFFCURVE",
"242 11 CURVE SMOOTH",
"262 23 OFFCURVE",
"267 46 OFFCURVE",
"267 71 CURVE SMOOTH",
"267 97 OFFCURVE",
"262 126 OFFCURVE",
"262 154 CURVE SMOOTH",
"262 296 OFFCURVE",
"276 428 OFFCURVE",
"276 571 CURVE",
"306 606 OFFCURVE",
"349 635 OFFCURVE",
"411 635 CURVE SMOOTH",
"434 635 OFFCURVE",
"458 631 OFFCURVE",
"477 624 CURVE SMOOTH",
"581 586 OFFCURVE",
"614 494 OFFCURVE",
"614 354 CURVE SMOOTH",
"614 268 OFFCURVE",
"609 186 OFFCURVE",
"592 110 CURVE SMOOTH",
"588 92 OFFCURVE",
"586 69 OFFCURVE",
"575 55 CURVE SMOOTH",
"566 43 OFFCURVE",
"546 35 OFFCURVE",
"546 17 CURVE SMOOTH",
"546 7 OFFCURVE",
"553 5 OFFCURVE",
"564 5 CURVE SMOOTH",
"578 5 OFFCURVE",
"598 11 OFFCURVE",
"606 11 CURVE SMOOTH",
"632 11 OFFCURVE",
"651 0 OFFCURVE",
"675 0 CURVE SMOOTH",
"687 0 OFFCURVE",
"708 8 OFFCURVE",
"708 22 CURVE SMOOTH",
"708 57 OFFCURVE",
"671 49 OFFCURVE",
"671 89 CURVE SMOOTH",
"671 184 OFFCURVE",
"702 266 OFFCURVE",
"702 362 CURVE SMOOTH",
"702 441 OFFCURVE",
"688 520 OFFCURVE",
"658 576 CURVE",
"698 605 OFFCURVE",
"741 624 OFFCURVE",
"802 624 CURVE SMOOTH",
"818 624 OFFCURVE",
"835 622 OFFCURVE",
"851 618 CURVE SMOOTH",
"1002 580 OFFCURVE",
"1047 414 OFFCURVE",
"1047 227 CURVE SMOOTH",
"1047 190 OFFCURVE",
"1043 152 OFFCURVE",
"1041 116 CURVE SMOOTH",
"1038 64 OFFCURVE",
"1002 45 OFFCURVE",
"1002 -4 CURVE SMOOTH",
"1002 -18 OFFCURVE",
"1009 -23 OFFCURVE",
"1020 -23 CURVE SMOOTH"
);
}
);
width = 1181;
},
{
associatedMasterId = master01;
layerId = "B435F046-68A2-4579-87DB-6D404579F699";
name = bubble;
paths = (
{
closed = 1;
nodes = (
"1201 88 LINE",
"1201 86 LINE",
"1201 96 LINE SMOOTH",
"1201 122 OFFCURVE",
"1201 142 OFFCURVE",
"1201 184 CURVE SMOOTH",
"1201 288 LINE SMOOTH",
"1201 566 OFFCURVE",
"1088 710 OFFCURVE",
"870 710 CURVE SMOOTH",
"806 710 OFFCURVE",
"736 698 OFFCURVE",
"679 679 CURVE",
"628 707 OFFCURVE",
"559 724 OFFCURVE",
"500 724 CURVE SMOOTH",
"454 724 OFFCURVE",
"407 716 OFFCURVE",
"362 702 CURVE",
"339 723 OFFCURVE",
"304 731 OFFCURVE",
"256 731 CURVE SMOOTH",
"250 731 OFFCURVE",
"215 720 OFFCURVE",
"186 710 CURVE SMOOTH",
"182 708 OFFCURVE",
"176 705 OFFCURVE",
"175 704 CURVE SMOOTH",
"175 704 OFFCURVE",
"175 704 OFFCURVE",
"175 703 CURVE",
"173 704 OFFCURVE",
"171 705 OFFCURVE",
"169 706 CURVE SMOOTH",
"150 712 OFFCURVE",
"117 716 OFFCURVE",
"94 716 CURVE SMOOTH",
"66 716 OFFCURVE",
"32 706 OFFCURVE",
"6 689 CURVE SMOOTH",
"2 686 OFFCURVE",
"0 684 OFFCURVE",
"0 683 CURVE",
"0 632 LINE SMOOTH",
"0 593 OFFCURVE",
"3 582 OFFCURVE",
"4 582 CURVE SMOOTH",
"15 582 OFFCURVE",
"42 584 OFFCURVE",
"46 586 CURVE SMOOTH",
"52 586 LINE",
"63 573 OFFCURVE",
"101 524 OFFCURVE",
"105 519 CURVE SMOOTH",
"106 518 OFFCURVE",
"108 516 OFFCURVE",
"109 514 CURVE",
"109 489 OFFCURVE",
"108 467 OFFCURVE",
"106 423 CURVE SMOOTH",
"104 385 OFFCURVE",
"102 346 OFFCURVE",
"102 310 CURVE SMOOTH",
"102 301 OFFCURVE",
"102 293 OFFCURVE",
"103 274 CURVE SMOOTH",
"103 258 OFFCURVE",
"103 249 OFFCURVE",
"103 239 CURVE SMOOTH",
"103 227 OFFCURVE",
"102 217 OFFCURVE",
"101 196 CURVE SMOOTH",
"99 169 OFFCURVE",
"98 157 OFFCURVE",
"98 146 CURVE SMOOTH",
"98 140 OFFCURVE",
"99 131 OFFCURVE",
"102 112 CURVE SMOOTH",
"104 102 OFFCURVE",
"104 99 OFFCURVE",
"104 90 CURVE SMOOTH",
"104 88 OFFCURVE",
"107 77 OFFCURVE",
"108 78 CURVE",
"115 83 LINE",
"102 65 OFFCURVE",
"140 90 OFFCURVE",
"121 76 CURVE SMOOTH",
"70 41 OFFCURVE",
"51 42 OFFCURVE",
"51 11 CURVE SMOOTH",
"51 -36 OFFCURVE",
"135 -58 OFFCURVE",
"185 -58 CURVE SMOOTH",
"224 -58 OFFCURVE",
"281 -44 OFFCURVE",
"315 -23 CURVE",
"317 -22 LINE SMOOTH",
"318 -22 OFFCURVE",
"320 -21 OFFCURVE",
"324 -18 CURVE SMOOTH",
"369 12 OFFCURVE",
"387 16 OFFCURVE",
"387 71 CURVE SMOOTH",
"387 80 OFFCURVE",
"386 91 OFFCURVE",
"384 115 CURVE SMOOTH",
"383 133 OFFCURVE",
"382 143 OFFCURVE",
"382 154 CURVE SMOOTH",
"382 225 OFFCURVE",
"385 291 OFFCURVE",
"389 360 CURVE SMOOTH",
"392 430 OFFCURVE",
"396 503 OFFCURVE",
"396 575 CURVE",
"411 596 OFFCURVE",
"408 595 OFFCURVE",
"431 595 CURVE SMOOTH",
"447 595 OFFCURVE",
"433 597 OFFCURVE",
"467 585 CURVE",
"505 566 OFFCURVE",
"534 478 OFFCURVE",
"534 354 CURVE SMOOTH",
"534 262 OFFCURVE",
"527 179 OFFCURVE",
"514 118 CURVE SMOOTH",
"514 115 OFFCURVE",
"512 110 OFFCURVE",
"511 105 CURVE SMOOTH",
"508 86 OFFCURVE",
"510 79 OFFCURVE",
"513 78 CURVE",
"512 77 LINE SMOOTH",
"510 76 OFFCURVE",
"508 72 OFFCURVE",
"513 73 CURVE SMOOTH",
"518 74 OFFCURVE",
"524 78 OFFCURVE",
"518 73 CURVE SMOOTH",
"479 40 OFFCURVE",
"466 47 OFFCURVE",
"466 17 CURVE SMOOTH",
"466 -24 OFFCURVE",
"547 -35 OFFCURVE",
"584 -35 CURVE SMOOTH",
"594 -35 OFFCURVE",
"617 -33 OFFCURVE",
"628 -31 CURVE",
"630 -32 OFFCURVE",
"633 -32 OFFCURVE",
"638 -33 CURVE SMOOTH",
"651 -37 OFFCURVE",
"679 -40 OFFCURVE",
"695 -40 CURVE SMOOTH",
"738 -40 OFFCURVE",
"828 -20 OFFCURVE",
"828 22 CURVE SMOOTH",
"828 57 OFFCURVE",
"816 50 OFFCURVE",
"773 84 CURVE SMOOTH",
"772 84 OFFCURVE",
"777 86 OFFCURVE",
"782 87 CURVE SMOOTH",
"788 88 OFFCURVE",
"791 92 OFFCURVE",
"791 98 CURVE SMOOTH",
"792 131 OFFCURVE",
"795 161 OFFCURVE",
"805 218 CURVE SMOOTH",
"813 262 OFFCURVE",
"822 316 OFFCURVE",
"822 362 CURVE SMOOTH",
"822 449 OFFCURVE",
"810 506 OFFCURVE",
"777 573 CURVE",
"794 584 OFFCURVE",
"799 584 OFFCURVE",
"822 584 CURVE SMOOTH",
"833 584 OFFCURVE",
"823 585 OFFCURVE",
"852 578 CURVE",
"914 558 OFFCURVE",
"967 416 OFFCURVE",
"967 227 CURVE SMOOTH",
"967 208 OFFCURVE",
"966 190 OFFCURVE",
"964 154 CURVE SMOOTH",
"963 142 OFFCURVE",
"962 126 OFFCURVE",
"961 119 CURVE SMOOTH",
"959 89 OFFCURVE",
"961 91 OFFCURVE",
"952 75 CURVE SMOOTH",
"927 27 OFFCURVE",
"922 27 OFFCURVE",
"922 -4 CURVE SMOOTH",
"922 -49 OFFCURVE",
"996 -63 OFFCURVE",
"1040 -63 CURVE SMOOTH",
"1060 -63 OFFCURVE",
"1087 -59 OFFCURVE",
"1105 -53 CURVE SMOOTH",
"1108 -51 OFFCURVE",
"1111 -50 OFFCURVE",
"1112 -50 CURVE",
"1114 -50 OFFCURVE",
"1117 -50 OFFCURVE",
"1118 -50 CURVE SMOOTH",
"1151 -50 OFFCURVE",
"1201 -23 OFFCURVE",
"1201 26 CURVE SMOOTH",
"1201 83 LINE"
);
}
);
width = 1201;
}
);
leftKerningGroup = M;
rightKerningGroup = M;
unicode = 004D;
},
{
glyphname = N;
lastChange = "2020-03-30 22:22:34 +0000";
layers = (
{
anchors = (
{
name = bottom;
position = "{438, 0}";
},
{
name = top;
position = "{438, 619}";
}
);
hints = (
{
horizontal = 1;
origin = "{0, 23}";
target = "{0, 78}";
type = Stem;
},
{
horizontal = 1;
origin = "{0, 108}";
target = "{0, 99}";
type = Stem;
},
{
origin = "{0, 124}";
target = "{0, 14}";
type = Stem;
},
{
origin = "{0, 69}";
target = "{0, 41}";
type = Stem;
},
{
place = "{116, 94}";
type = Stem;
},
{
origin = "{0, 72}";
target = "{0, 41}";
type = Stem;
},
{
origin = "{0, 96}";
target = "{0, 90}";
type = Stem;
},
{
origin = "{0, 121}";
target = "{0, 14}";
type = Stem;
}
);
layerId = master01;
paths = (
{
closed = 1;
nodes = (
"180 -330 OFFCURVE",
"233 -324 OFFCURVE",
"233 -300 CURVE SMOOTH",
"233 -290 OFFCURVE",
"227 -279 OFFCURVE",
"222 -271 CURVE SMOOTH",
"212 -255 OFFCURVE",
"206 -241 OFFCURVE",
"206 -218 CURVE SMOOTH",
"206 -201 OFFCURVE",
"208 -183 OFFCURVE",
"208 -166 CURVE SMOOTH",
"208 -122 OFFCURVE",
"204 -78 OFFCURVE",
"204 -34 CURVE SMOOTH",
"204 13 OFFCURVE",
"210 54 OFFCURVE",
"210 101 CURVE",
"286 73 OFFCURVE",
"366 38 OFFCURVE",
"452 24 CURVE SMOOTH",
"496 17 OFFCURVE",
"540 14 OFFCURVE",
"584 14 CURVE SMOOTH",
"626 14 OFFCURVE",
"668 18 OFFCURVE",
"710 22 CURVE",
"710 -30 OFFCURVE",
"752 -31 OFFCURVE",
"802 -31 CURVE SMOOTH",
"828 -31 OFFCURVE",
"864 -28 OFFCURVE",
"864 -4 CURVE SMOOTH",
"864 9 OFFCURVE",
"846 18 OFFCURVE",
"830 22 CURVE SMOOTH",
"788 33 OFFCURVE",
"786 71 OFFCURVE",
"786 121 CURVE SMOOTH",
"786 168 OFFCURVE",
"789 215 OFFCURVE",
"789 263 CURVE SMOOTH",
"789 364 LINE SMOOTH",
"789 399 OFFCURVE",
"790 433 OFFCURVE",
"790 468 CURVE SMOOTH",
"790 514 OFFCURVE",
"787 557 OFFCURVE",
"741 557 CURVE SMOOTH",
"728 557 OFFCURVE",
"713 552 OFFCURVE",
"708 539 CURVE",
"692 537 OFFCURVE",
"677 534 OFFCURVE",
"660 534 CURVE SMOOTH",
"632 534 OFFCURVE",
"605 547 OFFCURVE",
"580 547 CURVE SMOOTH",
"558 547 OFFCURVE",
"549 538 OFFCURVE",
"549 528 CURVE SMOOTH",
"549 518 OFFCURVE",
"559 509 OFFCURVE",
"576 504 CURVE SMOOTH",
"634 487 OFFCURVE",
"673 443 OFFCURVE",
"705 402 CURVE",
"706 374 OFFCURVE",
"707 346 OFFCURVE",
"707 320 CURVE SMOOTH",
"707 258 OFFCURVE",
"702 198 OFFCURVE",
"702 134 CURVE SMOOTH",
"702 104 OFFCURVE",
"708 80 OFFCURVE",
"712 56 CURVE",
"680 52 OFFCURVE",
"647 50 OFFCURVE",
"616 50 CURVE SMOOTH",
"453 50 OFFCURVE",
"314 99 OFFCURVE",
"210 167 CURVE",
"210 210 OFFCURVE",
"218 248 OFFCURVE",
"219 289 CURVE SMOOTH",
"220 317 OFFCURVE",
"220 345 OFFCURVE",
"221 373 CURVE SMOOTH",
"223 417 OFFCURVE",
"227 462 OFFCURVE",
"227 509 CURVE SMOOTH",
"227 549 OFFCURVE",
"215 582 OFFCURVE",
"183 582 CURVE SMOOTH",
"161 582 OFFCURVE",
"142 566 OFFCURVE",
"141 540 CURVE",
"95 540 OFFCURVE",
"55 558 OFFCURVE",
"15 558 CURVE SMOOTH",
"4 558 OFFCURVE",
"-8 557 OFFCURVE",
"-18 552 CURVE SMOOTH",
"-28 547 OFFCURVE",
"-36 537 OFFCURVE",
"-36 527 CURVE SMOOTH",
"-36 519 OFFCURVE",
"-31 512 OFFCURVE",
"-15 512 CURVE SMOOTH",
"2 512 OFFCURVE",
"17 504 OFFCURVE",
"29 496 CURVE SMOOTH",
"69 470 OFFCURVE",
"105 432 OFFCURVE",
"136 396 CURVE",
"136 332 OFFCURVE",
"126 271 OFFCURVE",
"126 205 CURVE SMOOTH",
"126 131 LINE SMOOTH",
"126 83 OFFCURVE",
"123 36 OFFCURVE",
"123 -11 CURVE SMOOTH",
"123 -54 OFFCURVE",
"126 -97 OFFCURVE",
"126 -139 CURVE SMOOTH",
"126 -167 OFFCURVE",
"126 -193 OFFCURVE",
"122 -218 CURVE SMOOTH",
"118 -246 OFFCURVE",
"99 -263 OFFCURVE",
"99 -293 CURVE SMOOTH",
"99 -322 OFFCURVE",
"124 -330 OFFCURVE",
"154 -330 CURVE SMOOTH"
);
}
);
width = 876;
},
{
associatedMasterId = master01;
layerId = "570FBFA8-C316-4B88-BF8C-4F94621D94CF";
name = bubble;
paths = (
{
closed = 1;
nodes = (
"868 55 OFFCURVE",
"866 63 OFFCURVE",
"866 121 CURVE SMOOTH",
"866 145 OFFCURVE",
"866 166 OFFCURVE",
"866 190 CURVE SMOOTH",
"866 263 LINE",
"866 364 LINE SMOOTH",
"866 382 OFFCURVE",
"866 398 OFFCURVE",
"866 415 CURVE SMOOTH",
"866 468 LINE SMOOTH",
"866 565 OFFCURVE",
"823 597 OFFCURVE",
"731 597 CURVE SMOOTH",
"705 597 OFFCURVE",
"666 590 OFFCURVE",
"637 578 CURVE",
"636 579 OFFCURVE",
"634 579 OFFCURVE",
"631 580 CURVE SMOOTH",
"615 584 OFFCURVE",
"587 587 OFFCURVE",
"570 587 CURVE SMOOTH",
"527 587 OFFCURVE",
"439 571 OFFCURVE",
"439 528 CURVE SMOOTH",
"439 491 OFFCURVE",
"500 477 OFFCURVE",
"538 466 CURVE SMOOTH",
"551 462 OFFCURVE",
"566 443 OFFCURVE",
"595 405 CURVE",
"596 361 OFFCURVE",
"597 341 OFFCURVE",
"597 320 CURVE SMOOTH",
"597 296 OFFCURVE",
"596 274 OFFCURVE",
"595 230 CURVE SMOOTH",
"593 199 OFFCURVE",
"592 166 OFFCURVE",
"592 134 CURVE SMOOTH",
"592 121 OFFCURVE",
"594 105 OFFCURVE",
"596 90 CURVE",
"483 91 OFFCURVE",
"394 118 OFFCURVE",
"300 173 CURVE",
"300 190 OFFCURVE",
"301 206 OFFCURVE",
"304 235 CURVE SMOOTH",
"306 251 OFFCURVE",
"308 274 OFFCURVE",
"309 287 CURVE SMOOTH",
"309 300 OFFCURVE",
"310 309 OFFCURVE",
"310 330 CURVE SMOOTH",
"310 344 OFFCURVE",
"311 360 OFFCURVE",
"311 371 CURVE SMOOTH",
"312 385 OFFCURVE",
"312 393 OFFCURVE",
"313 413 CURVE SMOOTH",
"315 444 OFFCURVE",
"317 478 OFFCURVE",
"317 509 CURVE SMOOTH",
"317 591 OFFCURVE",
"257 622 OFFCURVE",
"173 622 CURVE SMOOTH",
"136 622 OFFCURVE",
"93 612 OFFCURVE",
"64 593 CURVE",
"43 596 OFFCURVE",
"21 598 OFFCURVE",
"5 598 CURVE SMOOTH",
"3 598 OFFCURVE",
"1 592 OFFCURVE",
"0 588 CURVE",
"0 527 LINE SMOOTH",
"0 483 OFFCURVE",
"0 472 OFFCURVE",
"0 472 CURVE",
"0 468 LINE SMOOTH",
"0 463 OFFCURVE",
"1 460 OFFCURVE",
"3 455 CURVE SMOOTH",
"8 444 OFFCURVE",
"16 424 OFFCURVE",
"26 398 CURVE",
"26 373 OFFCURVE",
"25 350 OFFCURVE",
"21 305 CURVE SMOOTH",
"19 273 OFFCURVE",
"16 237 OFFCURVE",
"16 205 CURVE SMOOTH",
"16 131 LINE SMOOTH",
"16 112 OFFCURVE",
"16 95 OFFCURVE",
"15 61 CURVE SMOOTH",
"14 37 OFFCURVE",
"13 12 OFFCURVE",
"13 -11 CURVE SMOOTH",
"13 -32 OFFCURVE",
"14 -56 OFFCURVE",
"15 -77 CURVE SMOOTH",
"16 -107 OFFCURVE",
"16 -123 OFFCURVE",
"16 -139 CURVE SMOOTH",
"16 -180 OFFCURVE",
"15 -199 OFFCURVE",
"13 -212 CURVE SMOOTH",
"11 -224 OFFCURVE",
"14 -222 OFFCURVE",
"12 -228 CURVE SMOOTH",
"11 -233 OFFCURVE",
"10 -236 OFFCURVE",
"9 -240 CURVE SMOOTH",
"2 -271 OFFCURVE",
"0 -271 OFFCURVE",
"0 -293 CURVE SMOOTH",
"0 -346 OFFCURVE",
"79 -370 OFFCURVE",
"144 -370 CURVE SMOOTH",
"213 -370 OFFCURVE",
"323 -346 OFFCURVE",
"323 -300 CURVE SMOOTH",
"323 -277 OFFCURVE",
"314 -278 OFFCURVE",
"297 -250 CURVE SMOOTH",
"296 -249 OFFCURVE",
"296 -222 OFFCURVE",
"296 -218 CURVE SMOOTH",
"296 -211 OFFCURVE",
"296 -205 OFFCURVE",
"297 -194 CURVE SMOOTH",
"298 -179 OFFCURVE",
"298 -172 OFFCURVE",
"298 -166 CURVE SMOOTH",
"298 -144 OFFCURVE",
"297 -120 OFFCURVE",
"296 -98 CURVE SMOOTH",
"294 -67 OFFCURVE",
"294 -51 OFFCURVE",
"294 -34 CURVE SMOOTH",
"294 -19 OFFCURVE",
"294 -6 OFFCURVE",
"296 16 CURVE",
"342 1 OFFCURVE",
"379.991 -7.996 OFFCURVE",
"426 -15 CURVE SMOOTH",
"467 -22 OFFCURVE",
"523 -26 OFFCURVE",
"574 -26 CURVE SMOOTH",
"589 -26 OFFCURVE",
"603 -26 OFFCURVE",
"618 -25 CURVE",
"649 -58 OFFCURVE",
"715 -71 OFFCURVE",
"792 -71 CURVE SMOOTH",
"823 -71 OFFCURVE",
"866 -51 OFFCURVE",
"866 -4 CURVE SMOOTH",
"866 32 OFFCURVE",
"857 48 OFFCURVE",
"851 59 CURVE"
);
}
);
width = 866;
}
);
leftKerningGroup = N;
rightKerningGroup = N;
unicode = 004E;
},
{
glyphname = O;
lastChange = "2020-03-30 22:26:30 +0000";
layers = (
{
anchors = (
{
name = bottom;
position = "{384, 0}";
},
{
name = center;
position = "{384, 385}";
},
{
name = ogonek;
position = "{691, 10}";
},
{
name = top;
position = "{384, 709}";
},
{
name = topleft;
position = "{20, 769}";
},
{
name = topright;
position = "{748, 769}";
}
);
hints = (
{
horizontal = 1;
origin = "{0, 29}";
target = "{1, 29}";
type = Stem;
},
{
horizontal = 1;
origin = "{0, 11}";
target = "{1, 17}";
type = Stem;
},
{
origin = "{0, 23}";
target = "{1, 8}";
type = Stem;
},
{
origin = "{1, 23}";
target = "{0, 8}";
type = Stem;
}
);
layerId = master01;
paths = (
{
closed = 1;
nodes = (
"341 -41 OFFCURVE",
"357 -39 OFFCURVE",
"370 -34 CURVE SMOOTH",
"396 -26 OFFCURVE",
"419 -16 OFFCURVE",
"445 -6 CURVE SMOOTH",
"594 46 OFFCURVE",
"725 171 OFFCURVE",
"725 356 CURVE SMOOTH",
"725 522 OFFCURVE",
"601 692 OFFCURVE",
"421 692 CURVE SMOOTH",
"357 692 OFFCURVE",
"304 674 OFFCURVE",
"260 648 CURVE SMOOTH",
"237 635 OFFCURVE",
"215 622 OFFCURVE",
"193 608 CURVE SMOOTH",
"157 585 OFFCURVE",
"128 552 OFFCURVE",
"104 518 CURVE SMOOTH",
"72 472 OFFCURVE",
"46 422 OFFCURVE",
"46 348 CURVE SMOOTH",
"46 226 OFFCURVE",
"107 124 OFFCURVE",
"169 53 CURVE SMOOTH",
"205 13 OFFCURVE",
"254 -41 OFFCURVE",
"325 -41 CURVE SMOOTH"
);
},
{
closed = 1;
nodes = (
"378 14 OFFCURVE",
"366 17 OFFCURVE",
"350 25 CURVE SMOOTH",
"286 56 OFFCURVE",
"239 109 OFFCURVE",
"204 169 CURVE SMOOTH",
"167 233 OFFCURVE",
"138 299 OFFCURVE",
"138 389 CURVE SMOOTH",
"138 484 OFFCURVE",
"182 554 OFFCURVE",
"238 598 CURVE SMOOTH",
"249 606 OFFCURVE",
"261 613 OFFCURVE",
"274 620 CURVE SMOOTH",
"303 634 OFFCURVE",
"337 647 OFFCURVE",
"373 647 CURVE SMOOTH",
"422 647 OFFCURVE",
"463 627 OFFCURVE",
"498 598 CURVE SMOOTH",
"571 537 OFFCURVE",
"632 433 OFFCURVE",
"632 308 CURVE SMOOTH",
"632 164 OFFCURVE",
"550 72 OFFCURVE",
"440 26 CURVE SMOOTH",
"421 18 OFFCURVE",
"405 14 OFFCURVE",
"391 14 CURVE SMOOTH"
);
}
);
width = 768;
},
{
associatedMasterId = master01;
layerId = "F5BC908C-78AF-4AF3-AF5A-E2B42FAAFA27";
name = bubble;
paths = (
{
closed = 1;
nodes = (
"768 563 OFFCURVE",
"613 732 OFFCURVE",
"421 732 CURVE SMOOTH",
"342 732 OFFCURVE",
"247 709 OFFCURVE",
"201 677 CURVE",
"180 665 OFFCURVE",
"141 643 OFFCURVE",
"139 642 CURVE SMOOTH",
"89 610 OFFCURVE",
"57 589 OFFCURVE",
"26 546 CURVE SMOOTH",
"23 542 OFFCURVE",
"22 539 OFFCURVE",
"21 535 CURVE SMOOTH",
"5 455 OFFCURVE",
"0 420 OFFCURVE",
"0 348 CURVE SMOOTH",
"0 238 OFFCURVE",
"26 149 OFFCURVE",
"91 32 CURVE SMOOTH",
"93 28 OFFCURVE",
"94 27 OFFCURVE",
"95 26 CURVE",
"159 -45 OFFCURVE",
"234 -81 OFFCURVE",
"325 -81 CURVE SMOOTH",
"342 -81 OFFCURVE",
"371 -78 OFFCURVE",
"390 -75 CURVE",
"424 -65 OFFCURVE",
"444 -58 OFFCURVE",
"461 -51 CURVE SMOOTH",
"465 -50 OFFCURVE",
"468 -49 OFFCURVE",
"471 -47 CURVE SMOOTH",
"473 -47 OFFCURVE",
"478 -44 OFFCURVE",
"478 -44 CURVE",
"663 34 OFFCURVE",
"768 176 OFFCURVE",
"768 356 CURVE SMOOTH"
);
}
);
width = 768;
}
);
leftKerningGroup = E;
rightKerningGroup = O;
unicode = 004F;
},
{
glyphname = Oslash;
lastChange = "2020-03-21 03:15:56 +0000";
layers = (
{
hints = (
{
horizontal = 1;
origin = "{0, 13}";
target = "{2, 15}";
type = Stem;
},
{
horizontal = 1;
origin = "{0, 45}";
target = "{1, 14}";
type = Stem;
},
{
horizontal = 1;
origin = "{0, 42}";
target = up;
type = BottomGhost;
},
{
origin = "{0, 57}";
target = "{1, 5}";
type = Stem;
},
{
origin = "{2, 9}";
target = "{0, 22}";
type = Stem;
}
);
layerId = master01;
paths = (
{
closed = 1;
nodes = (
"108.502 -117.704 OFFCURVE",
"114.502 -114.704 OFFCURVE",
"118.502 -111.704 CURVE SMOOTH",
"150.502 -88.704 LINE SMOOTH",
"164.502 -78.704 OFFCURVE",
"175.502 -66.704 OFFCURVE",
"182.502 -52.704 CURVE SMOOTH",
"188.502 -40.704 OFFCURVE",
"194.499 -28.705 OFFCURVE",
"202.502 -14.704 CURVE SMOOTH",
"213.977 6.979 LINE",
"243.639 -19.188 OFFCURVE",
"279.876 -41 OFFCURVE",
"325 -41 CURVE SMOOTH",
"341 -41 OFFCURVE",
"357 -39 OFFCURVE",
"370 -34 CURVE SMOOTH",
"396 -26 OFFCURVE",
"419 -16 OFFCURVE",
"445 -6 CURVE SMOOTH",
"594 46 OFFCURVE",
"725 171 OFFCURVE",
"725 356 CURVE SMOOTH",
"725 475.456 OFFCURVE",
"660.787 596.984 OFFCURVE",
"557.701 655.741 CURVE",
"626.502 781.296 LINE SMOOTH",
"630.375 788.364 OFFCURVE",
"632.502 792.296 OFFCURVE",
"632.502 796.296 CURVE SMOOTH",
"632.502 797.296 OFFCURVE",
"630.502 799.296 OFFCURVE",
"629.502 799.296 CURVE SMOOTH",
"627.502 799.296 OFFCURVE",
"619.502 796.296 OFFCURVE",
"616.502 794.296 CURVE SMOOTH",
"573.502 763.296 LINE SMOOTH",
"562.502 756.296 OFFCURVE",
"553.502 745.296 OFFCURVE",
"546.502 733.296 CURVE SMOOTH",
"541.834 725.294 OFFCURVE",
"525.647 693.404 OFFCURVE",
"516.18 675.113 CURVE",
"486.736 685.985 OFFCURVE",
"454.859 692 OFFCURVE",
"421 692 CURVE SMOOTH",
"357 692 OFFCURVE",
"304 674 OFFCURVE",
"260 648 CURVE SMOOTH",
"237 635 OFFCURVE",
"215 622 OFFCURVE",
"193 608 CURVE SMOOTH",
"157 585 OFFCURVE",
"128 552 OFFCURVE",
"104 518 CURVE SMOOTH",
"72 472 OFFCURVE",
"46 422 OFFCURVE",
"46 348 CURVE SMOOTH",
"46 226 OFFCURVE",
"107 124 OFFCURVE",
"169 53 CURVE SMOOTH",
"172.531 49.076 OFFCURVE",
"176.188 45.018 OFFCURVE",
"179.978 40.889 CURVE",
"154.989 -4.541 OFFCURVE",
"120.027 -71.345 OFFCURVE",
"106.502 -96.704 CURVE SMOOTH",
"102.708 -103.817 OFFCURVE",
"101.502 -107.704 OFFCURVE",
"101.502 -112.704 CURVE SMOOTH",
"101.502 -116.704 OFFCURVE",
"104.502 -117.704 OFFCURVE",
"106.502 -117.704 CURVE SMOOTH"
);
},
{
closed = 1;
nodes = (
"219.697 143.38 OFFCURVE",
"211.568 156.027 OFFCURVE",
"204 169 CURVE SMOOTH",
"167 233 OFFCURVE",
"138 299 OFFCURVE",
"138 389 CURVE SMOOTH",
"138 484 OFFCURVE",
"182 554 OFFCURVE",
"238 598 CURVE SMOOTH",
"249 606 OFFCURVE",
"261 613 OFFCURVE",
"274 620 CURVE SMOOTH",
"303 634 OFFCURVE",
"337 647 OFFCURVE",
"373 647 CURVE SMOOTH",
"414.697 647 OFFCURVE",
"450.6 632.518 OFFCURVE",
"481.943 610.331 CURVE",
"228.437 131.213 LINE"
);
},
{
closed = 1;
nodes = (
"378 14 OFFCURVE",
"366 17 OFFCURVE",
"350 25 CURVE SMOOTH",
"315.042 41.933 OFFCURVE",
"285.155 65.43 OFFCURVE",
"259.526 93.046 CURVE",
"517.46 580.426 LINE",
"581.526 518.033 OFFCURVE",
"632 421.705 OFFCURVE",
"632 308 CURVE SMOOTH",
"632 164 OFFCURVE",
"550 72 OFFCURVE",
"440 26 CURVE SMOOTH",
"421 18 OFFCURVE",
"405 14 OFFCURVE",
"391 14 CURVE SMOOTH"
);
}
);
width = 787;
},
{
associatedMasterId = master01;
layerId = "79DFFEEE-09E4-4B43-A0FC-91DA15BA52A1";
name = bubble;
paths = (
{
closed = 1;
nodes = (
"787 481 OFFCURVE",
"742 581 OFFCURVE",
"657 659 CURVE",
"714 762 LINE SMOOTH",
"718 769 OFFCURVE",
"733 796 OFFCURVE",
"733 796 CURVE SMOOTH",
"733 796 OFFCURVE",
"662 826 OFFCURVE",
"638 836 CURVE SMOOTH",
"633 838 OFFCURVE",
"630 838 OFFCURVE",
"625 837 CURVE SMOOTH",
"616 835 OFFCURVE",
"598 833 OFFCURVE",
"567 829 CURVE SMOOTH",
"562 829 OFFCURVE",
"559 827 OFFCURVE",
"555 825 CURVE SMOOTH",
"538 812 LINE SMOOTH",
"531 807 OFFCURVE",
"518 797 OFFCURVE",
"520 797 CURVE",
"519 797 OFFCURVE",
"460 754 OFFCURVE",
"460 753 CURVE SMOOTH",
"448 732 OFFCURVE",
"448 733 OFFCURVE",
"447 731 CURVE",
"438 732 OFFCURVE",
"429 732 OFFCURVE",
"421 732 CURVE SMOOTH",
"342 732 OFFCURVE",
"247 709 OFFCURVE",
"201 677 CURVE",
"180 665 OFFCURVE",
"141 643 OFFCURVE",
"139 642 CURVE SMOOTH",
"89 610 OFFCURVE",
"57 589 OFFCURVE",
"26 546 CURVE SMOOTH",
"23 542 OFFCURVE",
"22 539 OFFCURVE",
"21 535 CURVE SMOOTH",
"5 455 OFFCURVE",
"0 420 OFFCURVE",
"0 348 CURVE SMOOTH",
"0 241 OFFCURVE",
"24 154 OFFCURVE",
"82 41 CURVE",
"65 11 OFFCURVE",
"47 -24 OFFCURVE",
"33 -51 CURVE SMOOTH",
"26 -63 OFFCURVE",
"21 -72 OFFCURVE",
"18 -78 CURVE SMOOTH",
"6 -102 OFFCURVE",
"2 -93 OFFCURVE",
"2 -113 CURVE SMOOTH",
"2 -150 OFFCURVE",
"87 -158 OFFCURVE",
"107 -158 CURVE SMOOTH",
"122 -158 OFFCURVE",
"174 -152 OFFCURVE",
"181 -141 CURVE",
"209 -121 LINE SMOOTH",
"216 -116 OFFCURVE",
"262 -79 OFFCURVE",
"271 -72 CURVE",
"270 -74 LINE SMOOTH",
"269 -75 OFFCURVE",
"273 -76 OFFCURVE",
"280 -77 CURVE SMOOTH",
"296 -80 OFFCURVE",
"311 -81 OFFCURVE",
"325 -81 CURVE SMOOTH",
"342 -81 OFFCURVE",
"371 -78 OFFCURVE",
"390 -75 CURVE",
"424 -65 OFFCURVE",
"444 -58 OFFCURVE",
"461 -51 CURVE SMOOTH",
"465 -50 OFFCURVE",
"468 -49 OFFCURVE",
"471 -47 CURVE SMOOTH",
"473 -47 OFFCURVE",
"478 -44 OFFCURVE",
"478 -44 CURVE",
"675 34 OFFCURVE",
"787 176 OFFCURVE",
"787 356 CURVE SMOOTH"
);
}
);
width = 787;
}
);
leftKerningGroup = E;
unicode = 00D8;
},
{
glyphname = OE;
lastChange = "2020-03-30 22:23:52 +0000";
layers = (
{
anchors = (
{
name = bottom;
position = "{524, 0}";
},
{
name = top;
position = "{524, 769}";
}
);
hints = (
{
horizontal = 1;
origin = "{0, 86}";
target = "{0, 21}";
type = Stem;
},
{
horizontal = 1;
origin = "{0, 28}";
target = "{0, 44}";
type = Stem;
},
{
horizontal = 1;
origin = "{0, 45}";
target = "{0, 59}";
type = Stem;
},
{
horizontal = 1;
origin = "{0, 77}";
target = "{1, 23}";
type = Stem;
},
{
horizontal = 1;
origin = "{1, 11}";
target = "{0, 62}";
type = Stem;
},
{
origin = "{0, 68}";
target = "{1, 5}";
type = Stem;
},
{
origin = "{1, 17}";
target = "{0, 21}";
type = Stem;
}
);
layerId = master01;
paths = (
{
closed = 1;
nodes = (
"972 -11 OFFCURVE",
"982 -8 OFFCURVE",
"988 0 CURVE",
"978 30 OFFCURVE",
"974 45 OFFCURVE",
"974 73 CURVE SMOOTH",
"974 108 OFFCURVE",
"983 130 OFFCURVE",
"983 156 CURVE SMOOTH",
"983 169 OFFCURVE",
"979 181 OFFCURVE",
"968 193 CURVE",
"950 150 OFFCURVE",
"933 116 OFFCURVE",
"916 90 CURVE SMOOTH",
"899 64 OFFCURVE",
"883 48 OFFCURVE",
"869 44 CURVE SMOOTH",
"850 39 OFFCURVE",
"806 37 OFFCURVE",
"738 37 CURVE SMOOTH",
"636 37 LINE",
"636 131 LINE SMOOTH",
"636 261 OFFCURVE",
"638 341 OFFCURVE",
"646 349 CURVE SMOOTH",
"650 353 OFFCURVE",
"690 355 OFFCURVE",
"767 355 CURVE SMOOTH",
"844 355 OFFCURVE",
"893 350 OFFCURVE",
"912 337 CURVE SMOOTH",
"931 324 OFFCURVE",
"949 308 OFFCURVE",
"965 290 CURVE",
"973 300 OFFCURVE",
"976 327 OFFCURVE",
"976 379 CURVE SMOOTH",
"976 431 OFFCURVE",
"972 460 OFFCURVE",
"968 470 CURVE",
"894 401 OFFCURVE",
"876 401 OFFCURVE",
"732 401 CURVE SMOOTH",
"636 401 LINE",
"636 727 LINE",
"744 727 LINE SMOOTH",
"841 727 OFFCURVE",
"899 716 OFFCURVE",
"918 692 CURVE SMOOTH",
"937 668 OFFCURVE",
"954 642 OFFCURVE",
"964 612 CURVE",
"965 629 OFFCURVE",
"968 661 OFFCURVE",
"984 708 CURVE SMOOTH",
"995 740 OFFCURVE",
"1000 754 OFFCURVE",
"1010 770 CURVE",
"540 770 LINE",
"489 781 OFFCURVE",
"433 786 OFFCURVE",
"382 786 CURVE SMOOTH",
"340 786 OFFCURVE",
"298 778 OFFCURVE",
"260 761 CURVE SMOOTH",
"128 691 OFFCURVE",
"17 580 OFFCURVE",
"17 390 CURVE SMOOTH",
"17 352 OFFCURVE",
"20 314 OFFCURVE",
"30 277 CURVE SMOOTH",
"61 176 OFFCURVE",
"106 123 OFFCURVE",
"194 52 CURVE SMOOTH",
"246 11 OFFCURVE",
"316 -10 OFFCURVE",
"386 -10 CURVE SMOOTH",
"434 -10 OFFCURVE",
"487 -8 OFFCURVE",
"534 2 CURVE",
"542 0 OFFCURVE",
"557 -1 OFFCURVE",
"582 -1 CURVE SMOOTH",
"611 -1 OFFCURVE",
"655 0 OFFCURVE",
"708 0 CURVE SMOOTH",
"834 0 OFFCURVE",
"901 -11 OFFCURVE",
"959 -11 CURVE SMOOTH"
);
},
{
closed = 1;
nodes = (
"311 18 OFFCURVE",
"261 57 OFFCURVE",
"226 92 CURVE SMOOTH",
"164 154 OFFCURVE",
"125 248 OFFCURVE",
"125 365 CURVE SMOOTH",
"125 483 OFFCURVE",
"146 585 OFFCURVE",
"232 684 CURVE SMOOTH",
"279 738 OFFCURVE",
"333 752 OFFCURVE",
"398 752 CURVE SMOOTH",
"462 752 OFFCURVE",
"510 729 OFFCURVE",
"548 697 CURVE",
"549 646 OFFCURVE",
"550 540 OFFCURVE",
"550 380 CURVE SMOOTH",
"550 303 OFFCURVE",
"550 203 OFFCURVE",
"548 76 CURVE",
"500 36 OFFCURVE",
"439 18 OFFCURVE",
"373 18 CURVE SMOOTH"
);
}
);
width = 1048;
},
{
associatedMasterId = master01;
layerId = "FFE6A594-7C50-4BC9-9514-00CFEC1F1E86";
name = bubble;
paths = (
{
closed = 1;
nodes = (
"1048 188 OFFCURVE",
"1046 191 OFFCURVE",
"1043 212 CURVE SMOOTH",
"1042 217 OFFCURVE",
"1038 220 OFFCURVE",
"1032 219 CURVE SMOOTH",
"884 209 LINE SMOOTH",
"878 209 OFFCURVE",
"875 206 OFFCURVE",
"873 201 CURVE SMOOTH",
"859 169 OFFCURVE",
"838 121 OFFCURVE",
"832 112 CURVE SMOOTH",
"819 92 OFFCURVE",
"814 75 OFFCURVE",
"842 82 CURVE SMOOTH",
"844 83 LINE SMOOTH",
"825 78 OFFCURVE",
"807 77 OFFCURVE",
"738 77 CURVE SMOOTH",
"736 77 LINE",
"736 131 LINE SMOOTH",
"736 156 OFFCURVE",
"750 274 OFFCURVE",
"739 314 CURVE",
"747 315 OFFCURVE",
"757 315 OFFCURVE",
"767 315 CURVE SMOOTH",
"838 315 OFFCURVE",
"840 315 OFFCURVE",
"856 304 CURVE SMOOTH",
"856 304 OFFCURVE",
"876 280 OFFCURVE",
"885 269 CURVE SMOOTH",
"889 265 OFFCURVE",
"892 263 OFFCURVE",
"898 264 CURVE SMOOTH",
"1034 265 LINE SMOOTH",
"1040 265 OFFCURVE",
"1043 268 OFFCURVE",
"1044 274 CURVE SMOOTH",
"1049 313 OFFCURVE",
"1048 316 OFFCURVE",
"1048 379 CURVE SMOOTH",
"1048 460 OFFCURVE",
"1048 451 OFFCURVE",
"1019 573 CURVE SMOOTH",
"1017 581 OFFCURVE",
"1012 583 OFFCURVE",
"1005 579 CURVE SMOOTH",
"787 436 OFFCURVE",
"925 441 OFFCURVE",
"732 441 CURVE SMOOTH",
"735 441 OFFCURVE",
"736 444 OFFCURVE",
"736 451 CURVE SMOOTH",
"736 687 LINE",
"744 687 LINE SMOOTH",
"828 687 OFFCURVE",
"823 688 OFFCURVE",
"840 667 CURVE SMOOTH",
"839 668 OFFCURVE",
"856 636 OFFCURVE",
"866 608 CURVE SMOOTH",
"868 602 OFFCURVE",
"872 600 OFFCURVE",
"878 600 CURVE SMOOTH",
"1038 609 LINE SMOOTH",
"1045 609 OFFCURVE",
"1048 613 OFFCURVE",
"1048 619 CURVE SMOOTH",
"1048 648 OFFCURVE",
"1048 675 OFFCURVE",
"1048 695 CURVE SMOOTH",
"1048 742 LINE SMOOTH",
"1048 747 OFFCURVE",
"1047 750 OFFCURVE",
"1044 755 CURVE SMOOTH",
"1014 803 LINE SMOOTH",
"1011 808 OFFCURVE",
"1008 810 OFFCURVE",
"1002 810 CURVE SMOOTH",
"557 810 LINE",
"510 820 OFFCURVE",
"441 826 OFFCURVE",
"382 826 CURVE SMOOTH",
"326 826 OFFCURVE",
"255 813 OFFCURVE",
"219 798 CURVE",
"216 797 LINE SMOOTH",
"214 796 OFFCURVE",
"212 795 OFFCURVE",
"208 792 CURVE SMOOTH",
"64 684 OFFCURVE",
"0 564 OFFCURVE",
"0 390 CURVE SMOOTH",
"0 291 LINE SMOOTH",
"0 287 OFFCURVE",
"0 283 OFFCURVE",
"1 279 CURVE SMOOTH",
"19 180 OFFCURVE",
"45 128 OFFCURVE",
"128 26 CURVE SMOOTH",
"131 22 OFFCURVE",
"133 20 OFFCURVE",
"136 17 CURVE SMOOTH",
"189 -21 OFFCURVE",
"297 -50 OFFCURVE",
"386 -50 CURVE SMOOTH",
"445.999 -50 OFFCURVE",
"502 -46 OFFCURVE",
"541 -40 CURVE",
"553 -41 OFFCURVE",
"568 -41 OFFCURVE",
"582 -41 CURVE SMOOTH",
"595 -41 OFFCURVE",
"611 -41 OFFCURVE",
"628 -41 CURVE SMOOTH",
"651 -40 OFFCURVE",
"678 -40 OFFCURVE",
"708 -40 CURVE SMOOTH",
"777 -40 OFFCURVE",
"830 -44 OFFCURVE",
"874 -47 CURVE SMOOTH",
"916 -50 OFFCURVE",
"937 -51 OFFCURVE",
"959 -51 CURVE SMOOTH",
"979 -51 OFFCURVE",
"1026 -43 OFFCURVE",
"1043 -29 CURVE SMOOTH",
"1047 -26 OFFCURVE",
"1048 -22 OFFCURVE",
"1048 -17 CURVE SMOOTH",
"1048 13 LINE",
"1048 73 LINE SMOOTH",
"1048 89 OFFCURVE",
"1048 97 OFFCURVE",
"1048 114 CURVE SMOOTH",
"1048 156 LINE SMOOTH"
);
}
);
width = 1048;
}
);
leftKerningGroup = E;
unicode = 0152;
},
{
glyphname = P;
lastChange = "2020-03-29 12:45:27 +0000";
layers = (
{
hints = (
{
horizontal = 1;
origin = "{0, 57}";
target = "{0, 38}";
type = Stem;
},
{
horizontal = 1;
origin = "{0, 44}";
target = down;
type = TopGhost;
},
{
horizontal = 1;
origin = "{0, 26}";
target = "{0, 72}";
type = Stem;
},
{
origin = "{0, 111}";
target = "{0, 8}";
type = Stem;
},
{
origin = "{0, 32}";
target = "{0, 69}";
type = Stem;
},
{
origin = "{0, 84}";
target = "{0, 20}";
type = Stem;
}
);
layerId = master01;
paths = (
{
closed = 1;
nodes = (
"196 -659 OFFCURVE",
"212 -648 OFFCURVE",
"220 -638 CURVE SMOOTH",
"237 -620 OFFCURVE",
"240 -594 OFFCURVE",
"242 -563 CURVE SMOOTH",
"243 -545 OFFCURVE",
"245 -524 OFFCURVE",
"245 -504 CURVE SMOOTH",
"245 -463 OFFCURVE",
"243 -424 OFFCURVE",
"242 -383 CURVE SMOOTH",
"240 -211 OFFCURVE",
"211 -62 OFFCURVE",
"197 98 CURVE SMOOTH",
"191 166 OFFCURVE",
"191 237 OFFCURVE",
"190 305 CURVE SMOOTH",
"190 330 OFFCURVE",
"187 356 OFFCURVE",
"187 380 CURVE SMOOTH",
"187 415 OFFCURVE",
"193 434 OFFCURVE",
"211 460 CURVE SMOOTH",
"273 552 OFFCURVE",
"397 605 OFFCURVE",
"536 605 CURVE SMOOTH",
"660 605 OFFCURVE",
"764 552 OFFCURVE",
"828 484 CURVE SMOOTH",
"889 418 OFFCURVE",
"930 313 OFFCURVE",
"930 198 CURVE SMOOTH",
"930 56 OFFCURVE",
"840 -17 OFFCURVE",
"750 -76 CURVE SMOOTH",
"698 -110 OFFCURVE",
"645 -144 OFFCURVE",
"566 -144 CURVE SMOOTH",
"476 -144 OFFCURVE",
"406 -102 OFFCURVE",
"359 -50 CURVE SMOOTH",
"349 -39 OFFCURVE",
"341 -34 OFFCURVE",
"330 -34 CURVE SMOOTH",
"324 -34 OFFCURVE",
"316 -36 OFFCURVE",
"308 -41 CURVE SMOOTH",
"287 -55 LINE SMOOTH",
"277 -62 OFFCURVE",
"272 -70 OFFCURVE",
"272 -78 CURVE SMOOTH",
"272 -89 OFFCURVE",
"280 -101 OFFCURVE",
"292 -114 CURVE SMOOTH",
"340 -167 OFFCURVE",
"413 -210 OFFCURVE",
"499 -210 CURVE SMOOTH",
"528 -210 OFFCURVE",
"555 -204 OFFCURVE",
"581 -197 CURVE SMOOTH",
"687 -168 OFFCURVE",
"760 -118 OFFCURVE",
"840 -62 CURVE SMOOTH",
"881 -33 OFFCURVE",
"923 -6 OFFCURVE",
"954 32 CURVE SMOOTH",
"995 82 OFFCURVE",
"1021 154 OFFCURVE",
"1021 239 CURVE SMOOTH",
"1021 490 OFFCURVE",
"850 654 OFFCURVE",
"593 654 CURVE SMOOTH",
"540 654 OFFCURVE",
"497 647 OFFCURVE",
"451 636 CURVE SMOOTH",
"345 611 OFFCURVE",
"245 572 OFFCURVE",
"181 500 CURVE SMOOTH",
"159 476 OFFCURVE",
"141 451 OFFCURVE",
"119 428 CURVE SMOOTH",
"107 415 OFFCURVE",
"103 388 OFFCURVE",
"103 362 CURVE SMOOTH",
"103 345 OFFCURVE",
"106 329 OFFCURVE",
"106 313 CURVE SMOOTH",
"106 295 OFFCURVE",
"99 286 OFFCURVE",
"82 281 CURVE SMOOTH",
"69 277 OFFCURVE",
"56 270 OFFCURVE",
"44 264 CURVE SMOOTH",
"34 258 OFFCURVE",
"30 253 OFFCURVE",
"30 246 CURVE SMOOTH",
"30 240 OFFCURVE",
"34 234 OFFCURVE",
"40 228 CURVE SMOOTH",
"57 209 OFFCURVE",
"74 189 OFFCURVE",
"91 170 CURVE SMOOTH",
"105 153 OFFCURVE",
"110 144 OFFCURVE",
"112 113 CURVE SMOOTH",
"125 -69 OFFCURVE",
"154 -244 OFFCURVE",
"154 -440 CURVE SMOOTH",
"154 -458 OFFCURVE",
"155 -480 OFFCURVE",
"155 -503 CURVE SMOOTH",
"155 -538 OFFCURVE",
"152 -572 OFFCURVE",
"139 -589 CURVE SMOOTH",
"132 -597 OFFCURVE",
"130 -608 OFFCURVE",
"130 -616 CURVE SMOOTH",
"130 -640 OFFCURVE",
"153 -659 OFFCURVE",
"178 -659 CURVE SMOOTH"
);
}
);
width = 1063;
},
{
associatedMasterId = master01;
layerId = "F4E19931-C90D-4473-9765-74D25E203598";
name = bubble;
paths = (
{
closed = 1;
nodes = (
"527 694 OFFCURVE",
"466 684 OFFCURVE",
"428 675 CURVE SMOOTH",
"271 638 OFFCURVE",
"148 580 OFFCURVE",
"101 520 CURVE",
"92 511 OFFCURVE",
"84 503 OFFCURVE",
"75 492 CURVE SMOOTH",
"61 475 OFFCURVE",
"52 463 OFFCURVE",
"48 458 CURVE SMOOTH",
"8 414 OFFCURVE",
"3 420 OFFCURVE",
"3 362 CURVE SMOOTH",
"3 356 OFFCURVE",
"4 348 OFFCURVE",
"5 333 CURVE SMOOTH",
"6 324 OFFCURVE",
"6 320 OFFCURVE",
"6 313 CURVE SMOOTH",
"6 314 OFFCURVE",
"37 317 OFFCURVE",
"49 319 CURVE SMOOTH",
"54 319 OFFCURVE",
"51 319 OFFCURVE",
"47 317 CURVE SMOOTH",
"37 314 OFFCURVE",
"19 307 OFFCURVE",
"8 303 CURVE SMOOTH",
"3 301 OFFCURVE",
"0 299 OFFCURVE",
"0 298 CURVE",
"0 246 LINE SMOOTH",
"0 213 OFFCURVE",
"0 215 OFFCURVE",
"0 185 CURVE SMOOTH",
"0 179 LINE SMOOTH",
"0 175 OFFCURVE",
"1 171 OFFCURVE",
"3 167 CURVE SMOOTH",
"8 159 OFFCURVE",
"12 151 OFFCURVE",
"16 143 CURVE",
"15 144 LINE SMOOTH",
"14 144 OFFCURVE",
"14 140 OFFCURVE",
"13 132 CURVE SMOOTH",
"13 123 OFFCURVE",
"12 111 OFFCURVE",
"12 110 CURVE SMOOTH",
"16 51 OFFCURVE",
"24 -17 OFFCURVE",
"30 -80 CURVE SMOOTH",
"42 -198 OFFCURVE",
"54 -311 OFFCURVE",
"54 -440 CURVE SMOOTH",
"54 -447 OFFCURVE",
"54 -453 OFFCURVE",
"54 -469 CURVE SMOOTH",
"55 -485 OFFCURVE",
"55 -494 OFFCURVE",
"55 -503 CURVE SMOOTH",
"55 -566 OFFCURVE",
"38 -617 OFFCURVE",
"98 -490 CURVE",
"67 -599 OFFCURVE",
"30 -562 OFFCURVE",
"30 -616 CURVE SMOOTH",
"30 -669 OFFCURVE",
"116 -699 OFFCURVE",
"178 -699 CURVE SMOOTH",
"194 -699 OFFCURVE",
"295 -685 OFFCURVE",
"302 -656 CURVE",
"336 -621 OFFCURVE",
"338 -623 OFFCURVE",
"342 -565 CURVE SMOOTH",
"342 -559 OFFCURVE",
"342 -555 OFFCURVE",
"343 -549 CURVE SMOOTH",
"344 -526 OFFCURVE",
"345 -514 OFFCURVE",
"345 -504 CURVE SMOOTH",
"345 -477 OFFCURVE",
"344 -449 OFFCURVE",
"343 -423 CURVE SMOOTH",
"343 -403 OFFCURVE",
"342 -395 OFFCURVE",
"342 -382 CURVE SMOOTH",
"341 -326 OFFCURVE",
"337 -270 OFFCURVE",
"332 -215 CURVE",
"385 -237 OFFCURVE",
"445 -250 OFFCURVE",
"499 -250 CURVE SMOOTH",
"530 -250 OFFCURVE",
"577 -244 OFFCURVE",
"607 -236 CURVE SMOOTH",
"719 -205 OFFCURVE",
"788 -171 OFFCURVE",
"898 -95 CURVE SMOOTH",
"936 -67 OFFCURVE",
"1003 -23 OFFCURVE",
"1027 2 CURVE SMOOTH",
"1030 5 OFFCURVE",
"1032 8 OFFCURVE",
"1033 13 CURVE SMOOTH",
"1055 90 OFFCURVE",
"1063 145 OFFCURVE",
"1063 239 CURVE SMOOTH",
"1063 511 OFFCURVE",
"871 694 OFFCURVE",
"593 694 CURVE SMOOTH"
);
}
);
width = 1063;
}
);
leftKerningGroup = P;
rightKerningGroup = P;
unicode = 0050;
},
{
glyphname = Thorn;
lastChange = "2020-03-30 21:35:20 +0000";
layers = (
{
hints = (
{
horizontal = 1;
origin = "{0, 30}";
target = up;
type = BottomGhost;
},
{
horizontal = 1;
origin = "{0, 8}";
target = "{1, 6}";
type = Stem;
},
{
horizontal = 1;
origin = "{0, 15}";
target = down;
type = TopGhost;
},
{
origin = "{0, 24}";
target = "{0, 3}";
type = Stem;
},
{
origin = "{0, 18}";
target = "{0, 8}";
type = Stem;
}
);
layerId = master01;
paths = (
{
closed = 1;
nodes = (
"161 -1 LINE",
"145 22 OFFCURVE",
"144 23 OFFCURVE",
"144 60 CURVE SMOOTH",
"144 192 LINE",
"272 382 OFFCURVE",
"364 518 OFFCURVE",
"482 678 CURVE",
"143 678 LINE",
"143 710 OFFCURVE",
"147 730 OFFCURVE",
"158 762 CURVE SMOOTH",
"159 766 OFFCURVE",
"165 773 OFFCURVE",
"169 775 CURVE",
"37 781 LINE",
"54 737 OFFCURVE",
"56 688 OFFCURVE",
"56 640 CURVE SMOOTH",
"56 605 OFFCURVE",
"55 567 OFFCURVE",
"55 533 CURVE SMOOTH",
"55 485 OFFCURVE",
"54 438 OFFCURVE",
"54 390 CURVE SMOOTH",
"54 335 OFFCURVE",
"53 158 OFFCURVE",
"53 103 CURVE SMOOTH",
"53 65 OFFCURVE",
"48 27 OFFCURVE",
"28 1 CURVE",
"160 -1 LINE"
);
},
{
closed = 1;
nodes = (
"144 608 LINE",
"184 636 OFFCURVE",
"208 642 OFFCURVE",
"263 644 CURVE SMOOTH",
"281 645 OFFCURVE",
"300 646 OFFCURVE",
"318 646 CURVE SMOOTH",
"331 646 OFFCURVE",
"346 645 OFFCURVE",
"358 644 CURVE",
"300 540 OFFCURVE",
"230 441 OFFCURVE",
"144 323 CURVE"
);
}
);
width = 487;
},
{
associatedMasterId = master01;
layerId = "DEBDA276-DF79-4D19-8447-DADC2408A9DD";
name = bubble;
paths = (
{
closed = 1;
nodes = (
"246 726 OFFCURVE",
"248 733 OFFCURVE",
"250 739 CURVE SMOOTH",
"251 746 OFFCURVE",
"248 750 OFFCURVE",
"240 747 CURVE SMOOTH",
"228 743 OFFCURVE",
"213 739 OFFCURVE",
"214 739 CURVE",
"177 808 LINE SMOOTH",
"175 813 OFFCURVE",
"171 815 OFFCURVE",
"166 815 CURVE SMOOTH",
"49 821 LINE SMOOTH",
"44 821 OFFCURVE",
"40 819 OFFCURVE",
"37 815 CURVE SMOOTH",
"4 772 LINE SMOOTH",
"1 768 OFFCURVE",
"0 765 OFFCURVE",
"0 760 CURVE SMOOTH",
"0 738 OFFCURVE",
"0 691 OFFCURVE",
"0 640 CURVE SMOOTH",
"0 586 LINE SMOOTH",
"0 568 OFFCURVE",
"0 550 OFFCURVE",
"0 533 CURVE SMOOTH",
"0 462 LINE SMOOTH",
"0 438 OFFCURVE",
"0 414 OFFCURVE",
"0 390 CURVE SMOOTH",
"0 247 LINE SMOOTH",
"0 189 OFFCURVE",
"0 130 OFFCURVE",
"0 103 CURVE SMOOTH",
"0 -28 LINE SMOOTH",
"0 -34 OFFCURVE",
"3 -38 OFFCURVE",
"10 -38 CURVE SMOOTH",
"153 -41 LINE SMOOTH",
"157 -41 OFFCURVE",
"161 -40 OFFCURVE",
"164 -38 CURVE SMOOTH",
"165 -38 OFFCURVE",
"166 -37 OFFCURVE",
"166 -37 CURVE SMOOTH",
"235 16 LINE SMOOTH",
"240 20 OFFCURVE",
"241 25 OFFCURVE",
"237 30 CURVE SMOOTH",
"232 37 OFFCURVE",
"244 20 OFFCURVE",
"244 60 CURVE SMOOTH",
"244 195 LINE",
"335 398 OFFCURVE",
"410 564 OFFCURVE",
"481 706 CURVE SMOOTH",
"485 713 OFFCURVE",
"482 718 OFFCURVE",
"474 718 CURVE SMOOTH",
"245 718 LINE"
);
}
);
width = 487;
}
);
rightKerningGroup = Thorn.titl;
unicode = 00DE;
},
{
glyphname = Q;
lastChange = "2020-03-30 00:56:45 +0000";
layers = (
{
hints = (
{
horizontal = 1;
origin = "{0, 70}";
target = "{0, 64}";
type = Stem;
},
{
horizontal = 1;
origin = "{0, 48}";
target = "{1, 26}";
type = Stem;
},
{
horizontal = 1;
origin = "{0, 33}";
target = "{1, 11}";
type = Stem;
},
{
origin = "{0, 42}";
target = "{1, 5}";
type = Stem;
},
{
origin = "{0, 55}";
target = "{0, 11}";
type = Stem;
}
);
layerId = master01;
paths = (
{
closed = 1;
nodes = (
"822 -744 OFFCURVE",
"842 -730 OFFCURVE",
"848 -707 CURVE",
"912 -675 OFFCURVE",
"956 -592 OFFCURVE",
"972 -548 CURVE SMOOTH",
"985 -511 OFFCURVE",
"995 -481 OFFCURVE",
"995 -437 CURVE SMOOTH",
"995 -407 OFFCURVE",
"988 -378 OFFCURVE",
"988 -349 CURVE SMOOTH",
"988 -130 LINE SMOOTH",
"988 24 OFFCURVE",
"1014 153 OFFCURVE",
"1015 302 CURVE",
"1066 398 OFFCURVE",
"1140 480 OFFCURVE",
"1230 538 CURVE SMOOTH",
"1246 548 OFFCURVE",
"1253 558 OFFCURVE",
"1253 564 CURVE SMOOTH",
"1253 569 OFFCURVE",
"1250 571 OFFCURVE",
"1243 571 CURVE SMOOTH",
"1237 571 OFFCURVE",
"1228 568 OFFCURVE",
"1217 562 CURVE SMOOTH",
"1138 519 OFFCURVE",
"1066 462 OFFCURVE",
"1008 398 CURVE",
"983 570 OFFCURVE",
"857 658 OFFCURVE",
"661 658 CURVE SMOOTH",
"638 658 OFFCURVE",
"616 656 OFFCURVE",
"594 656 CURVE SMOOTH",
"479 656 OFFCURVE",
"372 642 OFFCURVE",
"287 605 CURVE SMOOTH",
"144 543 OFFCURVE",
"46 399 OFFCURVE",
"46 200 CURVE SMOOTH",
"46 7 OFFCURVE",
"164 -152 OFFCURVE",
"296 -230 CURVE SMOOTH",
"345 -259 OFFCURVE",
"393 -276 OFFCURVE",
"464 -276 CURVE SMOOTH",
"550 -276 OFFCURVE",
"624 -261 OFFCURVE",
"689 -224 CURVE SMOOTH",
"767 -180 OFFCURVE",
"824 -103 OFFCURVE",
"884 -38 CURVE",
"884 -296 LINE SMOOTH",
"884 -355 OFFCURVE",
"893 -420 OFFCURVE",
"893 -506 CURVE SMOOTH",
"893 -550 OFFCURVE",
"882 -602 OFFCURVE",
"839 -654 CURVE",
"829 -642 OFFCURVE",
"814 -635 OFFCURVE",
"797 -635 CURVE SMOOTH",
"766 -635 OFFCURVE",
"742 -659 OFFCURVE",
"742 -690 CURVE SMOOTH",
"742 -721 OFFCURVE",
"766 -744 OFFCURVE",
"797 -744 CURVE SMOOTH"
);
},
{
closed = 1;
nodes = (
"380 -224 OFFCURVE",
"291 -114 OFFCURVE",
"233 -18 CURVE SMOOTH",
"185 64 OFFCURVE",
"154 143 OFFCURVE",
"154 256 CURVE SMOOTH",
"154 382 OFFCURVE",
"192 484 OFFCURVE",
"264 542 CURVE SMOOTH",
"348 610 OFFCURVE",
"471 623 OFFCURVE",
"607 623 CURVE SMOOTH",
"692 623 OFFCURVE",
"763 584 OFFCURVE",
"818 547 CURVE SMOOTH",
"883 503 OFFCURVE",
"911 403 OFFCURVE",
"911 287 CURVE SMOOTH",
"911 222 OFFCURVE",
"902 162 OFFCURVE",
"895 98 CURVE",
"849 31 OFFCURVE",
"808 -40 OFFCURVE",
"756 -102 CURVE SMOOTH",
"703 -166 OFFCURVE",
"635 -224 OFFCURVE",
"528 -224 CURVE SMOOTH"
);
}
);
width = 1129;
},
{
associatedMasterId = master01;
layerId = "376BC537-EECE-4E12-95C7-5A139E44BD72";
name = bubble;
paths = (
{
closed = 1;
nodes = (
"1129 597 LINE",
"1103 575 OFFCURVE",
"1080 553 OFFCURVE",
"1058 530 CURVE",
"986 636 OFFCURVE",
"844 698 OFFCURVE",
"661 698 CURVE SMOOTH",
"650 698 OFFCURVE",
"639 698 OFFCURVE",
"622 697 CURVE SMOOTH",
"606 696 OFFCURVE",
"600 696 OFFCURVE",
"594 696 CURVE SMOOTH",
"457 696 OFFCURVE",
"323 675 OFFCURVE",
"247 642 CURVE",
"83 555 OFFCURVE",
"0 409 OFFCURVE",
"0 200 CURVE SMOOTH",
"0 13 OFFCURVE",
"87 -150 OFFCURVE",
"245 -264 CURVE",
"299 -296 OFFCURVE",
"382 -316 OFFCURVE",
"464 -316 CURVE SMOOTH",
"569 -316 OFFCURVE",
"678 -293 OFFCURVE",
"738 -259 CURVE SMOOTH",
"756 -249 OFFCURVE",
"771 -240 OFFCURVE",
"784 -232 CURVE",
"784 -296 LINE SMOOTH",
"784 -322 OFFCURVE",
"786 -353 OFFCURVE",
"788 -384 CURVE SMOOTH",
"792 -439 OFFCURVE",
"793 -470 OFFCURVE",
"793 -506 CURVE SMOOTH",
"793 -537 OFFCURVE",
"787 -570 OFFCURVE",
"778 -596 CURVE",
"712 -601 OFFCURVE",
"642 -634 OFFCURVE",
"642 -690 CURVE SMOOTH",
"642 -751 OFFCURVE",
"726 -784 OFFCURVE",
"797 -784 CURVE SMOOTH",
"851 -784 OFFCURVE",
"940 -759 OFFCURVE",
"946 -712 CURVE",
"1002 -674 OFFCURVE",
"1043 -626 OFFCURVE",
"1066 -561 CURVE SMOOTH",
"1090 -495 OFFCURVE",
"1095 -477 OFFCURVE",
"1095 -437 CURVE SMOOTH",
"1095 -423 OFFCURVE",
"1093 -402 OFFCURVE",
"1091 -388 CURVE SMOOTH",
"1089 -369 OFFCURVE",
"1088 -361 OFFCURVE",
"1088 -349 CURVE SMOOTH",
"1088 -130 LINE SMOOTH",
"1088 -69 OFFCURVE",
"1091 -15 OFFCURVE",
"1101 90 CURVE SMOOTH",
"1108 159 OFFCURVE",
"1115 232 OFFCURVE",
"1115 305 CURVE SMOOTH",
"1119 415 OFFCURVE",
"1124 488 OFFCURVE",
"1129 522 CURVE",
"1129 533 OFFCURVE",
"1129 546 OFFCURVE",
"1129 564 CURVE SMOOTH",
"1129 611 LINE"
);
}
);
width = 1129;
}
);
leftKerningGroup = Q;
rightKerningGroup = Q;
unicode = 0051;
},
{
glyphname = R;
lastChange = "2020-03-30 00:58:02 +0000";
layers = (
{
hints = (
{
horizontal = 1;
origin = "{0, 159}";
target = "{0, 14}";
type = Stem;
},
{
horizontal = 1;
origin = "{0, 65}";
target = "{0, 35}";
type = Stem;
},
{
horizontal = 1;
origin = "{0, 50}";
target = down;
type = TopGhost;
},
{
horizontal = 1;
origin = "{0, 8}";
target = down;
type = TopGhost;
},
{
horizontal = 1;
origin = "{0, 59}";
target = down;
type = TopGhost;
},
{
horizontal = 1;
origin = "{0, 144}";
target = "{0, 140}";
type = Stem;
},
{
origin = "{0, 131}";
target = "{0, 29}";
type = Stem;
},
{
place = "{76, 92}";
type = Stem;
}
);
layerId = master01;
paths = (
{
closed = 1;
nodes = (
"682 -193 OFFCURVE",
"713 -184 OFFCURVE",
"736 -166 CURVE SMOOTH",
"748 -156 OFFCURVE",
"754 -148 OFFCURVE",
"754 -143 CURVE SMOOTH",
"754 -141 OFFCURVE",
"752 -138 OFFCURVE",
"748 -138 CURVE SMOOTH",
"744 -138 OFFCURVE",
"738 -138 OFFCURVE",
"730 -142 CURVE SMOOTH",
"719 -146 OFFCURVE",
"707 -148 OFFCURVE",
"696 -148 CURVE SMOOTH",
"667 -148 OFFCURVE",
"647 -135 OFFCURVE",
"628 -122 CURVE SMOOTH",
"602 -104 OFFCURVE",
"577 -80 OFFCURVE",
"558 -54 CURVE SMOOTH",
"504 18 OFFCURVE",
"474 113 OFFCURVE",
"402 168 CURVE",
"498 223 OFFCURVE",
"604 288 OFFCURVE",
"646 396 CURVE SMOOTH",
"658 425 OFFCURVE",
"664 457 OFFCURVE",
"664 488 CURVE SMOOTH",
"664 588 OFFCURVE",
"607 660 OFFCURVE",
"534 688 CURVE SMOOTH",
"500 701 OFFCURVE",
"463 704 OFFCURVE",
"427 704 CURVE SMOOTH",
"381 704 OFFCURVE",
"343 700 OFFCURVE",
"302 689 CURVE SMOOTH",
"270 679 OFFCURVE",
"238 664 OFFCURVE",
"208 650 CURVE",
"213 671 OFFCURVE",
"221 690 OFFCURVE",
"233 706 CURVE SMOOTH",
"240 716 OFFCURVE",
"247 725 OFFCURVE",
"247 732 CURVE SMOOTH",
"247 738 OFFCURVE",
"245 740 OFFCURVE",
"239 740 CURVE SMOOTH",
"234 740 OFFCURVE",
"228 738 OFFCURVE",
"218 732 CURVE SMOOTH",
"183 712 OFFCURVE",
"145 695 OFFCURVE",
"92 695 CURVE SMOOTH",
"74 695 OFFCURVE",
"56 696 OFFCURVE",
"38 696 CURVE SMOOTH",
"13 696 OFFCURVE",
"4 692 OFFCURVE",
"4 686 CURVE SMOOTH",
"4 681 OFFCURVE",
"11 674 OFFCURVE",
"23 667 CURVE SMOOTH",
"71 637 OFFCURVE",
"98 584 OFFCURVE",
"98 509 CURVE SMOOTH",
"98 438 OFFCURVE",
"92 369 OFFCURVE",
"91 298 CURVE SMOOTH",
"90 219 OFFCURVE",
"83 140 OFFCURVE",
"78 62 CURVE SMOOTH",
"77 31 OFFCURVE",
"76 -1 OFFCURVE",
"74 -32 CURVE SMOOTH",
"72 -66 OFFCURVE",
"65 -96 OFFCURVE",
"53 -121 CURVE SMOOTH",
"51 -127 OFFCURVE",
"49 -132 OFFCURVE",
"49 -136 CURVE SMOOTH",
"49 -141 OFFCURVE",
"50 -143 OFFCURVE",
"54 -143 CURVE SMOOTH",
"58 -143 OFFCURVE",
"61 -141 OFFCURVE",
"67 -137 CURVE SMOOTH",
"79 -129 OFFCURVE",
"93 -120 OFFCURVE",
"110 -120 CURVE SMOOTH",
"120 -120 OFFCURVE",
"130 -122 OFFCURVE",
"138 -124 CURVE SMOOTH",
"151 -126 OFFCURVE",
"165 -129 OFFCURVE",
"181 -131 CURVE SMOOTH",
"187 -132 OFFCURVE",
"190 -132 OFFCURVE",
"194 -132 CURVE SMOOTH",
"202 -132 OFFCURVE",
"204 -129 OFFCURVE",
"204 -127 CURVE SMOOTH",
"204 -123 OFFCURVE",
"198 -117 OFFCURVE",
"191 -109 CURVE SMOOTH",
"174 -91 OFFCURVE",
"168 -63 OFFCURVE",
"168 -29 CURVE SMOOTH",
"168 -3 OFFCURVE",
"171 26 OFFCURVE",
"173 52 CURVE SMOOTH",
"177 102 OFFCURVE",
"179 155 OFFCURVE",
"181 205 CURVE SMOOTH",
"186 289 OFFCURVE",
"192 373 OFFCURVE",
"198 457 CURVE SMOOTH",
"202 506 OFFCURVE",
"202 553 OFFCURVE",
"203 602 CURVE",
"240 639 OFFCURVE",
"289 667 OFFCURVE",
"355 667 CURVE SMOOTH",
"377 667 OFFCURVE",
"398 665 OFFCURVE",
"418 659 CURVE SMOOTH",
"512 634 OFFCURVE",
"583 562 OFFCURVE",
"583 446 CURVE SMOOTH",
"583 384 OFFCURVE",
"565 331 OFFCURVE",
"529 288 CURVE SMOOTH",
"489 241 OFFCURVE",
"433 212 OFFCURVE",
"378 182 CURVE",
"364 188 OFFCURVE",
"349 193 OFFCURVE",
"330 193 CURVE SMOOTH",
"292 193 OFFCURVE",
"258 179 OFFCURVE",
"229 166 CURVE",
"230 150 LINE",
"277 148 OFFCURVE",
"314 132 OFFCURVE",
"343 107 CURVE SMOOTH",
"366 88 OFFCURVE",
"382 61 OFFCURVE",
"398 36 CURVE SMOOTH",
"415 8 OFFCURVE",
"431 -20 OFFCURVE",
"448 -48 CURVE SMOOTH",
"460 -67 OFFCURVE",
"471 -88 OFFCURVE",
"484 -106 CURVE SMOOTH",
"518 -155 OFFCURVE",
"567 -193 OFFCURVE",
"647 -193 CURVE SMOOTH"
);
}
);
width = 681;
},
{
associatedMasterId = master01;
layerId = "66BDF559-C102-46D9-8007-D2F4ACCE36CB";
name = bubble;
paths = (
{
closed = 1;
nodes = (
"681 -98 OFFCURVE",
"681 -100 OFFCURVE",
"681 -103 CURVE SMOOTH",
"681 -96 LINE SMOOTH",
"681 -91 OFFCURVE",
"680 -87 OFFCURVE",
"677 -84 CURVE SMOOTH",
"669 -72 OFFCURVE",
"650 -47 OFFCURVE",
"638 -30 CURVE SMOOTH",
"637 -29 OFFCURVE",
"623 -4 OFFCURVE",
"593 50 CURVE SMOOTH",
"559 110 OFFCURVE",
"543 134 OFFCURVE",
"506 165 CURVE",
"583 227 OFFCURVE",
"656 298 OFFCURVE",
"679 385 CURVE SMOOTH",
"681 389 OFFCURVE",
"681 392 OFFCURVE",
"681 397 CURVE SMOOTH",
"681 488 LINE SMOOTH",
"681 601 OFFCURVE",
"644 674 OFFCURVE",
"575 722 CURVE SMOOTH",
"571 725 OFFCURVE",
"568 726 OFFCURVE",
"564 727 CURVE SMOOTH",
"534 737 OFFCURVE",
"478 744 OFFCURVE",
"427 744 CURVE SMOOTH",
"400 744 OFFCURVE",
"372 742 OFFCURVE",
"346 740 CURVE",
"336 773 OFFCURVE",
"263 780 OFFCURVE",
"239 780 CURVE SMOOTH",
"232 780 OFFCURVE",
"198 777 OFFCURVE",
"178 771 CURVE SMOOTH",
"174 770 OFFCURVE",
"171 768 OFFCURVE",
"167 766 CURVE SMOOTH",
"117 737 OFFCURVE",
"120 735 OFFCURVE",
"92 735 CURVE SMOOTH",
"86 735 OFFCURVE",
"81 735 OFFCURVE",
"68 735 CURVE SMOOTH",
"59 736 OFFCURVE",
"49 736 OFFCURVE",
"38 736 CURVE SMOOTH",
"27 736 OFFCURVE",
"0 725 OFFCURVE",
"0 686 CURVE SMOOTH",
"0 644 OFFCURVE",
"0 638 OFFCURVE",
"0 609 CURVE SMOOTH",
"0 509 LINE SMOOTH",
"0 479 OFFCURVE",
"0 451 OFFCURVE",
"0 396 CURVE SMOOTH",
"0 299 LINE SMOOTH",
"0 237 OFFCURVE",
"0 181 OFFCURVE",
"0 122 CURVE SMOOTH",
"0 61 LINE SMOOTH",
"0 29 OFFCURVE",
"0 -3 OFFCURVE",
"0 -30 CURVE SMOOTH",
"0 -104 LINE",
"0 -108 LINE SMOOTH",
"0 -109 OFFCURVE",
"0 -109 OFFCURVE",
"0 -111 CURVE SMOOTH",
"0 -136 LINE SMOOTH",
"0 -138 OFFCURVE",
"52 -183 OFFCURVE",
"54 -183 CURVE SMOOTH",
"72 -183 OFFCURVE",
"109 -179 OFFCURVE",
"122 -170 CURVE SMOOTH",
"126 -168 OFFCURVE",
"128 -166 OFFCURVE",
"129 -165 CURVE",
"131 -165 OFFCURVE",
"133 -165 OFFCURVE",
"136 -166 CURVE SMOOTH",
"144 -167 OFFCURVE",
"158 -169 OFFCURVE",
"173 -171 CURVE SMOOTH",
"180 -172 OFFCURVE",
"188 -172 OFFCURVE",
"194 -172 CURVE SMOOTH",
"202 -172 OFFCURVE",
"304 -125.996 OFFCURVE",
"304 -127 CURVE SMOOTH",
"304 -100 OFFCURVE",
"309 -131 OFFCURVE",
"269 -86 CURVE SMOOTH",
"268 -85 OFFCURVE",
"267 -84 OFFCURVE",
"267 -83 CURVE",
"271 -82 OFFCURVE",
"268 -57 OFFCURVE",
"268 -29 CURVE SMOOTH",
"268 -13 OFFCURVE",
"269 2 OFFCURVE",
"271 32 CURVE SMOOTH",
"272 43 OFFCURVE",
"273 48 OFFCURVE",
"273 49 CURVE SMOOTH",
"274 59 OFFCURVE",
"274 69 OFFCURVE",
"275 79 CURVE",
"276 78 OFFCURVE",
"278 77 OFFCURVE",
"279 76 CURVE",
"280 71 OFFCURVE",
"294 46 OFFCURVE",
"314 14 CURVE",
"313 15 LINE",
"309 20 OFFCURVE",
"318 5 OFFCURVE",
"337 -26 CURVE SMOOTH",
"348 -46 OFFCURVE",
"360 -65 OFFCURVE",
"370 -82 CURVE SMOOTH",
"372 -84 OFFCURVE",
"373 -87 OFFCURVE",
"375 -90 CURVE SMOOTH",
"392 -120 OFFCURVE",
"384 -103 OFFCURVE",
"411 -140 CURVE",
"459 -198 OFFCURVE",
"556 -233 OFFCURVE",
"647 -233 CURVE SMOOTH",
"658 -233 OFFCURVE",
"675 -217 OFFCURVE",
"681 -198 CURVE SMOOTH",
"681 -197 LINE SMOOTH",
"681 -182 OFFCURVE",
"681 -167 OFFCURVE",
"681 -143 CURVE SMOOTH",
"681 -98 LINE"
);
}
);
width = 681;
}
);
leftKerningGroup = R;
rightKerningGroup = R;
unicode = 0052;
},
{
glyphname = S;
lastChange = "2020-03-30 01:33:29 +0000";
layers = (
{
hints = (
{
horizontal = 1;
origin = "{0, 107}";
target = "{0, 77}";
type = Stem;
},
{
horizontal = 1;
origin = "{0, 56}";
target = "{0, 17}";
type = Stem;
},
{
origin = "{0, 62}";
target = "{0, 14}";
type = Stem;
},
{
origin = "{0, 74}";
target = "{0, 8}";
type = Stem;
},
{
origin = "{0, 101}";
target = "{0, 86}";
type = Stem;
}
);
layerId = master01;
paths = (
{
closed = 1;
nodes = (
"405 -208 OFFCURVE",
"458 -192 OFFCURVE",
"510 -173 CURVE SMOOTH",
"574 -150 OFFCURVE",
"627 -112 OFFCURVE",
"649 -47 CURVE SMOOTH",
"663 -6 OFFCURVE",
"665 36 OFFCURVE",
"665 82 CURVE SMOOTH",
"665 324 OFFCURVE",
"370 261 OFFCURVE",
"220 355 CURVE SMOOTH",
"174 384 OFFCURVE",
"130 430 OFFCURVE",
"130 498 CURVE SMOOTH",
"130 598 OFFCURVE",
"237 636 OFFCURVE",
"335 636 CURVE SMOOTH",
"418 636 OFFCURVE",
"464 600 OFFCURVE",
"496 548 CURVE SMOOTH",
"515 518 OFFCURVE",
"542 499 OFFCURVE",
"547 457 CURVE SMOOTH",
"548 449 OFFCURVE",
"549 440 OFFCURVE",
"550 432 CURVE SMOOTH",
"551 419 OFFCURVE",
"555 413 OFFCURVE",
"559 413 CURVE SMOOTH",
"563 413 OFFCURVE",
"566 417 OFFCURVE",
"570 427 CURVE SMOOTH",
"572 435 OFFCURVE",
"574 445 OFFCURVE",
"575 457 CURVE SMOOTH",
"576 470 OFFCURVE",
"583 474 OFFCURVE",
"594 474 CURVE SMOOTH",
"606 474 OFFCURVE",
"623 469 OFFCURVE",
"636 469 CURVE SMOOTH",
"646 469 OFFCURVE",
"653 472 OFFCURVE",
"661 474 CURVE SMOOTH",
"673 478 OFFCURVE",
"678 482 OFFCURVE",
"678 487 CURVE SMOOTH",
"678 492 OFFCURVE",
"672 495 OFFCURVE",
"662 499 CURVE SMOOTH",
"644 506 OFFCURVE",
"632 514 OFFCURVE",
"622 532 CURVE SMOOTH",
"575 614 OFFCURVE",
"497 664 OFFCURVE",
"370 664 CURVE SMOOTH",
"222 664 OFFCURVE",
"119 630 OFFCURVE",
"64 536 CURVE SMOOTH",
"50 512 OFFCURVE",
"41 486 OFFCURVE",
"41 458 CURVE SMOOTH",
"41 370 OFFCURVE",
"117 312 OFFCURVE",
"182 290 CURVE SMOOTH",
"218 278 OFFCURVE",
"257 275 OFFCURVE",
"294 268 CURVE SMOOTH",
"355 256 OFFCURVE",
"417 239 OFFCURVE",
"472 217 CURVE SMOOTH",
"543 189 OFFCURVE",
"584 140 OFFCURVE",
"584 42 CURVE SMOOTH",
"584 -68 OFFCURVE",
"533 -152 OFFCURVE",
"424 -152 CURVE SMOOTH",
"368 -152 OFFCURVE",
"324 -136 OFFCURVE",
"282 -114 CURVE SMOOTH",
"228 -88 OFFCURVE",
"179 -49 OFFCURVE",
"148 -6 CURVE SMOOTH",
"128 22 OFFCURVE",
"112 53 OFFCURVE",
"112 91 CURVE SMOOTH",
"112 108 OFFCURVE",
"115 125 OFFCURVE",
"121 139 CURVE SMOOTH",
"127 152 OFFCURVE",
"132 166 OFFCURVE",
"132 173 CURVE SMOOTH",
"132 177 OFFCURVE",
"130 179 OFFCURVE",
"125 179 CURVE SMOOTH",
"120 179 OFFCURVE",
"112 176 OFFCURVE",
"100 170 CURVE SMOOTH",
"59 151 OFFCURVE",
"25 112 OFFCURVE",
"25 62 CURVE SMOOTH",
"25 14 OFFCURVE",
"53 -20 OFFCURVE",
"76 -49 CURVE SMOOTH",
"137 -122 OFFCURVE",
"214 -208 OFFCURVE",
"340 -208 CURVE SMOOTH"
);
}
);
width = 696;
},
{
associatedMasterId = master01;
layerId = "6A870B2E-D926-44BB-9894-F93589CCEA74";
name = bubble;
paths = (
{
closed = 1;
nodes = (
"450 437 OFFCURVE",
"450 434 OFFCURVE",
"450 432 CURVE SMOOTH",
"451 380 OFFCURVE",
"528 373 OFFCURVE",
"559 373 CURVE SMOOTH",
"560 373 OFFCURVE",
"663 412 OFFCURVE",
"663 412 CURVE SMOOTH",
"665 415 LINE SMOOTH",
"666 417 OFFCURVE",
"667 419 OFFCURVE",
"669 424 CURVE SMOOTH",
"669 426 OFFCURVE",
"670 429 OFFCURVE",
"671 432 CURVE",
"676 432 OFFCURVE",
"680 433 OFFCURVE",
"683 434 CURVE SMOOTH",
"685 434 OFFCURVE",
"685 435 OFFCURVE",
"685 435 CURVE SMOOTH",
"689 436 LINE SMOOTH",
"691 436 OFFCURVE",
"693 439 OFFCURVE",
"694 445 CURVE SMOOTH",
"695 453 OFFCURVE",
"696 464 OFFCURVE",
"696 487 CURVE SMOOTH",
"696 518 OFFCURVE",
"696 526 OFFCURVE",
"696 536 CURVE SMOOTH",
"696 545 LINE SMOOTH",
"696 550 OFFCURVE",
"695 553 OFFCURVE",
"693 557 CURVE SMOOTH",
"640 646 OFFCURVE",
"512 704 OFFCURVE",
"370 704 CURVE SMOOTH",
"198 704 OFFCURVE",
"56 649 OFFCURVE",
"3 562 CURVE SMOOTH",
"1 558 OFFCURVE",
"0 554 OFFCURVE",
"0 550 CURVE SMOOTH",
"0 458 LINE SMOOTH",
"0 365 OFFCURVE",
"59 295 OFFCURVE",
"150 252 CURVE",
"170 246 OFFCURVE",
"218 238 OFFCURVE",
"244 234 CURVE SMOOTH",
"254 233 OFFCURVE",
"259 232 OFFCURVE",
"275 229 CURVE SMOOTH",
"331 218 OFFCURVE",
"373 205 OFFCURVE",
"435 180 CURVE SMOOTH",
"467 167 OFFCURVE",
"484 120 OFFCURVE",
"484 42 CURVE SMOOTH",
"484 -54 OFFCURVE",
"459 -112 OFFCURVE",
"424 -112 CURVE SMOOTH",
"388 -112 OFFCURVE",
"386 -108 OFFCURVE",
"304 -66 CURVE",
"279 -49 OFFCURVE",
"261 -26 OFFCURVE",
"229 17 CURVE SMOOTH",
"218 33 OFFCURVE",
"212 62 OFFCURVE",
"212 91 CURVE SMOOTH",
"212 110 OFFCURVE",
"215 128 OFFCURVE",
"213 123 CURVE",
"212 122 LINE",
"223 146 OFFCURVE",
"232 158 OFFCURVE",
"232 173 CURVE SMOOTH",
"232 211 OFFCURVE",
"145 219 OFFCURVE",
"125 219 CURVE SMOOTH",
"124 219 OFFCURVE",
"83 211 OFFCURVE",
"65 208 CURVE SMOOTH",
"60 207 OFFCURVE",
"57 205 OFFCURVE",
"53 201 CURVE SMOOTH",
"20 164 OFFCURVE",
"0 127 OFFCURVE",
"0 62 CURVE SMOOTH",
"0 -74 LINE",
"0 -74 LINE SMOOTH",
"0 -75 OFFCURVE",
"1 -76 OFFCURVE",
"5 -80 CURVE SMOOTH",
"100 -192 OFFCURVE",
"205 -248 OFFCURVE",
"340 -248 CURVE SMOOTH",
"428 -248 OFFCURVE",
"507 -224 OFFCURVE",
"544 -211 CURVE",
"620 -175 OFFCURVE",
"676 -128 OFFCURVE",
"694 -66 CURVE SMOOTH",
"696 -61 OFFCURVE",
"696 -58 OFFCURVE",
"696 -54 CURVE SMOOTH",
"696 82 LINE SMOOTH",
"696 222 OFFCURVE",
"622 284 OFFCURVE",
"425 335 CURVE",
"333 354 OFFCURVE",
"327 355 OFFCURVE",
"273 389 CURVE SMOOTH",
"246 406 OFFCURVE",
"230 447 OFFCURVE",
"230 498 CURVE SMOOTH",
"230 575 OFFCURVE",
"251 596 OFFCURVE",
"335 596 CURVE SMOOTH",
"377 596 OFFCURVE",
"366 601 OFFCURVE",
"407 533 CURVE SMOOTH",
"410 528 OFFCURVE",
"412 526 OFFCURVE",
"416 522 CURVE SMOOTH",
"421 517 OFFCURVE",
"429 507 OFFCURVE",
"436 499 CURVE SMOOTH",
"452 478 OFFCURVE",
"443 490 OFFCURVE",
"448 452 CURVE SMOOTH",
"448 453 OFFCURVE",
"448 449 OFFCURVE",
"449 440 CURVE SMOOTH"
);
}
);
width = 696;
}
);
leftKerningGroup = S;
rightKerningGroup = S;
unicode = 0053;
},
{
glyphname = T;
lastChange = "2020-03-30 01:15:53 +0000";
layers = (
{
hints = (
{
horizontal = 1;
origin = "{0, 91}";
target = "{0, 18}";
type = Stem;
},
{
horizontal = 1;
origin = "{0, 76}";
target = "{0, 58}";
type = Stem;
},
{
horizontal = 1;
origin = "{0, 64}";
target = down;
type = TopGhost;
},
{
horizontal = 1;
origin = "{0, 33}";
target = "{0, 52}";
type = Stem;
},
{
origin = "{0, 85}";
target = "{0, 24}";
type = Stem;
}
);
layerId = master01;
paths = (
{
closed = 1;
nodes = (
"635 -106 OFFCURVE",
"722 -29 OFFCURVE",
"775 56 CURVE SMOOTH",
"779 61 OFFCURVE",
"779 64 OFFCURVE",
"779 68 CURVE SMOOTH",
"779 72 OFFCURVE",
"777 74 OFFCURVE",
"775 78 CURVE SMOOTH",
"768 86 LINE SMOOTH",
"766 90 OFFCURVE",
"763 91 OFFCURVE",
"761 91 CURVE SMOOTH",
"759 91 OFFCURVE",
"757 88 OFFCURVE",
"755 84 CURVE SMOOTH",
"720 11 OFFCURVE",
"641 -50 OFFCURVE",
"541 -50 CURVE SMOOTH",
"473 -50 OFFCURVE",
"423 -20 OFFCURVE",
"379 17 CURVE SMOOTH",
"323 63 OFFCURVE",
"275 121 OFFCURVE",
"275 217 CURVE SMOOTH",
"275 264 OFFCURVE",
"284 301 OFFCURVE",
"302 338 CURVE SMOOTH",
"339 415 OFFCURVE",
"420 446 OFFCURVE",
"473 506 CURVE",
"516 510 OFFCURVE",
"561 515 OFFCURVE",
"605 515 CURVE SMOOTH",
"640 515 OFFCURVE",
"670 512 OFFCURVE",
"700 506 CURVE SMOOTH",
"704 505 OFFCURVE",
"708 505 OFFCURVE",
"712 505 CURVE SMOOTH",
"724 505 OFFCURVE",
"732 512 OFFCURVE",
"739 526 CURVE SMOOTH",
"748 542 LINE SMOOTH",
"750 546 OFFCURVE",
"750 550 OFFCURVE",
"750 554 CURVE SMOOTH",
"750 561 OFFCURVE",
"744 567 OFFCURVE",
"732 568 CURVE SMOOTH",
"708 572 OFFCURVE",
"684 572 OFFCURVE",
"660 572 CURVE SMOOTH",
"624 572 OFFCURVE",
"588 568 OFFCURVE",
"552 563 CURVE SMOOTH",
"439 547 OFFCURVE",
"324 529 OFFCURVE",
"202 522 CURVE",
"195 544 OFFCURVE",
"189 565 OFFCURVE",
"185 588 CURVE SMOOTH",
"181 604 OFFCURVE",
"182 656 OFFCURVE",
"166 656 CURVE SMOOTH",
"161 656 OFFCURVE",
"155 650 OFFCURVE",
"150 643 CURVE SMOOTH",
"125 603 OFFCURVE",
"94 566 OFFCURVE",
"59 535 CURVE SMOOTH",
"45 521 OFFCURVE",
"20 517 OFFCURVE",
"20 505 CURVE SMOOTH",
"20 481 OFFCURVE",
"141 480 OFFCURVE",
"172 480 CURVE SMOOTH",
"260 480 OFFCURVE",
"338 490 OFFCURVE",
"420 500 CURVE",
"383 458 OFFCURVE",
"330 431 OFFCURVE",
"288 394 CURVE SMOOTH",
"232 344 OFFCURVE",
"198 269 OFFCURVE",
"198 167 CURVE SMOOTH",
"198 75 OFFCURVE",
"242 14 OFFCURVE",
"295 -29 CURVE SMOOTH",
"348 -72 OFFCURVE",
"413 -106 OFFCURVE",
"502 -106 CURVE SMOOTH"
);
}
);
width = 751;
},
{
associatedMasterId = master01;
layerId = "D8B277D7-0E80-4ADC-A1D0-7EFD4AFEE465";
name = bubble;
paths = (
{
closed = 1;
nodes = (
"751 96 LINE",
"751 117 LINE",
"751 121 LINE SMOOTH",
"751 127 OFFCURVE",
"747 131 OFFCURVE",
"741 130 CURVE SMOOTH",
"718 129 OFFCURVE",
"674 121 OFFCURVE",
"665 102 CURVE SMOOTH",
"625 18 OFFCURVE",
"595 -10 OFFCURVE",
"541 -10 CURVE SMOOTH",
"509 -10 OFFCURVE",
"508 -6 OFFCURVE",
"443 48 CURVE SMOOTH",
"400 83 OFFCURVE",
"375 143 OFFCURVE",
"375 217 CURVE SMOOTH",
"375 256 OFFCURVE",
"382 301 OFFCURVE",
"392 321 CURVE SMOOTH",
"422 383 OFFCURVE",
"417 377 OFFCURVE",
"464 413 CURVE SMOOTH",
"512 450 OFFCURVE",
"530 463 OFFCURVE",
"540 472 CURVE",
"564 474 OFFCURVE",
"585 475 OFFCURVE",
"605 475 CURVE SMOOTH",
"634 475 OFFCURVE",
"648 473 OFFCURVE",
"682 466 CURVE",
"691 466 OFFCURVE",
"705 465 OFFCURVE",
"712 465 CURVE SMOOTH",
"715 465 OFFCURVE",
"736 490 OFFCURVE",
"746 502 CURVE SMOOTH",
"750 506 OFFCURVE",
"751 510 OFFCURVE",
"751 515 CURVE SMOOTH",
"751 524 LINE SMOOTH",
"751 543 OFFCURVE",
"751 529 OFFCURVE",
"751 554 CURVE SMOOTH",
"751 597 LINE SMOOTH",
"751 603 OFFCURVE",
"748 607 OFFCURVE",
"742 608 CURVE SMOOTH",
"724 611 OFFCURVE",
"698 612 OFFCURVE",
"660 612 CURVE SMOOTH",
"615 612 OFFCURVE",
"568 607 OFFCURVE",
"538 603 CURVE SMOOTH",
"450 590 OFFCURVE",
"368 578 OFFCURVE",
"288 569 CURVE",
"286 581 OFFCURVE",
"284 593 OFFCURVE",
"282 604 CURVE SMOOTH",
"282 607 OFFCURVE",
"282 611 OFFCURVE",
"282 612 CURVE SMOOTH",
"275 685 OFFCURVE",
"234 696 OFFCURVE",
"166 696 CURVE SMOOTH",
"140 696 OFFCURVE",
"84 688 OFFCURVE",
"69 666 CURVE",
"67 665 LINE SMOOTH",
"66 664 OFFCURVE",
"64 663 OFFCURVE",
"62 658 CURVE SMOOTH",
"40 615 OFFCURVE",
"24 584 OFFCURVE",
"5 564 CURVE SMOOTH",
"2 560 OFFCURVE",
"0 557 OFFCURVE",
"0 557 CURVE SMOOTH",
"0 505 LINE SMOOTH",
"0 450 OFFCURVE",
"114 440 OFFCURVE",
"172 440 CURVE SMOOTH",
"198 440 OFFCURVE",
"223 441 OFFCURVE",
"247 442 CURVE",
"233 432 OFFCURVE",
"222 424 OFFCURVE",
"222 424 CURVE SMOOTH",
"130 342 OFFCURVE",
"98 281 OFFCURVE",
"98 167 CURVE SMOOTH",
"98 71 OFFCURVE",
"135 18 OFFCURVE",
"232 -60 CURVE SMOOTH",
"297 -113 OFFCURVE",
"405 -146 OFFCURVE",
"502 -146 CURVE SMOOTH",
"604 -146 OFFCURVE",
"702 -74 OFFCURVE",
"749 36 CURVE SMOOTH",
"750 40 OFFCURVE",
"751 44 OFFCURVE",
"751 48 CURVE SMOOTH",
"751 51 OFFCURVE",
"751 56 OFFCURVE",
"751 68 CURVE SMOOTH",
"751 95 LINE"
);
}
);
width = 751;
}
);
leftKerningGroup = T;
rightKerningGroup = T;
unicode = 0054;
},
{
glyphname = U;
lastChange = "2020-03-30 22:27:00 +0000";
layers = (
{
anchors = (
{
name = bottom;
position = "{407, 0}";
},
{
name = ogonek;
position = "{733, 10}";
},
{
name = top;
position = "{407, 699}";
},
{
name = topright;
position = "{794, 769}";
}
);
hints = (
{
horizontal = 1;
origin = "{0, 113}";
target = "{0, 59}";
type = Stem;
},
{
horizontal = 1;
origin = "{0, 95}";
target = down;
type = TopGhost;
},
{
horizontal = 1;
origin = "{0, 83}";
target = down;
type = TopGhost;
},
{
horizontal = 1;
origin = "{0, 35}";
target = up;
type = BottomGhost;
},
{
horizontal = 1;
origin = "{0, 86}";
target = down;
type = TopGhost;
},
{
horizontal = 1;
origin = "{0, 89}";
target = up;
type = BottomGhost;
},
{
origin = "{0, 107}";
target = "{0, 65}";
type = Stem;
},
{
origin = "{0, 120}";
target = "{0, 14}";
type = Stem;
},
{
origin = "{0, 53}";
target = "{0, 17}";
type = Stem;
}
);
layerId = master01;
paths = (
{
closed = 1;
nodes = (
"771 -106 OFFCURVE",
"780 -104 OFFCURVE",
"790 -102 CURVE SMOOTH",
"800 -100 OFFCURVE",
"806 -95 OFFCURVE",
"806 -91 CURVE SMOOTH",
"806 -87 OFFCURVE",
"802 -86 OFFCURVE",
"792 -84 CURVE SMOOTH",
"740 -74 OFFCURVE",
"719 -18 OFFCURVE",
"719 41 CURVE SMOOTH",
"719 119 OFFCURVE",
"725 200 OFFCURVE",
"725 283 CURVE SMOOTH",
"725 357 OFFCURVE",
"733 430 OFFCURVE",
"733 506 CURVE SMOOTH",
"733 526 OFFCURVE",
"732 548 OFFCURVE",
"732 568 CURVE SMOOTH",
"732 622 OFFCURVE",
"748 654 OFFCURVE",
"785 668 CURVE SMOOTH",
"801 674 OFFCURVE",
"806 680 OFFCURVE",
"806 684 CURVE SMOOTH",
"806 688 OFFCURVE",
"803 689 OFFCURVE",
"793 689 CURVE SMOOTH",
"789 689 OFFCURVE",
"782 687 OFFCURVE",
"776 686 CURVE SMOOTH",
"741 682 OFFCURVE",
"708 680 OFFCURVE",
"672 680 CURVE SMOOTH",
"625 680 OFFCURVE",
"578 683 OFFCURVE",
"532 685 CURVE SMOOTH",
"521 686 OFFCURVE",
"508 686 OFFCURVE",
"497 686 CURVE SMOOTH",
"486 686 OFFCURVE",
"479 682 OFFCURVE",
"479 678 CURVE SMOOTH",
"479 674 OFFCURVE",
"485 671 OFFCURVE",
"498 670 CURVE SMOOTH",
"552 666 OFFCURVE",
"584 635 OFFCURVE",
"607 598 CURVE SMOOTH",
"635 554 OFFCURVE",
"656 511 OFFCURVE",
"656 444 CURVE SMOOTH",
"656 330 OFFCURVE",
"645 214 OFFCURVE",
"641 104 CURVE",
"571 46 OFFCURVE",
"527 -58 OFFCURVE",
"401 -58 CURVE SMOOTH",
"275 -58 OFFCURVE",
"197 25 OFFCURVE",
"154 113 CURVE SMOOTH",
"138 144 OFFCURVE",
"127 176 OFFCURVE",
"127 214 CURVE SMOOTH",
"127 248 OFFCURVE",
"136 280 OFFCURVE",
"148 311 CURVE SMOOTH",
"176 381 OFFCURVE",
"212 446 OFFCURVE",
"241 516 CURVE SMOOTH",
"254 548 OFFCURVE",
"261 581 OFFCURVE",
"268 622 CURVE SMOOTH",
"272 646 OFFCURVE",
"280 651 OFFCURVE",
"293 664 CURVE SMOOTH",
"303 674 OFFCURVE",
"307 680 OFFCURVE",
"307 684 CURVE SMOOTH",
"307 688 OFFCURVE",
"304 689 OFFCURVE",
"298 689 CURVE SMOOTH",
"294 689 OFFCURVE",
"288 687 OFFCURVE",
"281 686 CURVE SMOOTH",
"252 681 OFFCURVE",
"222 678 OFFCURVE",
"188 678 CURVE SMOOTH",
"138 678 OFFCURVE",
"92 686 OFFCURVE",
"48 694 CURVE SMOOTH",
"37 696 OFFCURVE",
"29 697 OFFCURVE",
"18 697 CURVE SMOOTH",
"8 697 OFFCURVE",
"1 695 OFFCURVE",
"1 691 CURVE SMOOTH",
"1 687 OFFCURVE",
"6 683 OFFCURVE",
"20 679 CURVE SMOOTH",
"100 659 OFFCURVE",
"147 575 OFFCURVE",
"178 509 CURVE",
"134 407 OFFCURVE",
"46 323 OFFCURVE",
"46 181 CURVE SMOOTH",
"46 78 OFFCURVE",
"106 18 OFFCURVE",
"167 -29 CURVE SMOOTH",
"216 -66 OFFCURVE",
"267 -96 OFFCURVE",
"350 -96 CURVE SMOOTH",
"441 -96 OFFCURVE",
"515 -72 OFFCURVE",
"564 -24 CURVE SMOOTH",
"589 0 OFFCURVE",
"611 28 OFFCURVE",
"640 50 CURVE",
"640 1 LINE SMOOTH",
"640 -34 OFFCURVE",
"639 -66 OFFCURVE",
"635 -100 CURVE",
"655 -99 OFFCURVE",
"671 -89 OFFCURVE",
"691 -89 CURVE SMOOTH",
"715 -89 OFFCURVE",
"732 -106 OFFCURVE",
"761 -106 CURVE SMOOTH"
);
}
);
width = 814;
},
{
associatedMasterId = master01;
layerId = "B0B6687A-7D11-46A3-A68B-BF05A6CAFB3C";
name = bubble;
paths = (
{
closed = 1;
nodes = (
"820 -49 OFFCURVE",
"814 -25 OFFCURVE",
"814 41 CURVE SMOOTH",
"814 80 OFFCURVE",
"814 117 OFFCURVE",
"814 157 CURVE SMOOTH",
"814 283 LINE SMOOTH",
"814 311 OFFCURVE",
"814 338 OFFCURVE",
"814 391 CURVE SMOOTH",
"814 506 LINE SMOOTH",
"814 514 OFFCURVE",
"814 521 OFFCURVE",
"814 538 CURVE SMOOTH",
"814 568 LINE SMOOTH",
"814 618 OFFCURVE",
"814 635 OFFCURVE",
"814 631 CURVE SMOOTH",
"814 684 LINE SMOOTH",
"814 722 OFFCURVE",
"798 729 OFFCURVE",
"793 729 CURVE SMOOTH",
"787 729 OFFCURVE",
"766 727 OFFCURVE",
"762 726 CURVE SMOOTH",
"761 726 OFFCURVE",
"759 725 OFFCURVE",
"760 725 CURVE SMOOTH",
"765 726 LINE SMOOTH",
"728 722 OFFCURVE",
"704 720 OFFCURVE",
"672 720 CURVE SMOOTH",
"640 720 OFFCURVE",
"605 722 OFFCURVE",
"570 723 CURVE SMOOTH",
"552 724 OFFCURVE",
"537 725 OFFCURVE",
"514 726 CURVE SMOOTH",
"509 726 OFFCURVE",
"503 726 OFFCURVE",
"497 726 CURVE SMOOTH",
"478 726 OFFCURVE",
"425 721 OFFCURVE",
"397 704 CURVE",
"374 724 OFFCURVE",
"316 729 OFFCURVE",
"298 729 CURVE SMOOTH",
"292 729 OFFCURVE",
"272 728 OFFCURVE",
"268 727 CURVE SMOOTH",
"259 725 OFFCURVE",
"280 727 OFFCURVE",
"258 724 CURVE SMOOTH",
"229 720 OFFCURVE",
"213 718 OFFCURVE",
"188 718 CURVE SMOOTH",
"152 718 OFFCURVE",
"110 725 OFFCURVE",
"66 733 CURVE SMOOTH",
"58 735 OFFCURVE",
"29 737 OFFCURVE",
"18 737 CURVE SMOOTH",
"14 737 OFFCURVE",
"0 728 OFFCURVE",
"0 691 CURVE SMOOTH",
"0 640 LINE SMOOTH",
"0 641 OFFCURVE",
"0 640 OFFCURVE",
"0 638 CURVE",
"1 638 OFFCURVE",
"2 637 OFFCURVE",
"3 637 CURVE SMOOTH",
"5 635 OFFCURVE",
"6 633 OFFCURVE",
"9 630 CURVE SMOOTH",
"25 612 OFFCURVE",
"49 571 OFFCURVE",
"79 509 CURVE",
"65 477 OFFCURVE",
"64 474 OFFCURVE",
"46 443 CURVE SMOOTH",
"44 439 OFFCURVE",
"42 436 OFFCURVE",
"41 432 CURVE SMOOTH",
"9 309 OFFCURVE",
"0 264 OFFCURVE",
"0 181 CURVE SMOOTH",
"0 85 OFFCURVE",
"28 31 OFFCURVE",
"102 -56 CURVE SMOOTH",
"105 -60 OFFCURVE",
"108 -62 OFFCURVE",
"111 -64 CURVE SMOOTH",
"177 -112 OFFCURVE",
"262 -136 OFFCURVE",
"350 -136 CURVE SMOOTH",
"419 -136 OFFCURVE",
"492 -122 OFFCURVE",
"549 -101 CURVE",
"634 -137 LINE SMOOTH",
"638 -139 OFFCURVE",
"642 -140 OFFCURVE",
"646 -140 CURVE SMOOTH",
"660 -139 OFFCURVE",
"675 -136 OFFCURVE",
"686 -134 CURVE",
"686 -134 LINE SMOOTH",
"704 -141 OFFCURVE",
"738 -146 OFFCURVE",
"761 -146 CURVE SMOOTH",
"772 -146 OFFCURVE",
"789 -145 OFFCURVE",
"801 -143 CURVE SMOOTH",
"807 -142 OFFCURVE",
"810 -139 OFFCURVE",
"811 -133 CURVE SMOOTH",
"813 -126 OFFCURVE",
"814 -113 OFFCURVE",
"814 -91 CURVE SMOOTH",
"814 -57 OFFCURVE",
"812 -49 OFFCURVE",
"811 -45 CURVE"
);
},
{
closed = 1;
nodes = (
"0 634 OFFCURVE",
"3 630 OFFCURVE",
"3 630 CURVE SMOOTH",
"5 633 OFFCURVE",
"0 638 OFFCURVE",
"0 638 CURVE",
"0 639 OFFCURVE",
"0 640 OFFCURVE",
"0 640 CURVE SMOOTH"
);
}
);
width = 814;
}
);
leftKerningGroup = U;
unicode = 0055;
},
{
glyphname = V;
lastChange = "2020-03-30 01:21:45 +0000";
layers = (
{
hints = (
{
horizontal = 1;
origin = "{0, 32}";
target = down;
type = TopGhost;
},
{
horizontal = 1;
origin = "{0, 86}";
target = down;
type = TopGhost;
},
{
horizontal = 1;
origin = "{0, 26}";
target = up;
type = BottomGhost;
},
{
horizontal = 1;
place = "{781, -2147483648}";
type = Stem;
},
{
horizontal = 1;
origin = "{0, 83}";
target = up;
type = BottomGhost;
}
);
layerId = master01;
paths = (
{
closed = 1;
nodes = (
"454 -69 OFFCURVE",
"461 -53 OFFCURVE",
"469 -30 CURVE SMOOTH",
"500 59 OFFCURVE",
"549 160 OFFCURVE",
"587 252 CURVE SMOOTH",
"619 331 OFFCURVE",
"652 421 OFFCURVE",
"690 516 CURVE SMOOTH",
"719 587 OFFCURVE",
"751 645 OFFCURVE",
"779 689 CURVE SMOOTH",
"802 726 OFFCURVE",
"834 757 OFFCURVE",
"888 761 CURVE SMOOTH",
"901 762 OFFCURVE",
"907 765 OFFCURVE",
"907 769 CURVE SMOOTH",
"907 773 OFFCURVE",
"900 778 OFFCURVE",
"889 778 CURVE SMOOTH",
"878 778 OFFCURVE",
"865 777 OFFCURVE",
"854 776 CURVE SMOOTH",
"808 774 OFFCURVE",
"816 774 OFFCURVE",
"769 774 CURVE SMOOTH",
"733 774 OFFCURVE",
"690 777 OFFCURVE",
"655 781 CURVE SMOOTH",
"649 782 OFFCURVE",
"642 784 OFFCURVE",
"638 784 CURVE SMOOTH",
"628 784 OFFCURVE",
"625 783 OFFCURVE",
"625 779 CURVE SMOOTH",
"625 775 OFFCURVE",
"631 769 OFFCURVE",
"647 763 CURVE SMOOTH",
"684 749 OFFCURVE",
"702 730 OFFCURVE",
"702 676 CURVE SMOOTH",
"702 656 OFFCURVE",
"692 620 OFFCURVE",
"682 602 CURVE SMOOTH",
"666 565 OFFCURVE",
"646 527 OFFCURVE",
"629 487 CURVE SMOOTH",
"604 426 OFFCURVE",
"582 363 OFFCURVE",
"556 302 CURVE SMOOTH",
"525 228 OFFCURVE",
"496 156 OFFCURVE",
"470 95 CURVE",
"453 118 OFFCURVE",
"437 155 OFFCURVE",
"425 181 CURVE SMOOTH",
"391 254 OFFCURVE",
"366 318 OFFCURVE",
"334 382 CURVE SMOOTH",
"315 419 OFFCURVE",
"293 456 OFFCURVE",
"274 497 CURVE SMOOTH",
"258 528 OFFCURVE",
"245 562 OFFCURVE",
"228 599 CURVE SMOOTH",
"217 622 OFFCURVE",
"206 651 OFFCURVE",
"206 671 CURVE SMOOTH",
"206 717 OFFCURVE",
"225 747 OFFCURVE",
"262 761 CURVE SMOOTH",
"278 767 OFFCURVE",
"283 772 OFFCURVE",
"283 776 CURVE SMOOTH",
"283 780 OFFCURVE",
"280 781 OFFCURVE",
"270 781 CURVE SMOOTH",
"266 781 OFFCURVE",
"259 780 OFFCURVE",
"253 779 CURVE SMOOTH",
"218 775 OFFCURVE",
"185 773 OFFCURVE",
"149 773 CURVE SMOOTH",
"102 773 OFFCURVE",
"54 776 OFFCURVE",
"8 778 CURVE SMOOTH",
"-3 779 OFFCURVE",
"-15 779 OFFCURVE",
"-26 779 CURVE SMOOTH",
"-37 779 OFFCURVE",
"-44 774 OFFCURVE",
"-44 770 CURVE SMOOTH",
"-44 766 OFFCURVE",
"-38 763 OFFCURVE",
"-25 762 CURVE SMOOTH",
"29 758 OFFCURVE",
"65 727 OFFCURVE",
"84 690 CURVE SMOOTH",
"115 630 OFFCURVE",
"157 529 OFFCURVE",
"192 458 CURVE SMOOTH",
"210 420 OFFCURVE",
"236 380 OFFCURVE",
"256 338 CURVE SMOOTH",
"292 262 OFFCURVE",
"322 185 OFFCURVE",
"356 113 CURVE SMOOTH",
"378 66 OFFCURVE",
"403 22 OFFCURVE",
"420 -16 CURVE SMOOTH",
"437 -54 OFFCURVE",
"444 -69 OFFCURVE",
"449 -69 CURVE SMOOTH"
);
}
);
width = 817;
},
{
associatedMasterId = master01;
layerId = "30AC14F8-212B-43D1-88F3-EEBC4B0EA0C3";
name = bubble;
paths = (
{
closed = 1;
nodes = (
"817 816 LINE",
"792 814 OFFCURVE",
"797 814 OFFCURVE",
"769 814 CURVE SMOOTH",
"739 814 OFFCURVE",
"705 816 OFFCURVE",
"666 821 CURVE SMOOTH",
"671 820 LINE SMOOTH",
"672 820 OFFCURVE",
"670 821 OFFCURVE",
"669 821 CURVE SMOOTH",
"665 822 OFFCURVE",
"644 824 OFFCURVE",
"638 824 CURVE SMOOTH",
"612 824 OFFCURVE",
"525 817 OFFCURVE",
"525 779 CURVE SMOOTH",
"525 748 OFFCURVE",
"589 734 OFFCURVE",
"612 726 CURVE SMOOTH",
"612 725 OFFCURVE",
"602 699 OFFCURVE",
"602 676 CURVE SMOOTH",
"602 662 OFFCURVE",
"598 642 OFFCURVE",
"596 630 CURVE",
"586 608 OFFCURVE",
"578 588 OFFCURVE",
"567 566 CURVE SMOOTH",
"547 524 OFFCURVE",
"538 504 OFFCURVE",
"537 502 CURVE SMOOTH",
"523 470 OFFCURVE",
"513 444 OFFCURVE",
"504 420 CURVE SMOOTH",
"490 385 OFFCURVE",
"470 332 OFFCURVE",
"464 318 CURVE SMOOTH",
"463 316 LINE",
"451 344 OFFCURVE",
"438 371 OFFCURVE",
"423 400 CURVE SMOOTH",
"425 396 OFFCURVE",
"417 411 OFFCURVE",
"400 442 CURVE SMOOTH",
"386 468 OFFCURVE",
"378 484 OFFCURVE",
"350 546 CURVE SMOOTH",
"347 553 OFFCURVE",
"343 563 OFFCURVE",
"338 573 CURVE SMOOTH",
"332 587 OFFCURVE",
"325 602 OFFCURVE",
"319 616 CURVE SMOOTH",
"311 632 OFFCURVE",
"306 652 OFFCURVE",
"306 671 CURVE SMOOTH",
"306 702 OFFCURVE",
"300 724 OFFCURVE",
"297 724 CURVE SMOOTH",
"320 732 OFFCURVE",
"383 746 OFFCURVE",
"383 776 CURVE SMOOTH",
"383 814 OFFCURVE",
"296 821 OFFCURVE",
"270 821 CURVE SMOOTH",
"267 821 OFFCURVE",
"259 821 OFFCURVE",
"252 820 CURVE SMOOTH",
"209 815 OFFCURVE",
"183.993 813 OFFCURVE",
"149 813 CURVE SMOOTH",
"117 813 OFFCURVE",
"81 815 OFFCURVE",
"45 816 CURVE SMOOTH",
"30 817 OFFCURVE",
"18 818 OFFCURVE",
"0 819 CURVE",
"0 819 OFFCURVE",
"0 819 OFFCURVE",
"0 819 CURVE",
"0 770 LINE SMOOTH",
"0 733 OFFCURVE",
"0 724 OFFCURVE",
"0 722 CURVE SMOOTH",
"0 678 LINE SMOOTH",
"0 673 OFFCURVE",
"1 670 OFFCURVE",
"3 666 CURVE SMOOTH",
"11 647 OFFCURVE",
"33 592 OFFCURVE",
"49 553 CURVE SMOOTH",
"66 515 OFFCURVE",
"85 476 OFFCURVE",
"102 441 CURVE SMOOTH",
"101 441 OFFCURVE",
"113 421 OFFCURVE",
"135 381 CURVE SMOOTH",
"148 359 OFFCURVE",
"146 362 OFFCURVE",
"166 321 CURVE SMOOTH",
"174 303 OFFCURVE",
"199 244 OFFCURVE",
"216 206 CURVE SMOOTH",
"231 170 OFFCURVE",
"248 134 OFFCURVE",
"266 96 CURVE SMOOTH",
"266 94 OFFCURVE",
"277 73 OFFCURVE",
"300 29 CURVE SMOOTH",
"309 11 OFFCURVE",
"314 0 OFFCURVE",
"329 -32 CURVE SMOOTH",
"358 -98 OFFCURVE",
"377 -109 OFFCURVE",
"449 -109 CURVE SMOOTH",
"497 -109 OFFCURVE",
"542 -106 OFFCURVE",
"563 -43 CURVE SMOOTH",
"584 17 OFFCURVE",
"598 52 OFFCURVE",
"635 135 CURVE SMOOTH",
"650 169 OFFCURVE",
"674 223 OFFCURVE",
"680 237 CURVE SMOOTH",
"696 277 OFFCURVE",
"713 320 OFFCURVE",
"731 367 CURVE SMOOTH",
"746 407 OFFCURVE",
"769 466 OFFCURVE",
"781 495 CURVE SMOOTH",
"782 500 OFFCURVE",
"783 503 OFFCURVE",
"784 507 CURVE SMOOTH",
"795 571 OFFCURVE",
"806 624 OFFCURVE",
"815 662 CURVE SMOOTH",
"817 666 OFFCURVE",
"817 669 OFFCURVE",
"817 674 CURVE SMOOTH",
"817 721 LINE SMOOTH",
"817 723 OFFCURVE",
"817 732 OFFCURVE",
"817 769 CURVE SMOOTH",
"21 21 OFFCURVE",
"21 21 OFFCURVE",
"817 817 CURVE SMOOTH"
);
}
);
width = 817;
}
);
leftKerningGroup = V;
rightKerningGroup = V;
unicode = 0056;
},
{
glyphname = W;
lastChange = "2020-03-30 01:28:14 +0000";
layers = (
{
hints = (
{
horizontal = 1;
origin = "{0, 98}";
target = down;
type = TopGhost;
},
{
horizontal = 1;
origin = "{0, 200}";
target = down;
type = TopGhost;
},
{
horizontal = 1;
origin = "{0, 197}";
target = up;
type = BottomGhost;
},
{
horizontal = 1;
place = "{781, -2147483648}";
type = Stem;
}
);
layerId = master01;
paths = (
{
closed = 1;
nodes = (
"454 -69 OFFCURVE",
"461 -53 OFFCURVE",
"469 -30 CURVE SMOOTH",
"498 55 OFFCURVE",
"544 150 OFFCURVE",
"581 239 CURVE",
"600 196 OFFCURVE",
"618 154 OFFCURVE",
"637 113 CURVE SMOOTH",
"659 66 OFFCURVE",
"684 22 OFFCURVE",
"701 -16 CURVE SMOOTH",
"718 -54 OFFCURVE",
"725 -69 OFFCURVE",
"730 -69 CURVE SMOOTH",
"735 -69 OFFCURVE",
"742 -53 OFFCURVE",
"750 -30 CURVE SMOOTH",
"781 59 OFFCURVE",
"830 160 OFFCURVE",
"868 252 CURVE SMOOTH",
"900 331 OFFCURVE",
"933 421 OFFCURVE",
"971 516 CURVE SMOOTH",
"1000 587 OFFCURVE",
"1032 645 OFFCURVE",
"1060 689 CURVE SMOOTH",
"1083 726 OFFCURVE",
"1115 757 OFFCURVE",
"1169 761 CURVE SMOOTH",
"1182 762 OFFCURVE",
"1188 765 OFFCURVE",
"1188 769 CURVE SMOOTH",
"1188 773 OFFCURVE",
"1181 778 OFFCURVE",
"1170 778 CURVE SMOOTH",
"1117 778 OFFCURVE",
"1098 773 OFFCURVE",
"1050 773 CURVE SMOOTH",
"1014 773 OFFCURVE",
"987 777 OFFCURVE",
"952 781 CURVE SMOOTH",
"946 782 OFFCURVE",
"939 784 OFFCURVE",
"935 784 CURVE SMOOTH",
"925 784 OFFCURVE",
"922 783 OFFCURVE",
"922 779 CURVE SMOOTH",
"922 775 OFFCURVE",
"927 769 OFFCURVE",
"943 763 CURVE SMOOTH",
"980 749 OFFCURVE",
"989 740 OFFCURVE",
"989 692 CURVE SMOOTH",
"989 672 OFFCURVE",
"972 620 OFFCURVE",
"962 602 CURVE SMOOTH",
"943 566 OFFCURVE",
"927 527 OFFCURVE",
"910 487 CURVE SMOOTH",
"885 426 OFFCURVE",
"862 363 OFFCURVE",
"836 302 CURVE SMOOTH",
"805 228 OFFCURVE",
"777 156 OFFCURVE",
"751 95 CURVE",
"734 118 OFFCURVE",
"718 155 OFFCURVE",
"706 181 CURVE SMOOTH",
"677 244 OFFCURVE",
"653 300 OFFCURVE",
"627 355 CURVE",
"647 406 OFFCURVE",
"667 460 OFFCURVE",
"690 516 CURVE SMOOTH",
"719 587 OFFCURVE",
"751 645 OFFCURVE",
"779 689 CURVE SMOOTH",
"802 726 OFFCURVE",
"819 754 OFFCURVE",
"859 761 CURVE SMOOTH",
"872 763 OFFCURVE",
"878 765 OFFCURVE",
"878 769 CURVE SMOOTH",
"878 773 OFFCURVE",
"871 778 OFFCURVE",
"860 778 CURVE SMOOTH",
"849 778 OFFCURVE",
"837 777 OFFCURVE",
"826 776 CURVE SMOOTH",
"798 774 OFFCURVE",
"792 773 OFFCURVE",
"748 773 CURVE SMOOTH",
"716 773 OFFCURVE",
"690 777 OFFCURVE",
"655 781 CURVE SMOOTH",
"649 782 OFFCURVE",
"642 784 OFFCURVE",
"638 784 CURVE SMOOTH",
"628 784 OFFCURVE",
"625 783 OFFCURVE",
"625 779 CURVE SMOOTH",
"625 775 OFFCURVE",
"631 769 OFFCURVE",
"647 763 CURVE SMOOTH",
"684 749 OFFCURVE",
"702 730 OFFCURVE",
"702 676 CURVE SMOOTH",
"702 656 OFFCURVE",
"692 620 OFFCURVE",
"682 602 CURVE SMOOTH",
"666 565 OFFCURVE",
"646 527 OFFCURVE",
"629 487 CURVE SMOOTH",
"619 462 OFFCURVE",
"609 436 OFFCURVE",
"599 411 CURVE",
"584 439 OFFCURVE",
"568 467 OFFCURVE",
"554 497 CURVE SMOOTH",
"538 528 OFFCURVE",
"526 562 OFFCURVE",
"509 599 CURVE SMOOTH",
"498 622 OFFCURVE",
"487 651 OFFCURVE",
"487 671 CURVE SMOOTH",
"487 717 OFFCURVE",
"498 747 OFFCURVE",
"528 761 CURVE SMOOTH",
"543 768 OFFCURVE",
"550 772 OFFCURVE",
"550 776 CURVE SMOOTH",
"550 780 OFFCURVE",
"546 781 OFFCURVE",
"536 781 CURVE SMOOTH",
"532 781 OFFCURVE",
"526 780 OFFCURVE",
"520 779 CURVE SMOOTH",
"485 775 OFFCURVE",
"466 773 OFFCURVE",
"430 773 CURVE SMOOTH",
"383 773 OFFCURVE",
"384 773 OFFCURVE",
"342 778 CURVE SMOOTH",
"331 779 OFFCURVE",
"317 779 OFFCURVE",
"306 779 CURVE SMOOTH",
"295 779 OFFCURVE",
"288 774 OFFCURVE",
"288 770 CURVE SMOOTH",
"288 766 OFFCURVE",
"299 764 OFFCURVE",
"307 762 CURVE SMOOTH",
"343 754 OFFCURVE",
"346 727 OFFCURVE",
"365 690 CURVE SMOOTH",
"396 630 OFFCURVE",
"438 529 OFFCURVE",
"473 458 CURVE SMOOTH",
"491 420 OFFCURVE",
"516 380 OFFCURVE",
"536 338 CURVE SMOOTH",
"542 325 OFFCURVE",
"548 313 OFFCURVE",
"554 300 CURVE",
"523 227 OFFCURVE",
"496 155 OFFCURVE",
"470 95 CURVE",
"453 118 OFFCURVE",
"437 155 OFFCURVE",
"425 181 CURVE SMOOTH",
"391 254 OFFCURVE",
"366 318 OFFCURVE",
"334 382 CURVE SMOOTH",
"315 419 OFFCURVE",
"293 456 OFFCURVE",
"274 497 CURVE SMOOTH",
"258 528 OFFCURVE",
"245 562 OFFCURVE",
"228 599 CURVE SMOOTH",
"218 622 OFFCURVE",
"194 680 OFFCURVE",
"194 700 CURVE SMOOTH",
"194 726 OFFCURVE",
"202 747 OFFCURVE",
"233 761 CURVE SMOOTH",
"248 768 OFFCURVE",
"254 772 OFFCURVE",
"254 776 CURVE SMOOTH",
"254 780 OFFCURVE",
"251 781 OFFCURVE",
"241 781 CURVE SMOOTH",
"237 781 OFFCURVE",
"230 780 OFFCURVE",
"224 779 CURVE SMOOTH",
"189 775 OFFCURVE",
"166 773 OFFCURVE",
"130 773 CURVE SMOOTH",
"83 773 OFFCURVE",
"54 774 OFFCURVE",
"8 778 CURVE SMOOTH",
"-3 779 OFFCURVE",
"-15 779 OFFCURVE",
"-26 779 CURVE SMOOTH",
"-37 779 OFFCURVE",
"-44 774 OFFCURVE",
"-44 770 CURVE SMOOTH",
"-44 766 OFFCURVE",
"-38 763 OFFCURVE",
"-25 762 CURVE SMOOTH",
"29 758 OFFCURVE",
"65 727 OFFCURVE",
"84 690 CURVE SMOOTH",
"115 630 OFFCURVE",
"157 529 OFFCURVE",
"192 458 CURVE SMOOTH",
"210 420 OFFCURVE",
"236 380 OFFCURVE",
"256 338 CURVE SMOOTH",
"292 262 OFFCURVE",
"322 185 OFFCURVE",
"356 113 CURVE SMOOTH",
"378 66 OFFCURVE",
"403 22 OFFCURVE",
"420 -16 CURVE SMOOTH",
"437 -54 OFFCURVE",
"444 -69 OFFCURVE",
"449 -69 CURVE SMOOTH"
);
}
);
width = 1098;
},
{
associatedMasterId = master01;
layerId = "1BFEB69A-F5A9-4F7A-8321-0600516E882D";
name = bubble;
paths = (
{
closed = 1;
nodes = (
"1098 815 LINE",
"1074 813 OFFCURVE",
"1064 813 OFFCURVE",
"1050 813 CURVE SMOOTH",
"1033 813 OFFCURVE",
"1019 814 OFFCURVE",
"980 819 CURVE SMOOTH",
"974 820 OFFCURVE",
"970 820 OFFCURVE",
"963 821 CURVE",
"968 820 LINE SMOOTH",
"969 820 OFFCURVE",
"967 821 OFFCURVE",
"966 821 CURVE SMOOTH",
"962 822 OFFCURVE",
"941 824 OFFCURVE",
"935 824 CURVE SMOOTH",
"923 824 OFFCURVE",
"899 822 OFFCURVE",
"875 817 CURVE",
"869 818 OFFCURVE",
"864 818 OFFCURVE",
"860 818 CURVE SMOOTH",
"849 818 OFFCURVE",
"827 817 OFFCURVE",
"814 816 CURVE SMOOTH",
"789 814 OFFCURVE",
"777 813 OFFCURVE",
"748 813 CURVE SMOOTH",
"734 813 OFFCURVE",
"722 814 OFFCURVE",
"686 819 CURVE SMOOTH",
"679 819 OFFCURVE",
"674 820 OFFCURVE",
"666 821 CURVE",
"671 820 LINE SMOOTH",
"672 820 OFFCURVE",
"670 821 OFFCURVE",
"669 821 CURVE SMOOTH",
"665 822 OFFCURVE",
"644 824 OFFCURVE",
"638 824 CURVE SMOOTH",
"626 824 OFFCURVE",
"602 823 OFFCURVE",
"579 817 CURVE",
"561 820 OFFCURVE",
"545 821 OFFCURVE",
"536 821 CURVE SMOOTH",
"533 821 OFFCURVE",
"527 821 OFFCURVE",
"521 820 CURVE SMOOTH",
"468 814 OFFCURVE",
"457 813 OFFCURVE",
"430 813 CURVE SMOOTH",
"384 813 OFFCURVE",
"395 813 OFFCURVE",
"354 818 CURVE SMOOTH",
"351 818 LINE SMOOTH",
"343 819 OFFCURVE",
"327 819 OFFCURVE",
"306 819 CURVE SMOOTH",
"301 819 OFFCURVE",
"293 819 OFFCURVE",
"283 817 CURVE",
"266 820 OFFCURVE",
"250 821 OFFCURVE",
"241 821 CURVE SMOOTH",
"238 821 OFFCURVE",
"231 821 OFFCURVE",
"223 820 CURVE SMOOTH",
"175 814 OFFCURVE",
"162 813 OFFCURVE",
"130 813 CURVE SMOOTH",
"83 813 OFFCURVE",
"61 814 OFFCURVE",
"17 818 CURVE SMOOTH",
"15 818 OFFCURVE",
"12 819 OFFCURVE",
"9 819 CURVE SMOOTH",
"3 819 OFFCURVE",
"0 815 OFFCURVE",
"0 809 CURVE SMOOTH",
"0 770 LINE SMOOTH",
"0 733 OFFCURVE",
"0 724 OFFCURVE",
"0 722 CURVE SMOOTH",
"0 678 LINE SMOOTH",
"0 673 OFFCURVE",
"1 670 OFFCURVE",
"3 666 CURVE SMOOTH",
"11 647 OFFCURVE",
"33 592 OFFCURVE",
"49 553 CURVE SMOOTH",
"66 515 OFFCURVE",
"85 476 OFFCURVE",
"102 441 CURVE SMOOTH",
"101 441 OFFCURVE",
"113 421 OFFCURVE",
"135 381 CURVE SMOOTH",
"148 359 OFFCURVE",
"146 362 OFFCURVE",
"166 321 CURVE SMOOTH",
"174 303 OFFCURVE",
"199 244 OFFCURVE",
"216 206 CURVE SMOOTH",
"231 170 OFFCURVE",
"248 134 OFFCURVE",
"266 96 CURVE SMOOTH",
"266 94 OFFCURVE",
"277 73 OFFCURVE",
"300 29 CURVE SMOOTH",
"309 11 OFFCURVE",
"314 0 OFFCURVE",
"329 -32 CURVE SMOOTH",
"358 -98 OFFCURVE",
"377 -109 OFFCURVE",
"449 -109 CURVE SMOOTH",
"497 -109 OFFCURVE",
"542 -106 OFFCURVE",
"564 -43 CURVE SMOOTH",
"571 -20 OFFCURVE",
"578 -1 OFFCURVE",
"586 19 CURVE",
"593 6 OFFCURVE",
"598 -7 OFFCURVE",
"610 -32 CURVE SMOOTH",
"639 -98 OFFCURVE",
"658 -109 OFFCURVE",
"730 -109 CURVE SMOOTH",
"778 -109 OFFCURVE",
"823 -106 OFFCURVE",
"844 -43 CURVE SMOOTH",
"865 17 OFFCURVE",
"879 52 OFFCURVE",
"916 135 CURVE SMOOTH",
"931 169 OFFCURVE",
"955 223 OFFCURVE",
"961 237 CURVE SMOOTH",
"977 277 OFFCURVE",
"994 320 OFFCURVE",
"1012 367 CURVE SMOOTH",
"1027 407 OFFCURVE",
"1050 466 OFFCURVE",
"1062 495 CURVE SMOOTH",
"1063 500 OFFCURVE",
"1064 503 OFFCURVE",
"1065 507 CURVE SMOOTH",
"1076 571 OFFCURVE",
"1087 624 OFFCURVE",
"1096 662 CURVE SMOOTH",
"1098 666 OFFCURVE",
"1098 669 OFFCURVE",
"1098 674 CURVE SMOOTH",
"1098 721 LINE SMOOTH",
"1098 723 OFFCURVE",
"1098 732 OFFCURVE",
"1098 769 CURVE SMOOTH",
"1098 818 LINE"
);
}
);
width = 1098;
}
);
leftKerningGroup = V;
rightKerningGroup = V;
unicode = 0057;
},
